<?xml version="1.0" encoding="iso-8859-1"?>
<!-- Generator: Adobe Illustrator 17.1.0, SVG Export Plug-In . SVG Version: 6.00 Build 0)  -->
<!DOCTYPE svg PUBLIC "-//W3C//DTD SVG 1.1//EN" "http://www.w3.org/Graphics/SVG/1.1/DTD/svg11.dtd">
<svg version="1.1" id="Capa_1" xmlns="http://www.w3.org/2000/svg" xmlns:xlink="http://www.w3.org/1999/xlink" x="0px" y="0px"
	 viewBox="0 0 422.211 422.211" style="enable-background:new 0 0 422.211 422.211;" xml:space="preserve" width="62" height="62">
<g fill="#fa5b00">

<path id="XMLID_76_" d="M404.292,87.397h-83.635V49.931c0-7.339-5.971-13.31-13.31-13.31H114.864
	c-7.339,0-13.311,5.971-13.311,13.31v37.466H17.919c-9.879,0-17.917,8.037-17.917,17.917v64.536c-0.003,0.122-0.003,0.243,0,0.364
	V339.36c0,9.879,8.038,17.916,17.917,17.916H43.45c4.418,0,8-3.582,8-8s-3.582-8-8-8H17.919c-1.039,0-1.917-0.877-1.917-1.916
	V180.627c44.258,12.144,94.796,20.037,147.263,22.988c1.78,7.588,7.274,13.761,14.452,16.488v22.749c0,4.418,3.582,8,8,8h50.775
	c4.418,0,8-3.582,8-8v-22.748c7.179-2.728,12.675-8.9,14.455-16.49c52.473-2.952,103.008-10.846,147.261-22.987V339.36
	c0,1.039-0.878,1.916-1.917,1.916H243.118c-4.418,0-8,3.582-8,8s3.582,8,8,8h161.174c9.879,0,17.917-8.037,17.917-17.916V170.214
	c0.003-0.121,0.003-0.242,0-0.364v-64.536C422.209,95.434,414.172,87.397,404.292,87.397z M165.193,187.698
	c-53.413-2.935-104.736-11.082-149.191-23.681v-58.703c0-1.039,0.878-1.917,1.917-1.917h159.822l0.22,72.975
	C172.419,178.407,167.856,182.49,165.193,187.698z M228.493,234.853h-34.775v-13.237h34.775V234.853z M236.47,205.612
	c-0.077,0-0.153,0.002-0.229,0.004c-0.003,0-0.007,0-0.011,0h-50.249c-0.004,0-0.009,0-0.013,0
	c-0.075-0.002-0.151-0.004-0.227-0.004c-3.932-0.127-7.092-3.366-7.092-7.329c0-0.338,0.023-0.67,0.067-0.995
	c0.01-0.063,0.02-0.128,0.029-0.191c0.568-3.477,3.59-6.139,7.223-6.145c0.012,0,0.024,0,0.036,0h50.225
	c0.064-0.001,0.131,0.002,0.198,0.003c3.531,0.094,6.449,2.697,7.029,6.088c0.013,0.101,0.028,0.2,0.045,0.299
	c0.04,0.309,0.06,0.623,0.06,0.942C243.563,202.246,240.403,205.485,236.47,205.612z M193.742,103.397h34.751v71.555h-34.535
	L193.742,103.397z M236.493,87.397H117.553V52.621h187.104v34.775H236.493z M406.209,164.017
	c-44.449,12.598-95.77,20.744-149.189,23.681c-2.624-5.133-7.093-9.171-12.527-11.235v-73.065h159.799
	c1.039,0,1.917,0.878,1.917,1.917V164.017z M203.025,314.458h-45.172c-2.411,0-4.733,0.395-6.902,1.121
	c0.727-2.171,1.121-4.493,1.121-6.905c0-5.225-1.849-10.024-4.926-13.781c3.078-3.758,4.926-8.559,4.926-13.783
	c0-12.011-9.771-21.782-21.781-21.782H85.12c-12.01,0-21.782,9.771-21.782,21.783c0,5.225,1.849,10.025,4.926,13.782
	c-3.078,3.758-4.926,8.559-4.926,13.784c0,5.225,1.849,10.024,4.926,13.781c-3.078,3.758-4.926,8.559-4.926,13.783
	s1.85,10.026,4.927,13.783c-3.078,3.758-4.927,8.56-4.927,13.784c0,12.01,9.771,21.781,21.782,21.781h45.171
	c5.224,0,10.024-1.849,13.781-4.926c3.757,3.077,8.558,4.926,13.781,4.926h45.172c12.01,0,21.781-9.771,21.781-21.782
	c0-5.225-1.849-10.026-4.927-13.783c3.078-3.758,4.927-8.56,4.927-13.784C224.806,324.23,215.035,314.458,203.025,314.458z
	 M130.291,369.59H85.12c-3.188,0-5.782-2.594-5.782-5.782s2.594-5.782,5.782-5.782c0.059,0,0.117-0.001,0.176-0.002h44.82
	c0.059,0.001,0.117,0.002,0.176,0.002c3.188,0,5.781,2.595,5.781,5.783C136.072,366.996,133.479,369.59,130.291,369.59z
	 M130.291,342.024H85.12c-3.188,0-5.782-2.595-5.782-5.783s2.594-5.782,5.782-5.782h45.171c3.188,0,5.781,2.595,5.781,5.783
	S133.479,342.024,130.291,342.024z M130.291,314.458H85.12c-3.188,0-5.782-2.594-5.782-5.784c0-3.188,2.594-5.781,5.782-5.781
	h45.171c3.188,0,5.781,2.594,5.781,5.784C136.072,311.865,133.479,314.458,130.291,314.458z M130.291,286.893H85.12
	c-3.188,0-5.782-2.595-5.782-5.783s2.594-5.782,5.782-5.782h45.171c3.188,0,5.781,2.595,5.781,5.783
	S133.479,286.893,130.291,286.893z M203.025,369.59h-45.172c-3.188,0-5.781-2.594-5.781-5.782s2.593-5.782,5.781-5.782
	c0.059,0,0.117-0.001,0.176-0.002h44.82c0.059,0.001,0.117,0.002,0.176,0.002c3.188,0,5.781,2.595,5.781,5.783
	C208.806,366.996,206.213,369.59,203.025,369.59z M203.025,342.024h-45.172c-3.188,0-5.781-2.595-5.781-5.783
	s2.593-5.782,5.781-5.782h45.172c3.188,0,5.781,2.595,5.781,5.783S206.213,342.024,203.025,342.024z"/>
<g>
</g>
<g>
</g>
<g>
</g>
<g>
</g>
<g>
</g>
<g>
</g>
<g>
</g>
<g>
</g>
<g>
</g>
<g>
</g>
<g>
</g>
<g>
</g>
<g>
</g>
<g>
</g>
<g>
</g></g>
</svg>
