<?xml version="1.0" encoding="UTF-8"?>
<svg width="51px" height="51px" viewBox="0 0 480 480" version="1.1" xmlns="http://www.w3.org/2000/svg" xmlns:xlink="http://www.w3.org/1999/xlink">
    <!-- Generator: Sketch 52.4 (67378) - http://www.bohemiancoding.com/sketch -->
    <title>001-growth</title>
    <desc>Created with Sketch.</desc>
    <g id="Page-1" stroke="none" stroke-width="1" fill="none" fill-rule="evenodd">
        <g id="001-growth" fill="#FA5B00">
            <path d="M423.618,85.472 L407.618,37.472 C406.232,33.277 401.707,31 397.512,32.386 C397.137,32.51 396.771,32.662 396.418,32.84 L348.418,56.84 C344.464,58.815 342.859,63.622 344.834,67.576 C346.809,71.53 351.616,73.135 355.57,71.16 L381.714,58.088 C312.914,183.912 187.442,264 56.002,264 L56.002,280 C195.026,280 327.506,194.528 398.474,60.72 L408.418,90.528 C409.814,94.725 414.349,96.996 418.546,95.6 C422.743,94.204 425.014,89.669 423.618,85.472 Z" id="Path"></path>
            <path d="M472.002,0 L8.002,0 C3.584,0 0.002,3.582 0.002,8 L0.002,368 C0.002,372.418 3.584,376 8.002,376 L149.17,376 L120.37,469.648 C119.071,473.872 121.442,478.349 125.666,479.648 C129.89,480.947 134.367,478.576 135.666,474.352 L151.146,424 L328.858,424 L344.354,474.352 C345.653,478.576 350.13,480.947 354.354,479.648 C358.578,478.349 360.949,473.872 359.65,469.648 L330.834,376 L472.002,376 C476.42,376 480.002,372.418 480.002,368 L480.002,8 C480.002,3.582 476.42,0 472.002,0 Z M156.066,408 L165.914,376 L314.09,376 L323.938,408 L156.066,408 Z M464.002,360 L16.002,360 L16.002,16 L464.002,16 L464.002,360 Z" id="Shape" fill-rule="nonzero"></path>
            <path d="M96.002,296 L64.002,296 C59.584,296 56.002,299.582 56.002,304 L56.002,336 C56.002,340.418 59.584,344 64.002,344 L96.002,344 C100.42,344 104.002,340.418 104.002,336 L104.002,304 C104.002,299.582 100.42,296 96.002,296 Z M88.002,328 L72.002,328 L72.002,312 L88.002,312 L88.002,328 Z" id="Shape" fill-rule="nonzero"></path>
            <path d="M176.002,280 L144.002,280 C139.584,280 136.002,283.582 136.002,288 L136.002,336 C136.002,340.418 139.584,344 144.002,344 L176.002,344 C180.42,344 184.002,340.418 184.002,336 L184.002,288 C184.002,283.582 180.42,280 176.002,280 Z M168.002,328 L152.002,328 L152.002,296 L168.002,296 L168.002,328 Z" id="Shape" fill-rule="nonzero"></path>
            <path d="M256.002,248 L224.002,248 C219.584,248 216.002,251.582 216.002,256 L216.002,336 C216.002,340.418 219.584,344 224.002,344 L256.002,344 C260.42,344 264.002,340.418 264.002,336 L264.002,256 C264.002,251.582 260.42,248 256.002,248 Z M248.002,328 L232.002,328 L232.002,264 L248.002,264 L248.002,328 Z" id="Shape" fill-rule="nonzero"></path>
            <path d="M336.002,200 L304.002,200 C299.584,200 296.002,203.582 296.002,208 L296.002,336 C296.002,340.418 299.584,344 304.002,344 L336.002,344 C340.42,344 344.002,340.418 344.002,336 L344.002,208 C344.002,203.582 340.42,200 336.002,200 Z M328.002,328 L312.002,328 L312.002,216 L328.002,216 L328.002,328 Z" id="Shape" fill-rule="nonzero"></path>
            <path d="M416.002,112 L384.002,112 C379.584,112 376.002,115.582 376.002,120 L376.002,336 C376.002,340.418 379.584,344 384.002,344 L416.002,344 C420.42,344 424.002,340.418 424.002,336 L424.002,120 C424.002,115.582 420.42,112 416.002,112 Z M408.002,328 L392.002,328 L392.002,128 L408.002,128 L408.002,328 Z" id="Shape" fill-rule="nonzero"></path>
        </g>
    </g>
</svg>
