<?xml version="1.0" encoding="UTF-8"?>
<svg width="51px" height="51px" viewBox="0 0 480 480" version="1.1" xmlns="http://www.w3.org/2000/svg" xmlns:xlink="http://www.w3.org/1999/xlink">
    <!-- Generator: Sketch 52.4 (67378) - http://www.bohemiancoding.com/sketch -->
    <title>002-budget</title>
    <desc>Created with Sketch.</desc>
    <g id="Page-1" stroke="none" stroke-width="1" fill="none" fill-rule="evenodd">
        <g id="002-budget" fill="#FA5B00">
            <path d="M195.353,299.344 L177.713,293.48 C171.911,291.547 167.998,286.116 168.001,280 C168.001,271.163 175.164,264 184.001,264 C192.838,264 200.001,271.163 200.001,280 L216.001,280 C215.946,265.453 206.087,252.773 192.001,249.136 L192.001,232 L176.001,232 L176.001,249.136 C161.916,252.773 152.056,265.453 152.001,280 C151.991,293.003 160.311,304.55 172.649,308.656 L190.289,314.52 C196.091,316.453 200.004,321.884 200.001,328 C200.001,336.837 192.838,344 184.001,344 C175.164,344 168.001,336.837 168.001,328 L152.001,328 C152.056,342.547 161.916,355.227 176.001,358.864 L176.001,376 L192.001,376 L192.001,358.864 C206.087,355.227 215.946,342.547 216.001,328 C216.011,314.997 207.691,303.45 195.353,299.344 Z" id="Path"></path>
            <path d="M472.001,176 L310.273,176 C293.367,155.166 272.114,138.276 248.001,126.512 L248.001,92 L276.801,70.4 C278.815,68.889 280.001,66.518 280.001,64 L280.001,8 C280.001,3.582 276.419,0 272.001,0 L240.001,0 C237.879,0 235.845,0.844 234.345,2.344 L224.001,12.688 L213.657,2.344 C212.157,0.844 210.123,0 208.001,0 L160.001,0 C157.879,0 155.845,0.844 154.345,2.344 L144.001,12.688 L133.657,2.344 C132.157,0.844 130.123,0 128.001,0 L96.001,0 C91.583,0 88.001,3.582 88.001,8 L88.001,64 C88.001,66.518 89.187,68.889 91.201,70.4 L120.001,92 L120.001,126.592 C59.441,155.896 0.001,234.608 0.001,335.56 C0.001,427.352 67.065,480 184.001,480 C202.982,480.068 221.929,478.386 240.601,474.976 C241.814,478.002 244.741,479.989 248.001,480 L472.001,480 C476.419,480 480.001,476.418 480.001,472 L480.001,184 C480.001,179.582 476.419,176 472.001,176 Z M104.001,60 L104.001,16 L124.689,16 L138.345,29.656 C141.469,32.779 146.533,32.779 149.657,29.656 L163.313,16 L204.689,16 L218.345,29.656 C221.469,32.779 226.533,32.779 229.657,29.656 L243.313,16 L264.001,16 L264.001,60 L237.337,80 L130.665,80 L104.001,60 Z M232.001,96 L232.001,120 L136.001,120 L136.001,96 L232.001,96 Z M240.001,371.784 C202.567,402.78 147.094,397.562 116.097,360.128 C85.101,322.694 90.319,267.221 127.753,236.224 C160.312,209.264 207.441,209.264 240,236.224 L240,371.784 L240.001,371.784 Z M240.001,184 L240.001,216.456 C191.654,185.446 127.322,199.5 96.312,247.847 C65.302,296.194 79.356,360.526 127.703,391.536 C161.919,413.483 205.786,413.483 240.002,391.536 L240.002,458.816 C221.546,462.346 202.792,464.082 184.002,464 C133.49,464 16.002,451.488 16.002,335.56 C16.002,259.024 61.874,163.792 138.674,136 L229.386,136 C252.016,144.59 272.363,158.277 288.85,176 L248.002,176 C243.583,176 240.001,179.582 240.001,184 Z M464.001,464 L256.001,464 L256.001,256 L464.001,256 L464.001,464 Z M464.001,240 L256.001,240 L256.001,192 L464.001,192 L464.001,240 Z" id="Shape" fill-rule="nonzero"></path>
            <path d="M312.001,272 L280.001,272 C275.583,272 272.001,275.582 272.001,280 L272.001,312 C272.001,316.418 275.583,320 280.001,320 L312.001,320 C316.419,320 320.001,316.418 320.001,312 L320.001,280 C320.001,275.582 316.419,272 312.001,272 Z M304.001,304 L288.001,304 L288.001,288 L304.001,288 L304.001,304 Z" id="Shape" fill-rule="nonzero"></path>
            <path d="M376.001,272 L344.001,272 C339.583,272 336.001,275.582 336.001,280 L336.001,312 C336.001,316.418 339.583,320 344.001,320 L376.001,320 C380.419,320 384.001,316.418 384.001,312 L384.001,280 C384.001,275.582 380.419,272 376.001,272 Z M368.001,304 L352.001,304 L352.001,288 L368.001,288 L368.001,304 Z" id="Shape" fill-rule="nonzero"></path>
            <path d="M440.001,272 L408.001,272 C403.583,272 400.001,275.582 400.001,280 L400.001,312 C400.001,316.418 403.583,320 408.001,320 L440.001,320 C444.419,320 448.001,316.418 448.001,312 L448.001,280 C448.001,275.582 444.419,272 440.001,272 Z M432.001,304 L416.001,304 L416.001,288 L432.001,288 L432.001,304 Z" id="Shape" fill-rule="nonzero"></path>
            <path d="M312.001,336 L280.001,336 C275.583,336 272.001,339.582 272.001,344 L272.001,376 C272.001,380.418 275.583,384 280.001,384 L312.001,384 C316.419,384 320.001,380.418 320.001,376 L320.001,344 C320.001,339.582 316.419,336 312.001,336 Z M304.001,368 L288.001,368 L288.001,352 L304.001,352 L304.001,368 Z" id="Shape" fill-rule="nonzero"></path>
            <path d="M376.001,336 L344.001,336 C339.583,336 336.001,339.582 336.001,344 L336.001,376 C336.001,380.418 339.583,384 344.001,384 L376.001,384 C380.419,384 384.001,380.418 384.001,376 L384.001,344 C384.001,339.582 380.419,336 376.001,336 Z M368.001,368 L352.001,368 L352.001,352 L368.001,352 L368.001,368 Z" id="Shape" fill-rule="nonzero"></path>
            <path d="M312.001,400 L280.001,400 C275.583,400 272.001,403.582 272.001,408 L272.001,440 C272.001,444.418 275.583,448 280.001,448 L312.001,448 C316.419,448 320.001,444.418 320.001,440 L320.001,408 C320.001,403.582 316.419,400 312.001,400 Z M304.001,432 L288.001,432 L288.001,416 L304.001,416 L304.001,432 Z" id="Shape" fill-rule="nonzero"></path>
            <path d="M376.001,400 L344.001,400 C339.583,400 336.001,403.582 336.001,408 L336.001,440 C336.001,444.418 339.583,448 344.001,448 L376.001,448 C380.419,448 384.001,444.418 384.001,440 L384.001,408 C384.001,403.582 380.419,400 376.001,400 Z M368.001,432 L352.001,432 L352.001,416 L368.001,416 L368.001,432 Z" id="Shape" fill-rule="nonzero"></path>
            <path d="M440.001,336 L408.001,336 C403.583,336 400.001,339.582 400.001,344 L400.001,440 C400.001,444.418 403.583,448 408.001,448 L440.001,448 C444.419,448 448.001,444.418 448.001,440 L448.001,344 C448.001,339.582 444.419,336 440.001,336 Z M432.001,432 L416.001,432 L416.001,352 L432.001,352 L432.001,432 Z" id="Shape" fill-rule="nonzero"></path>
            <rect id="Rectangle" x="432.001" y="208" width="16" height="16"></rect>
            <rect id="Rectangle" x="400.001" y="208" width="16" height="16"></rect>
            <rect id="Rectangle" x="368.001" y="208" width="16" height="16"></rect>
        </g>
    </g>
</svg>