<?xml version="1.0" encoding="UTF-8"?>
<svg width="51px" height="51px" viewBox="0 0 481 481" version="1.1" xmlns="http://www.w3.org/2000/svg" xmlns:xlink="http://www.w3.org/1999/xlink">
    <!-- Generator: Sketch 52.4 (67378) - http://www.bohemiancoding.com/sketch -->
    <title>Shape</title>
    <desc>Created with Sketch.</desc>
    <g id="Page-1" stroke="none" stroke-width="1" fill="none" fill-rule="evenodd">
        <g id="003-worldwide" fill="#FA5B00" fill-rule="nonzero">
            <path d="M240.135,0.05 C144.085,0.036 57.277,57.289 19.472,145.586 L16.48,146.578 L17.64,150.058 C-32.136,272.824 27.033,412.697 149.799,462.473 C178.472,474.099 209.123,480.067 240.064,480.05 C372.612,480.07 480.08,372.634 480.1,240.086 C480.12,107.538 372.684,0.069 240.135,0.05 Z M428.388,361.054 L416.064,348.738 L416.064,320.05 C416.078,318.812 415.804,317.588 415.264,316.474 L384.064,254.162 L384.064,224.05 C384.064,221.376 382.729,218.878 380.504,217.394 L356.504,201.394 C354.623,200.138 352.298,199.737 350.104,200.29 L320.712,207.634 L271.344,186.45 L264.552,138.866 L283.376,120.05 L323.784,120.05 L337.384,140.49 C338.612,142.328 340.547,143.577 342.728,143.938 L390.728,151.938 C392.014,152.154 393.332,152.049 394.568,151.634 L438.776,136.898 C475.855,208.053 471.889,293.634 428.388,361.054 Z M395.392,78.882 L382.384,87.554 L346.12,80.298 L322.592,72.466 C321.152,71.977 319.602,71.915 318.128,72.29 L288.384,79.722 L275.344,75.378 L285.008,56.05 L312.064,56.05 C313.305,56.051 314.529,55.764 315.64,55.21 L343.32,41.37 C362.382,51.32 379.918,63.952 395.392,78.882 Z M152.44,33.914 L171.64,46.714 C172.584,47.342 173.65,47.762 174.768,47.946 L213.536,54.41 L209.752,65.73 L189.552,72.474 C187.743,73.076 186.208,74.304 185.224,75.938 L162.248,114.226 L125.344,136.37 L70.944,144.138 C67.001,144.695 64.069,148.068 64.064,152.05 L64.064,176.05 C64.064,178.172 64.908,180.206 66.408,181.706 L80.064,195.362 L80.064,209.106 L46.784,186.914 L34.712,150.698 C57.68,98.218 99.777,56.458 152.44,33.914 Z M129.664,296.21 L93.504,288.97 L80.064,262.162 L80.064,243.362 L109.872,213.554 L120.904,235.626 C122.259,238.338 125.032,240.051 128.064,240.05 L179.536,240.05 L201.208,276.17 C202.654,278.577 205.256,280.049 208.064,280.05 L230.304,280.05 L224.704,308.106 L194.416,338.394 C192.913,339.893 192.067,341.927 192.064,344.05 L192.064,364.05 L163.264,385.65 C161.25,387.161 160.064,389.532 160.064,392.05 L160.064,420.946 L150.112,417.65 L136.064,382.514 L136.064,304.05 C136.065,300.248 133.389,296.97 129.664,296.21 Z M105.616,419.191 C30.187,362.602 -1.712,264.826 25.832,174.642 L32.48,194.578 C33.04,196.265 34.146,197.718 35.624,198.706 L75.504,225.29 L66.408,234.394 C64.908,235.894 64.064,237.928 64.064,240.05 L64.064,264.05 C64.063,265.291 64.35,266.515 64.904,267.626 L80.904,299.626 C82.012,301.836 84.079,303.41 86.504,303.89 L120.104,310.602 L120.104,384.05 C120.103,385.066 120.296,386.074 120.672,387.018 L136.672,427.018 C137.548,429.203 139.342,430.892 141.576,431.634 L165.576,439.634 C166.378,439.906 167.218,440.046 168.064,440.05 C172.482,440.05 176.064,436.468 176.064,432.05 L176.064,396.05 L204.864,374.45 C206.878,372.939 208.064,370.568 208.064,368.05 L208.064,347.362 L237.72,317.706 C238.835,316.589 239.595,315.166 239.904,313.618 L247.904,273.618 C248.77,269.285 245.96,265.071 241.627,264.205 C241.112,264.102 240.589,264.05 240.064,264.05 L212.592,264.05 L190.92,227.93 C189.474,225.523 186.872,224.051 184.064,224.05 L133.008,224.05 L119.264,196.474 C118.113,194.172 115.925,192.564 113.384,192.154 C110.844,191.715 108.251,192.553 106.448,194.394 L96.064,204.738 L96.064,192.05 C96.064,189.928 95.22,187.894 93.72,186.394 L80.064,172.738 L80.064,158.986 L129.2,151.97 C130.255,151.817 131.27,151.455 132.184,150.906 L172.184,126.906 C173.306,126.232 174.246,125.292 174.92,124.17 L197.4,86.706 L218.592,79.634 C220.985,78.849 222.863,76.972 223.648,74.578 L231.648,50.578 C233.034,46.383 230.757,41.858 226.562,40.472 C226.175,40.344 225.778,40.246 225.376,40.178 L179.072,32.458 L170.936,27.034 C221.279,10.648 275.805,12.676 324.792,32.754 L310.176,40.05 L280.064,40.05 C277.017,40.033 274.226,41.749 272.864,44.474 L256.864,76.474 C254.893,80.428 256.5,85.232 260.454,87.203 C260.791,87.371 261.139,87.515 261.496,87.634 L285.496,95.634 C286.936,96.123 288.486,96.185 289.96,95.81 L319.704,88.378 L341.496,95.634 C341.808,95.746 342.129,95.832 342.456,95.89 L382.456,103.89 C384.536,104.314 386.7,103.888 388.464,102.706 L406.672,90.562 C415.633,100.543 423.686,111.303 430.736,122.714 L391.376,135.834 L348.76,128.73 L334.68,107.61 C333.204,105.397 330.724,104.063 328.064,104.05 L280.064,104.05 C277.942,104.05 275.908,104.894 274.408,106.394 L250.408,130.394 C248.626,132.175 247.787,134.692 248.144,137.186 L256.144,193.186 C256.547,195.955 258.367,198.312 260.944,199.402 L316.944,223.402 C318.548,224.097 320.338,224.24 322.032,223.81 L350.6,216.666 L368.064,228.33 L368.064,256.05 C368.05,257.288 368.324,258.512 368.864,259.626 L400.064,321.938 L400.064,352.05 C400.064,354.172 400.908,356.206 402.408,357.706 L419.144,374.45 C344.921,473.383 204.549,493.415 105.616,419.191 Z" id="Shape"></path>
        </g>
    </g>
</svg>