<?xml version="1.0" encoding="utf-8"?>
<!-- Generator: Adobe Illustrator 22.1.0, SVG Export Plug-In . SVG Version: 6.00 Build 0)  -->
<svg version="1.1" id="content" xmlns="http://www.w3.org/2000/svg" xmlns:xlink="http://www.w3.org/1999/xlink" x="0px" y="0px"
	 viewBox="0 0 830 450" style="enable-background:new 0 0 830 450;" xml:space="preserve">
<style type="text/css">
	.st0{opacity:0.5;}
	.st1{fill:#8800BA;}
	.st2{fill:url(#XMLID_16_);}
	.st3{fill:url(#XMLID_18_);}
	.st4{fill:url(#XMLID_21_);}
	.st5{fill:url(#XMLID_28_);}
	.st6{fill:url(#XMLID_33_);}
	.st7{fill:url(#XMLID_34_);}
	.st8{fill:url(#XMLID_35_);}
	.st9{fill:url(#XMLID_36_);}
	.st10{fill:url(#XMLID_37_);}
	.st11{fill:url(#XMLID_38_);}
	.st12{fill:url(#XMLID_39_);}
	.st13{fill:url(#XMLID_40_);}
	.st14{fill:url(#XMLID_41_);}
	.st15{fill:url(#XMLID_42_);}
	.st16{fill:url(#XMLID_43_);}
	.st17{fill:url(#XMLID_44_);}
	.st18{fill:#E2D7FF;}
	.st19{fill:url(#XMLID_45_);}
	.st20{fill:url(#XMLID_46_);}
	.st21{fill:#F8F3FF;}
	.st22{fill:url(#XMLID_47_);}
	.st23{fill:url(#XMLID_48_);}
	.st24{fill:#0083D3;}
	.st25{fill:url(#XMLID_49_);}
	.st26{fill:url(#XMLID_50_);}
	.st27{fill:url(#XMLID_51_);}
	.st28{fill:url(#XMLID_52_);}
	.st29{fill:url(#XMLID_53_);}
	.st30{fill:url(#XMLID_54_);}
	.st31{fill:url(#XMLID_57_);}
	.st32{fill:url(#XMLID_58_);}
	.st33{fill:url(#XMLID_59_);}
	.st34{fill:url(#XMLID_60_);}
	.st35{fill:url(#XMLID_61_);}
	.st36{fill:url(#XMLID_62_);}
	.st37{fill:url(#XMLID_63_);}
	.st38{fill:url(#XMLID_64_);}
	.st39{fill:url(#XMLID_65_);}
	.st40{fill:#D8C0FF;}
	.st41{fill:url(#XMLID_66_);}
	.st42{fill:url(#XMLID_67_);}
	.st43{fill:url(#XMLID_68_);}
	.st44{fill:url(#XMLID_69_);}
	.st45{fill:url(#XMLID_70_);}
	.st46{fill:url(#XMLID_71_);}
	.st47{fill:url(#XMLID_72_);}
	.st48{fill:url(#XMLID_73_);}
	.st49{fill:url(#XMLID_74_);}
	.st50{fill:url(#XMLID_75_);}
	.st51{fill:url(#XMLID_76_);}
	.st52{fill:url(#XMLID_77_);}
	.st53{fill:url(#XMLID_78_);}
	.st54{fill:url(#XMLID_79_);}
	.st55{fill:url(#XMLID_80_);}
	.st56{fill:url(#XMLID_81_);}
	.st57{fill:url(#XMLID_82_);}
	.st58{fill:url(#XMLID_83_);}
	.st59{fill:url(#XMLID_84_);}
	.st60{fill:url(#XMLID_85_);}
	.st61{fill:url(#XMLID_86_);}
	.st62{fill:url(#XMLID_87_);}
	.st63{fill:url(#XMLID_88_);}
	.st64{fill:url(#XMLID_89_);}
	.st65{fill:url(#XMLID_90_);}
	.st66{fill:url(#XMLID_91_);}
	.st67{fill:url(#XMLID_92_);}
	.st68{fill:url(#XMLID_93_);}
	.st69{fill:url(#XMLID_94_);}
	.st70{fill:url(#XMLID_95_);}
	.st71{fill:url(#XMLID_96_);}
	.st72{fill:url(#XMLID_97_);}
	.st73{fill:url(#XMLID_98_);}
	.st74{fill:url(#XMLID_99_);}
	.st75{fill:url(#XMLID_100_);}
	.st76{fill:url(#XMLID_101_);}
	.st77{fill:url(#XMLID_102_);}
	.st78{fill:url(#XMLID_103_);}
	.st79{fill:url(#XMLID_104_);}
	.st80{fill:url(#XMLID_105_);}
	.st81{fill:url(#XMLID_106_);}
	.st82{fill:url(#XMLID_107_);}
	.st83{fill:url(#XMLID_108_);}
	.st84{fill:url(#XMLID_109_);}
	.st85{fill:url(#XMLID_110_);}
	.st86{fill:url(#XMLID_111_);}
	.st87{fill:url(#XMLID_112_);}
	.st88{fill:url(#XMLID_113_);}
	.st89{fill:url(#XMLID_114_);}
	.st90{fill:url(#XMLID_115_);}
	.st91{fill:url(#XMLID_116_);}
	.st92{fill:url(#XMLID_117_);}
	.st93{fill:url(#XMLID_118_);}
	.st94{fill:url(#XMLID_119_);}
	.st95{fill:#CBB0FF;}
	.st96{fill:url(#XMLID_120_);}
	.st97{fill:url(#XMLID_121_);}
	.st98{fill:url(#XMLID_122_);}
	.st99{fill:url(#XMLID_123_);}
	.st100{fill:url(#XMLID_124_);}
	.st101{fill:url(#XMLID_125_);}
	.st102{fill:url(#XMLID_126_);}
	.st103{fill:url(#XMLID_127_);}
	.st104{fill:url(#XMLID_128_);}
	.st105{fill:url(#XMLID_129_);}
	.st106{fill:url(#XMLID_130_);}
	.st107{fill:url(#XMLID_131_);}
	.st108{fill:url(#XMLID_132_);}
	.st109{fill:url(#XMLID_133_);}
	.st110{fill:url(#XMLID_134_);}
	.st111{fill:url(#XMLID_135_);}
	.st112{fill:url(#XMLID_136_);}
	.st113{fill:url(#XMLID_137_);}
	.st114{fill:url(#XMLID_138_);}
	.st115{fill:url(#XMLID_139_);}
	.st116{fill:url(#XMLID_140_);}
	.st117{fill:url(#XMLID_141_);}
	.st118{fill:url(#XMLID_142_);}
	.st119{fill:url(#XMLID_143_);}
	.st120{fill:url(#XMLID_144_);}
	.st121{fill:url(#XMLID_145_);}
	.st122{fill:url(#XMLID_146_);}
	.st123{fill:url(#XMLID_147_);}
	.st124{fill:url(#XMLID_148_);}
	.st125{fill:url(#XMLID_149_);}
	.st126{fill:url(#XMLID_150_);}
	.st127{fill:url(#XMLID_151_);}
</style>
<g id="_x31_7">
	<g id="XMLID_1904_" class="st0">
		<path id="XMLID_1_" class="st1" d="M697,208.2l-38-22c-5.2-3-4.5-8.3,1.5-11.7l32.1-18.5c6-3.5,15.1-3.8,20.3-0.8l38,22
			c5.2,3,4.5,8.3-1.5,11.7l-32.1,18.5C711.3,210.8,702.2,211.2,697,208.2z"/>
	</g>
	<g id="XMLID_1901_">
		<linearGradient id="XMLID_16_" gradientUnits="userSpaceOnUse" x1="717.5293" y1="176.8247" x2="693.8806" y2="176.8247">
			<stop  offset="0" style="stop-color:#BA83FF"/>
			<stop  offset="1" style="stop-color:#D8ABFF"/>
		</linearGradient>
		<path id="XMLID_1903_" class="st2" d="M756.7,177.3l0-12l-6.9,0l-36.4-16.2c-5.4-3.2-14.9-2.8-21.2,0.8l-33.6,14.4
			c-0.3,0.2-0.5,0.3-0.8,0.5l-4.4,0v11.5h0c0,2,1.2,3.8,3.7,5.2l39.7,23c5.4,3.2,14.9,2.8,21.2-0.8l33.6-19.3
			C755,182.4,756.7,179.8,756.7,177.3L756.7,177.3z"/>
		<linearGradient id="XMLID_18_" gradientUnits="userSpaceOnUse" x1="937.5533" y1="301.0134" x2="686.3734" y2="154.5424">
			<stop  offset="0" style="stop-color:#9C74FF"/>
			<stop  offset="1" style="stop-color:#FFF6FF"/>
		</linearGradient>
		<path id="XMLID_1902_" class="st3" d="M696.6,193.1l-39.7-23c-5.4-3.2-4.7-8.6,1.5-12.3l33.6-19.3c6.3-3.6,15.8-4,21.2-0.8
			l39.7,23c5.4,3.2,4.7,8.6-1.5,12.3l-33.6,19.3C711.6,195.9,702,196.3,696.6,193.1z"/>
	</g>
	<g id="XMLID_1956_">
		<g id="XMLID_1953_">
			<linearGradient id="XMLID_21_" gradientUnits="userSpaceOnUse" x1="716.6549" y1="143.9015" x2="709.4228" y2="143.9015">
				<stop  offset="0" style="stop-color:#867CE2"/>
				<stop  offset="1" style="stop-color:#CCB0FF"/>
			</linearGradient>
			<path id="XMLID_1955_" class="st4" d="M739.1,168.8l0-63.3l-52.3-1l0,62.9c-0.2,0.6,0.1,1.2,0.8,1.6l23.7,14
				c1.2,0.7,3.4,0.7,4.8-0.1l21.8-12.3C738.8,170,739.2,169.4,739.1,168.8z"/>
			<linearGradient id="XMLID_28_" gradientUnits="userSpaceOnUse" x1="872.0844" y1="220.2491" x2="698.0882" y2="93.8571">
				<stop  offset="0" style="stop-color:#6318FF"/>
				<stop  offset="1" style="stop-color:#FFFFFF"/>
			</linearGradient>
			<path id="XMLID_1954_" class="st5" d="M711.3,119.3l-23.7-14c-1.2-0.7-1.1-2,0.4-2.8l21.8-12.3c1.4-0.8,3.6-0.9,4.8-0.1l23.7,14
				c1.2,0.7,1.1,2-0.4,2.8l-21.8,12.3C714.7,119.9,712.5,120,711.3,119.3z"/>
		</g>
		<g id="XMLID_1950_">
			<linearGradient id="XMLID_33_" gradientUnits="userSpaceOnUse" x1="667.8075" y1="99.1084" x2="737.0275" y2="195.0448">
				<stop  offset="5.102040e-03" style="stop-color:#60D1FF"/>
				<stop  offset="1" style="stop-color:#0000AB"/>
			</linearGradient>
			<path id="XMLID_1952_" class="st6" d="M702.9,166l-7.2-4.2c-1.1-0.6-2-2.4-2-3.9l0-36.9c0-1.5,0.9-2.2,2-1.5l7.2,4.2
				c1.1,0.6,2,2.4,2,3.9l0,36.9C704.9,166,704,166.7,702.9,166z"/>
			<linearGradient id="XMLID_34_" gradientUnits="userSpaceOnUse" x1="685.3961" y1="126.3973" x2="754.616" y2="222.3335">
				<stop  offset="5.102040e-03" style="stop-color:#83FFFF"/>
				<stop  offset="1" style="stop-color:#2E00F4"/>
			</linearGradient>
			<path id="XMLID_1951_" class="st7" d="M701.5,166.9l-7.2-4.2c-1.1-0.6-2-2.4-2-3.9l0-36.9c0-1.5,0.9-2.2,2-1.5l7.2,4.2
				c1.1,0.6,2,2.4,2,3.9l0,36.9C703.5,166.9,702.6,167.6,701.5,166.9z"/>
		</g>
	</g>
	<g id="XMLID_511_">
		<linearGradient id="XMLID_35_" gradientUnits="userSpaceOnUse" x1="674.8959" y1="153.8008" x2="668.3931" y2="153.8008">
			<stop  offset="0" style="stop-color:#6318FF"/>
			<stop  offset="1" style="stop-color:#FFF6E2"/>
		</linearGradient>
		<path id="XMLID_510_" class="st8" d="M672.3,161.4L672.3,161.4c-1.2,0-2.1-1-2.1-2.1v-10.9c0-1.2,1-2.1,2.1-2.1l0,0
			c1.2,0,2.1,1,2.1,2.1v10.9C674.4,160.4,673.4,161.4,672.3,161.4z"/>
		<g id="XMLID_1494_">
			<radialGradient id="XMLID_36_" cx="667.5134" cy="130.2827" r="27.5462" gradientUnits="userSpaceOnUse">
				<stop  offset="0" style="stop-color:#00FFE2"/>
				<stop  offset="1" style="stop-color:#3124FF"/>
			</radialGradient>
			<path id="XMLID_1495_" class="st9" d="M678.2,149.1L678.2,149.1l-3.5-18.9h0c-0.2-1.2-1.3-2.2-2.6-2.2c-1.3,0-2.4,1-2.6,2.2h0
				l-3.3,18.9h0c-0.1,0.5-0.2,1-0.2,1.5c0,3.4,2.8,6.2,6.2,6.2c3.4,0,6.2-2.8,6.2-6.2C678.4,150.1,678.4,149.6,678.2,149.1z"/>
		</g>
	</g>
</g>
<g id="_x31_6">
	<g id="XMLID_1667_">
		<linearGradient id="XMLID_37_" gradientUnits="userSpaceOnUse" x1="646.1033" y1="248.0469" x2="640.6639" y2="248.0469">
			<stop  offset="0" style="stop-color:#867CE2"/>
			<stop  offset="1" style="stop-color:#CCB0FF"/>
		</linearGradient>
		<path id="XMLID_1669_" class="st10" d="M663,244.6l0-3.4l-39.3-0.8l0,3.1c-0.1,0.4,0,0.9,0.6,1.2l17.8,10.5
			c0.9,0.5,2.5,0.5,3.6-0.1l16.4-9.2C662.8,245.6,663.1,245.1,663,244.6z"/>
		<linearGradient id="XMLID_38_" gradientUnits="userSpaceOnUse" x1="740.4858" y1="311.2262" x2="629.2043" y2="230.3906">
			<stop  offset="0" style="stop-color:#6318FF"/>
			<stop  offset="1" style="stop-color:#FFFFFF"/>
		</linearGradient>
		<path id="XMLID_1668_" class="st11" d="M642.1,251.6l-17.8-10.5c-0.9-0.5-0.8-1.5,0.3-2.1l16.4-9.2c1.1-0.6,2.7-0.7,3.6-0.1
			l17.8,10.5c0.9,0.5,0.8,1.5-0.3,2.1l-16.4,9.2C644.6,252.1,643,252.2,642.1,251.6z"/>
	</g>
	<linearGradient id="XMLID_39_" gradientUnits="userSpaceOnUse" x1="705.6172" y1="285.8974" x2="634.2709" y2="234.071">
		<stop  offset="0" style="stop-color:#867CE2"/>
		<stop  offset="1" style="stop-color:#CCB0FF"/>
	</linearGradient>
	<path id="XMLID_1666_" class="st12" d="M642.5,247.7l-11.4-6.8c-0.6-0.4-0.5-0.9,0.2-1.3l10.5-5.9c0.7-0.4,1.7-0.4,2.3-0.1
		l11.4,6.8c0.6,0.4,0.5,1-0.2,1.3l-10.5,5.9C644.2,248,643.1,248,642.5,247.7z"/>
	<linearGradient id="XMLID_40_" gradientUnits="userSpaceOnUse" x1="644.6825" y1="238.1707" x2="641.0211" y2="238.1707">
		<stop  offset="0" style="stop-color:#7463E2"/>
		<stop  offset="1" style="stop-color:#A98DFF"/>
	</linearGradient>
	<path id="XMLID_1665_" class="st13" d="M631.1,240.9l2.5,1.5l8.2-4.6c0.7-0.4,1.7-0.4,2.3-0.1l9,5.3l2.3-1.3c0.7-0.4,0.8-1,0.2-1.3
		l-11.4-6.8c-0.6-0.4-1.6-0.3-2.3,0.1l-10.5,5.9C630.6,240,630.5,240.6,631.1,240.9z"/>
	<g id="XMLID_1661_">
		<linearGradient id="XMLID_41_" gradientUnits="userSpaceOnUse" x1="648.59" y1="225.8316" x2="634.8271" y2="225.8316">
			<stop  offset="0" style="stop-color:#6318FF"/>
			<stop  offset="1" style="stop-color:#FFF6E2"/>
		</linearGradient>
		<path id="XMLID_1664_" class="st14" d="M643.3,243.2L643.3,243.2c-2.5,0-4.5-2-4.5-4.5v-25.8c0-2.5,2-4.5,4.5-4.5l0,0
			c2.5,0,4.5,2,4.5,4.5v25.8C647.8,241.2,645.8,243.2,643.3,243.2z"/>
		<radialGradient id="XMLID_42_" cx="627.7227" cy="201.338" r="40.5506" gradientUnits="userSpaceOnUse">
			<stop  offset="0" style="stop-color:#00FFE2"/>
			<stop  offset="1" style="stop-color:#3124FF"/>
		</radialGradient>
		<circle id="XMLID_1663_" class="st15" cx="643.4" cy="204.1" r="21.7"/>
		<radialGradient id="XMLID_43_" cx="636.2069" cy="178.8145" r="28.1339" gradientUnits="userSpaceOnUse">
			<stop  offset="0" style="stop-color:#00FFE2"/>
			<stop  offset="1" style="stop-color:#3124FF"/>
		</radialGradient>
		<path id="XMLID_1662_" class="st16" d="M643.3,170c-8.4,0-15.2,6.8-15.2,15.2c0,3.1,1,6.1,2.6,8.5l0,0c0,0.1,0.2,0.2,0.2,0.3
			c0.3,0.5,0.7,0.9,1.1,1.3c1.8,1.6,4.7,4.5,11.4,4.5c7.2,0,9.6-2.6,11.2-4.3c0.5-0.5,0.9-1.1,1.4-1.7c0,0,0-0.1,0-0.1h0.1
			c1.6-2.4,2.6-5.3,2.6-8.5C658.6,176.8,651.7,170,643.3,170z"/>
	</g>
</g>
<g id="_x31_5">
	<linearGradient id="XMLID_44_" gradientUnits="userSpaceOnUse" x1="482.1379" y1="269.18" x2="474.3159" y2="269.18">
		<stop  offset="0" style="stop-color:#867CE2"/>
		<stop  offset="1" style="stop-color:#CCB0FF"/>
	</linearGradient>
	<path id="XMLID_1823_" class="st17" d="M503.5,290.2L503.5,290.2v-55.8l-53-0.9v55.3c-0.1,0.7,0.2,1.3,1,1.8l23.9,13.8
		c1.5,0.9,4.2,0.8,6-0.2l20.6-11.9C503.1,291.6,503.5,290.9,503.5,290.2z"/>
	<path id="XMLID_1822_" class="st18" d="M477.8,220.7c-1-0.6-2.8-0.5-4,0.2l-13.9,8c-1.2,0.7-1.3,1.7-0.3,2.3l16.1,9.3
		c1,0.6,2.8,0.5,4-0.2l13.9-8c1.2-0.7,1.3-1.7,0.3-2.3L477.8,220.7z"/>
	<linearGradient id="XMLID_45_" gradientUnits="userSpaceOnUse" x1="459.8655" y1="218.826" x2="491.3979" y2="218.826">
		<stop  offset="0" style="stop-color:#0047FF"/>
		<stop  offset="1" style="stop-color:#00FFE5"/>
	</linearGradient>
	<path id="XMLID_1821_" class="st19" d="M473.8,220.9c1.2-0.7,3-0.8,4-0.2l13.1,7.6l7.9-5l-22.8-13.9l-20.9,12.1l8.4,5.4
		L473.8,220.9z"/>
	<linearGradient id="XMLID_46_" gradientUnits="userSpaceOnUse" x1="503.0968" y1="235.5462" x2="454.671" y2="235.5462">
		<stop  offset="0" style="stop-color:#0047FF"/>
		<stop  offset="1" style="stop-color:#00FFE5"/>
	</linearGradient>
	<path id="XMLID_1820_" class="st20" d="M503.5,234.5L503.5,234.5l0-11.8l-19.8,9.1l-9.9,2l-23.3-12l0,11.2c-0.1,0.7,0.2,1.3,1,1.8
		l23.9,13.8c1.5,0.9,4.2,0.8,6-0.2l20.6-11.9C503.1,236,503.5,235.2,503.5,234.5z"/>
	<path id="XMLID_1817_" class="st21" d="M502.5,221.3l-23.9-13.8c-1.5-0.9-4.2-0.8-6,0.2L452,219.6c-1.8,1-2,2.6-0.4,3.4l23.9,13.8
		c1.5,0.9,4.2,0.8,6-0.2l20.6-11.9C503.8,223.7,504,222.2,502.5,221.3z M493.8,223.9l-13.9,8c-1.2,0.7-3,0.8-4,0.2l-16.1-9.3
		c-1-0.6-0.9-1.6,0.3-2.3l13.9-8c1.2-0.7,3-0.8,4-0.2l16.1,9.3C495.1,222.2,495,223.2,493.8,223.9z"/>
	<g id="XMLID_1814_">
		<linearGradient id="XMLID_47_" gradientUnits="userSpaceOnUse" x1="503.5029" y1="225.0472" x2="503.5029" y2="225.0472">
			<stop  offset="0" style="stop-color:#0047FF"/>
			<stop  offset="1" style="stop-color:#00FFE5"/>
		</linearGradient>
		<polygon id="XMLID_1816_" class="st22" points="503.5,225 503.5,225 503.5,225 		"/>
		<linearGradient id="XMLID_48_" gradientUnits="userSpaceOnUse" x1="503.0977" y1="237.1208" x2="454.672" y2="237.1208">
			<stop  offset="0" style="stop-color:#0047FF"/>
			<stop  offset="1" style="stop-color:#00FFE5"/>
		</linearGradient>
		<path id="XMLID_1815_" class="st23" d="M502,226.3l-20.6,11.9c-1.8,1-4.4,1.1-6,0.2l-23.9-13.8c-0.6-0.3-0.9-0.8-1-1.2l0,11.2
			c-0.1,0.7,0.2,1.3,1,1.8l23.9,13.8c1.5,0.9,4.2,0.8,6-0.2l20.6-11.9c1-0.6,1.5-1.3,1.5-2l0-11.7C503.5,225.1,503,225.8,502,226.3z
			"/>
	</g>
	<g id="XMLID_1684_">
		<g id="XMLID_1805_">
			<path id="XMLID_1807_" class="st24" d="M470,287.7l-12.3-7.1c-0.9-0.5-1.5-1.8-1.5-2.9l0,0c0-1.1,0.7-1.7,1.5-1.2l12.3,7.1
				c0.9,0.5,1.5,1.8,1.5,2.9l0,0C471.5,287.7,470.8,288.2,470,287.7z"/>
			<linearGradient id="XMLID_49_" gradientUnits="userSpaceOnUse" x1="466.9135" y1="289.9304" x2="457.6557" y2="275.3121">
				<stop  offset="0" style="stop-color:#0E9CFF"/>
				<stop  offset="1" style="stop-color:#FFF6FF"/>
			</linearGradient>
			<path id="XMLID_1806_" class="st25" d="M468.4,288.2l-12.3-7.1c-0.9-0.5-1.5-1.8-1.5-2.9l0,0c0-1.1,0.7-1.7,1.5-1.2l12.3,7.1
				c0.9,0.5,1.5,1.8,1.5,2.9l0,0C470,288.2,469.3,288.7,468.4,288.2z"/>
		</g>
		<g id="XMLID_1698_">
			<path id="XMLID_1804_" class="st24" d="M470,278l-12.3-7.1c-0.9-0.5-1.5-1.8-1.5-2.9l0,0c0-1.1,0.7-1.7,1.5-1.2l12.3,7.1
				c0.9,0.5,1.5,1.8,1.5,2.9l0,0C471.5,277.9,470.8,278.5,470,278z"/>
			<linearGradient id="XMLID_50_" gradientUnits="userSpaceOnUse" x1="466.9135" y1="280.1988" x2="457.6557" y2="265.5805">
				<stop  offset="0" style="stop-color:#0E9CFF"/>
				<stop  offset="1" style="stop-color:#FFF6FF"/>
			</linearGradient>
			<path id="XMLID_1800_" class="st26" d="M468.4,278.5l-12.3-7.1c-0.9-0.5-1.5-1.8-1.5-2.9l0,0c0-1.1,0.7-1.7,1.5-1.2l12.3,7.1
				c0.9,0.5,1.5,1.8,1.5,2.9l0,0C470,278.5,469.3,279,468.4,278.5z"/>
		</g>
		<g id="XMLID_1695_">
			<path id="XMLID_1697_" class="st24" d="M470,268.4l-12.3-7.1c-0.9-0.5-1.5-1.8-1.5-2.9l0,0c0-1.1,0.7-1.7,1.5-1.2l12.3,7.1
				c0.9,0.5,1.5,1.8,1.5,2.9l0,0C471.5,268.4,470.8,268.9,470,268.4z"/>
			<linearGradient id="XMLID_51_" gradientUnits="userSpaceOnUse" x1="466.9135" y1="270.6299" x2="457.6556" y2="256.0116">
				<stop  offset="0" style="stop-color:#0E9CFF"/>
				<stop  offset="1" style="stop-color:#FFF6FF"/>
			</linearGradient>
			<path id="XMLID_1696_" class="st27" d="M468.4,268.9l-12.3-7.1c-0.9-0.5-1.5-1.8-1.5-2.9l0,0c0-1.1,0.7-1.7,1.5-1.2l12.3,7.1
				c0.9,0.5,1.5,1.8,1.5,2.9l0,0C470,268.9,469.3,269.4,468.4,268.9z"/>
		</g>
		<g id="XMLID_1692_">
			<path id="XMLID_1694_" class="st24" d="M470,258.7l-12.3-7.1c-0.9-0.5-1.5-1.8-1.5-2.9l0,0c0-1.1,0.7-1.7,1.5-1.2l12.3,7.1
				c0.9,0.5,1.5,1.8,1.5,2.9l0,0C471.5,258.6,470.8,259.2,470,258.7z"/>
			<linearGradient id="XMLID_52_" gradientUnits="userSpaceOnUse" x1="466.9135" y1="260.8984" x2="457.6557" y2="246.28">
				<stop  offset="0" style="stop-color:#0E9CFF"/>
				<stop  offset="1" style="stop-color:#FFF6FF"/>
			</linearGradient>
			<path id="XMLID_1693_" class="st28" d="M468.4,259.2l-12.3-7.1c-0.9-0.5-1.5-1.8-1.5-2.9l0,0c0-1.1,0.7-1.7,1.5-1.2l12.3,7.1
				c0.9,0.5,1.5,1.8,1.5,2.9l0,0C470,259.2,469.3,259.7,468.4,259.2z"/>
		</g>
		<g id="XMLID_1685_">
			<linearGradient id="XMLID_53_" gradientUnits="userSpaceOnUse" x1="466.9135" y1="289.9304" x2="457.6557" y2="275.3121">
				<stop  offset="0" style="stop-color:#0E9CFF"/>
				<stop  offset="1" style="stop-color:#FFF6FF"/>
			</linearGradient>
			<path id="XMLID_1689_" class="st29" d="M468.4,288.2l-12.3-7.1c-0.9-0.5-1.5-1.8-1.5-2.9l0,0c0-1.1,0.7-1.7,1.5-1.2l12.3,7.1
				c0.9,0.5,1.5,1.8,1.5,2.9l0,0C470,288.2,469.3,288.7,468.4,288.2z"/>
			<linearGradient id="XMLID_54_" gradientUnits="userSpaceOnUse" x1="466.9135" y1="280.1988" x2="457.6557" y2="265.5805">
				<stop  offset="0" style="stop-color:#0E9CFF"/>
				<stop  offset="1" style="stop-color:#FFF6FF"/>
			</linearGradient>
			<path id="XMLID_1688_" class="st30" d="M468.4,278.5l-12.3-7.1c-0.9-0.5-1.5-1.8-1.5-2.9l0,0c0-1.1,0.7-1.7,1.5-1.2l12.3,7.1
				c0.9,0.5,1.5,1.8,1.5,2.9l0,0C470,278.5,469.3,279,468.4,278.5z"/>
			<linearGradient id="XMLID_57_" gradientUnits="userSpaceOnUse" x1="466.9135" y1="270.6299" x2="457.6557" y2="256.0116">
				<stop  offset="0" style="stop-color:#0E9CFF"/>
				<stop  offset="1" style="stop-color:#FFF6FF"/>
			</linearGradient>
			<path id="XMLID_1687_" class="st31" d="M468.4,268.9l-12.3-7.1c-0.9-0.5-1.5-1.8-1.5-2.9l0,0c0-1.1,0.7-1.7,1.5-1.2l12.3,7.1
				c0.9,0.5,1.5,1.8,1.5,2.9l0,0C470,268.9,469.3,269.4,468.4,268.9z"/>
			<linearGradient id="XMLID_58_" gradientUnits="userSpaceOnUse" x1="466.9135" y1="260.8983" x2="457.6557" y2="246.28">
				<stop  offset="0" style="stop-color:#0E9CFF"/>
				<stop  offset="1" style="stop-color:#FFF6FF"/>
			</linearGradient>
			<path id="XMLID_1686_" class="st32" d="M468.4,259.2l-12.3-7.1c-0.9-0.5-1.5-1.8-1.5-2.9l0,0c0-1.1,0.7-1.7,1.5-1.2l12.3,7.1
				c0.9,0.5,1.5,1.8,1.5,2.9l0,0C470,259.2,469.3,259.7,468.4,259.2z"/>
		</g>
	</g>
</g>
<g id="_x31_4">
	<g id="XMLID_1657_">
		<linearGradient id="XMLID_59_" gradientUnits="userSpaceOnUse" x1="508.3217" y1="313.1782" x2="504.5627" y2="313.1782">
			<stop  offset="0" style="stop-color:#867CE2"/>
			<stop  offset="1" style="stop-color:#CCB0FF"/>
		</linearGradient>
		<path id="XMLID_1659_" class="st33" d="M520,310.8l0-2.4l-27.2-0.5l0,2.1c-0.1,0.3,0,0.6,0.4,0.8l12.3,7.3
			c0.6,0.4,1.8,0.3,2.5-0.1l11.3-6.4C519.8,311.5,520,311.1,520,310.8z"/>
		<linearGradient id="XMLID_60_" gradientUnits="userSpaceOnUse" x1="573.5462" y1="356.8392" x2="496.6434" y2="300.9765">
			<stop  offset="0" style="stop-color:#6318FF"/>
			<stop  offset="1" style="stop-color:#FFFFFF"/>
		</linearGradient>
		<path id="XMLID_1658_" class="st34" d="M505.5,315.7l-12.3-7.3c-0.6-0.4-0.6-1,0.2-1.4l11.3-6.4c0.7-0.4,1.9-0.5,2.5-0.1l12.3,7.3
			c0.6,0.4,0.6,1-0.2,1.4l-11.3,6.4C507.3,316,506.2,316,505.5,315.7z"/>
	</g>
	<linearGradient id="XMLID_61_" gradientUnits="userSpaceOnUse" x1="549.4499" y1="339.3355" x2="500.1447" y2="303.5199">
		<stop  offset="0" style="stop-color:#867CE2"/>
		<stop  offset="1" style="stop-color:#CCB0FF"/>
	</linearGradient>
	<path id="XMLID_1656_" class="st35" d="M505.9,312.9l-7.9-4.7c-0.4-0.2-0.4-0.7,0.1-0.9l7.3-4.1c0.5-0.3,1.2-0.3,1.6,0l7.9,4.7
		c0.4,0.2,0.4,0.7-0.1,0.9l-7.3,4.1C507,313.2,506.3,313.2,505.9,312.9z"/>
	<linearGradient id="XMLID_62_" gradientUnits="userSpaceOnUse" x1="507.3399" y1="306.3531" x2="504.8096" y2="306.3531">
		<stop  offset="0" style="stop-color:#7463E2"/>
		<stop  offset="1" style="stop-color:#A98DFF"/>
	</linearGradient>
	<path id="XMLID_1655_" class="st36" d="M498,308.3l1.7,1l5.7-3.2c0.5-0.3,1.2-0.3,1.6,0l6.2,3.7l1.6-0.9c0.5-0.3,0.5-0.7,0.1-0.9
		l-7.9-4.7c-0.4-0.2-1.1-0.2-1.6,0l-7.3,4.1C497.6,307.6,497.5,308,498,308.3z"/>
	<g id="XMLID_1651_">
		<linearGradient id="XMLID_63_" gradientUnits="userSpaceOnUse" x1="510.0401" y1="297.826" x2="500.5291" y2="297.826">
			<stop  offset="0" style="stop-color:#6318FF"/>
			<stop  offset="1" style="stop-color:#FFF6E2"/>
		</linearGradient>
		<path id="XMLID_1654_" class="st37" d="M506.4,309.8L506.4,309.8c-1.7,0-3.1-1.4-3.1-3.1v-17.8c0-1.7,1.4-3.1,3.1-3.1l0,0
			c1.7,0,3.1,1.4,3.1,3.1v17.8C509.5,308.4,508.1,309.8,506.4,309.8z"/>
		<radialGradient id="XMLID_64_" cx="495.6196" cy="280.8993" r="28.0232" gradientUnits="userSpaceOnUse">
			<stop  offset="0" style="stop-color:#00FFE2"/>
			<stop  offset="1" style="stop-color:#3124FF"/>
		</radialGradient>
		<circle id="XMLID_1653_" class="st38" cx="506.4" cy="282.8" r="15"/>
		<radialGradient id="XMLID_65_" cx="501.4827" cy="265.334" r="19.4423" gradientUnits="userSpaceOnUse">
			<stop  offset="0" style="stop-color:#00FFE2"/>
			<stop  offset="1" style="stop-color:#3124FF"/>
		</radialGradient>
		<path id="XMLID_1652_" class="st39" d="M506.4,259.3c-5.8,0-10.5,4.7-10.5,10.5c0,2.2,0.7,4.2,1.8,5.9l0,0c0,0.1,0.1,0.1,0.1,0.2
			c0.2,0.3,0.5,0.6,0.7,0.9c1.2,1.1,3.2,3.1,7.9,3.1c5,0,6.6-1.8,7.8-3c0.3-0.4,0.7-0.8,0.9-1.2c0,0,0,0,0-0.1h0
			c1.1-1.7,1.8-3.7,1.8-5.9C516.9,264,512.2,259.3,506.4,259.3z"/>
	</g>
</g>
<g id="_x31_3">
	<polygon id="XMLID_2_" class="st40" points="497.7,331.3 547,302.6 595.3,330.3 562.3,349.6 574.7,356.5 558.1,366.3 	"/>
	<g id="XMLID_9_">
		<linearGradient id="XMLID_66_" gradientUnits="userSpaceOnUse" x1="547.2766" y1="346.5588" x2="545.2751" y2="346.5588">
			<stop  offset="0" style="stop-color:#867CE2"/>
			<stop  offset="1" style="stop-color:#B49DFF"/>
		</linearGradient>
		<path id="XMLID_11_" class="st41" d="M553.5,350.9l0-12.5l-14.5-0.3l0,12.3c-0.1,0.2,0,0.3,0.2,0.4l6.6,3.9c0.3,0.2,0.9,0.2,1.3,0
			l6-3.4C553.4,351.2,553.5,351.1,553.5,350.9z"/>
		<linearGradient id="XMLID_67_" gradientUnits="userSpaceOnUse" x1="590.2924" y1="370.2209" x2="542.1382" y2="335.2414">
			<stop  offset="0" style="stop-color:#6318FF"/>
			<stop  offset="1" style="stop-color:#FFFFFF"/>
		</linearGradient>
		<path id="XMLID_10_" class="st42" d="M545.8,342.3l-6.6-3.9c-0.3-0.2-0.3-0.5,0.1-0.8l6-3.4c0.4-0.2,1-0.2,1.3,0l6.6,3.9
			c0.3,0.2,0.3,0.5-0.1,0.8l-6,3.4C546.7,342.5,546.1,342.5,545.8,342.3z"/>
	</g>
	<g id="XMLID_3_">
		<linearGradient id="XMLID_68_" gradientUnits="userSpaceOnUse" x1="558.5292" y1="346.7955" x2="556.5277" y2="346.7955">
			<stop  offset="0" style="stop-color:#867CE2"/>
			<stop  offset="1" style="stop-color:#B49DFF"/>
		</linearGradient>
		<path id="XMLID_5_" class="st43" d="M564.7,357.5l0-25.1l-14.5-0.3l0,25c-0.1,0.2,0,0.3,0.2,0.4l6.6,3.9c0.3,0.2,0.9,0.2,1.3,0
			l6-3.4C564.7,357.8,564.8,357.6,564.7,357.5z"/>
		<linearGradient id="XMLID_69_" gradientUnits="userSpaceOnUse" x1="601.5449" y1="364.1305" x2="553.3909" y2="329.1511">
			<stop  offset="0" style="stop-color:#6318FF"/>
			<stop  offset="1" style="stop-color:#FFFFFF"/>
		</linearGradient>
		<path id="XMLID_4_" class="st44" d="M557.1,336.2l-6.6-3.9c-0.3-0.2-0.3-0.5,0.1-0.8l6-3.4c0.4-0.2,1-0.2,1.3,0l6.6,3.9
			c0.3,0.2,0.3,0.5-0.1,0.8l-6,3.4C558,336.4,557.4,336.4,557.1,336.2z"/>
	</g>
</g>
<g id="_x31_2">
	<linearGradient id="XMLID_70_" gradientUnits="userSpaceOnUse" x1="517.9503" y1="232.6265" x2="515.9488" y2="232.6265">
		<stop  offset="0" style="stop-color:#867CE2"/>
		<stop  offset="1" style="stop-color:#B49DFF"/>
	</linearGradient>
	<path id="XMLID_15_" class="st45" d="M524.2,243.3l0-25.1l-14.5-0.3l0,25c-0.1,0.2,0,0.3,0.2,0.4l6.6,3.9c0.3,0.2,0.9,0.2,1.3,0
		l6-3.4C524.1,243.6,524.2,243.5,524.2,243.3z"/>
	<linearGradient id="XMLID_71_" gradientUnits="userSpaceOnUse" x1="560.9661" y1="249.9616" x2="512.8118" y2="214.9821">
		<stop  offset="0" style="stop-color:#6318FF"/>
		<stop  offset="1" style="stop-color:#FFFFFF"/>
	</linearGradient>
	<path id="XMLID_13_" class="st46" d="M516.5,222l-6.6-3.9c-0.3-0.2-0.3-0.5,0.1-0.8l6-3.4c0.4-0.2,1-0.2,1.3,0l6.6,3.9
		c0.3,0.2,0.3,0.5-0.1,0.8l-6,3.4C517.4,222.2,516.8,222.2,516.5,222z"/>
</g>
<g id="_x31_7_1_">
	<g id="XMLID_55_">
		<linearGradient id="XMLID_72_" gradientUnits="userSpaceOnUse" x1="477.7244" y1="387.8189" x2="463.1911" y2="387.8189">
			<stop  offset="0" style="stop-color:#BA83FF"/>
			<stop  offset="1" style="stop-color:#D8ABFF"/>
		</linearGradient>
		<path id="XMLID_1808_" class="st47" d="M501.8,388.1l0-7.4l-4.3,0l-22.4-10c-3.3-1.9-9.2-1.7-13.1,0.5l-20.7,8.9
			c-0.2,0.1-0.3,0.2-0.5,0.3l-2.7,0v7h0c0,1.2,0.8,2.3,2.3,3.2l24.4,14.2c3.3,1.9,9.2,1.7,13.1-0.5l20.7-11.9
			C500.7,391.2,501.8,389.6,501.8,388.1L501.8,388.1z"/>
		<linearGradient id="XMLID_73_" gradientUnits="userSpaceOnUse" x1="612.9399" y1="464.1389" x2="458.5776" y2="374.1254">
			<stop  offset="0" style="stop-color:#9C74FF"/>
			<stop  offset="1" style="stop-color:#FFF6FF"/>
		</linearGradient>
		<path id="XMLID_56_" class="st48" d="M464.9,397.8l-24.4-14.2c-3.3-1.9-2.9-5.3,1-7.5l20.7-11.9c3.9-2.2,9.7-2.5,13.1-0.5
			l24.4,14.2c3.3,1.9,2.9,5.3-1,7.5l-20.7,11.9C474.1,399.5,468.2,399.8,464.9,397.8z"/>
	</g>
</g>
<g id="XMLID_22_">
	<g id="XMLID_30_">
		<linearGradient id="XMLID_74_" gradientUnits="userSpaceOnUse" x1="472.3444" y1="384.6211" x2="467.641" y2="384.6211">
			<stop  offset="0" style="stop-color:#867CE2"/>
			<stop  offset="1" style="stop-color:#CCB0FF"/>
		</linearGradient>
		<path id="XMLID_32_" class="st49" d="M487,381.7l0-2.9l-34-0.7l0,2.7c-0.1,0.4,0,0.8,0.5,1l15.4,9.1c0.8,0.5,2.2,0.4,3.1-0.1
			l14.2-8C486.7,382.5,487,382.1,487,381.7z"/>
		<linearGradient id="XMLID_75_" gradientUnits="userSpaceOnUse" x1="553.9556" y1="439.2514" x2="457.7321" y2="369.354">
			<stop  offset="0" style="stop-color:#6318FF"/>
			<stop  offset="1" style="stop-color:#FFFFFF"/>
		</linearGradient>
		<path id="XMLID_31_" class="st50" d="M468.9,387.7l-15.4-9.1c-0.8-0.5-0.7-1.3,0.2-1.8l14.2-8c0.9-0.5,2.3-0.6,3.1-0.1l15.4,9.1
			c0.8,0.5,0.7,1.3-0.2,1.8l-14.2,8C471.1,388.2,469.7,388.2,468.9,387.7z"/>
	</g>
	<linearGradient id="XMLID_76_" gradientUnits="userSpaceOnUse" x1="523.8054" y1="417.35" x2="462.1131" y2="372.5363">
		<stop  offset="0" style="stop-color:#867CE2"/>
		<stop  offset="1" style="stop-color:#CCB0FF"/>
	</linearGradient>
	<path id="XMLID_29_" class="st51" d="M469.3,384.3l-9.9-5.8c-0.5-0.3-0.4-0.8,0.2-1.2l9.1-5.1c0.6-0.3,1.5-0.4,2-0.1l9.9,5.8
		c0.5,0.3,0.4,0.8-0.2,1.2l-9.1,5.1C470.7,384.6,469.8,384.6,469.3,384.3z"/>
	<linearGradient id="XMLID_77_" gradientUnits="userSpaceOnUse" x1="471.1159" y1="376.0814" x2="467.9499" y2="376.0814">
		<stop  offset="0" style="stop-color:#7463E2"/>
		<stop  offset="1" style="stop-color:#A98DFF"/>
	</linearGradient>
	<path id="XMLID_27_" class="st52" d="M459.4,378.5l2.1,1.3l7.1-4c0.6-0.3,1.5-0.4,2-0.1l7.8,4.6l2-1.1c0.6-0.3,0.7-0.9,0.2-1.2
		l-9.9-5.8c-0.5-0.3-1.4-0.3-2,0.1l-9.1,5.1C458.9,377.6,458.9,378.2,459.4,378.5z"/>
	<g id="XMLID_23_">
		<linearGradient id="XMLID_78_" gradientUnits="userSpaceOnUse" x1="474.4946" y1="365.4119" x2="462.594" y2="365.4119">
			<stop  offset="0" style="stop-color:#6318FF"/>
			<stop  offset="1" style="stop-color:#FFF6E2"/>
		</linearGradient>
		<path id="XMLID_26_" class="st53" d="M470.7,380.4h-1.6c-1.7,0-3.1-1.4-3.1-3.1v-23.9c0-1.7,1.4-3.1,3.1-3.1h1.6
			c1.7,0,3.1,1.4,3.1,3.1v23.9C473.8,379,472.4,380.4,470.7,380.4z"/>
		<radialGradient id="XMLID_79_" cx="456.451" cy="344.2326" r="35.0636" gradientUnits="userSpaceOnUse">
			<stop  offset="0" style="stop-color:#00FFE2"/>
			<stop  offset="1" style="stop-color:#3124FF"/>
		</radialGradient>
		<circle id="XMLID_25_" class="st54" cx="470" cy="346.6" r="18.8"/>
		<radialGradient id="XMLID_80_" cx="463.7872" cy="324.7568" r="24.327" gradientUnits="userSpaceOnUse">
			<stop  offset="0" style="stop-color:#00FFE2"/>
			<stop  offset="1" style="stop-color:#3124FF"/>
		</radialGradient>
		<path id="XMLID_24_" class="st55" d="M469.9,317.2c-7.3,0-13.2,5.9-13.2,13.2c0,2.7,0.8,5.2,2.2,7.3l0,0c0,0.1,0.2,0.2,0.2,0.3
			c0.3,0.4,0.6,0.8,0.9,1.1c1.5,1.4,4,3.9,9.8,3.9c6.2,0,8.3-2.3,9.7-3.7c0.4-0.5,0.8-0.9,1.2-1.5c0,0,0-0.1,0-0.1h0.1
			c1.4-2.1,2.2-4.6,2.2-7.3C483.1,323.1,477.2,317.2,469.9,317.2z"/>
	</g>
</g>
<g id="_x31_0">
	<g id="XMLID_1616_">
		<path id="XMLID_1676_" class="st18" d="M592.2,363c-0.8-0.5-2.2-0.4-3.1,0.1l-10.7,6.2c-0.9,0.5-1,1.3-0.2,1.8l12.4,7.2
			c0.8,0.5,2.2,0.4,3.1-0.1l10.7-6.2c0.9-0.5,1-1.3,0.2-1.8L592.2,363z"/>
		<linearGradient id="XMLID_81_" gradientUnits="userSpaceOnUse" x1="578.3113" y1="361.5217" x2="602.7357" y2="361.5217">
			<stop  offset="0" style="stop-color:#0047FF"/>
			<stop  offset="1" style="stop-color:#00FFE5"/>
		</linearGradient>
		<path id="XMLID_1675_" class="st56" d="M589.1,363.1c0.9-0.5,2.3-0.6,3.1-0.1l10.1,5.9l6.1-3.9l-17.7-10.8l-16.2,9.4l6.5,4.2
			L589.1,363.1z"/>
		<linearGradient id="XMLID_82_" gradientUnits="userSpaceOnUse" x1="611.7974" y1="374.4729" x2="574.2877" y2="374.4729">
			<stop  offset="0" style="stop-color:#0047FF"/>
			<stop  offset="1" style="stop-color:#00FFE5"/>
		</linearGradient>
		<path id="XMLID_1674_" class="st57" d="M612.1,373.7L612.1,373.7l0-9.1l-15.3,7l-7.7,1.5l-18-9.3l0,8.7c-0.1,0.5,0.2,1,0.8,1.4
			l18.5,10.7c1.2,0.7,3.2,0.6,4.6-0.2l16-9.2C611.8,374.8,612.1,374.2,612.1,373.7z"/>
		<path id="XMLID_1671_" class="st21" d="M611.3,363.5l-18.5-10.7c-1.2-0.7-3.2-0.6-4.6,0.2l-16,9.2c-1.4,0.8-1.5,2-0.3,2.7
			l18.5,10.7c1.2,0.7,3.2,0.6,4.6-0.2l16-9.2C612.4,365.3,612.5,364.1,611.3,363.5z M604.6,365.5l-10.7,6.2
			c-0.9,0.5-2.3,0.6-3.1,0.1l-12.4-7.2c-0.8-0.5-0.7-1.3,0.2-1.8l10.7-6.2c0.9-0.5,2.3-0.6,3.1-0.1l12.4,7.2
			C605.6,364.1,605.5,364.9,604.6,365.5z"/>
		<g id="XMLID_1617_">
			<linearGradient id="XMLID_83_" gradientUnits="userSpaceOnUse" x1="612.112" y1="366.3405" x2="612.112" y2="366.3405">
				<stop  offset="0" style="stop-color:#0047FF"/>
				<stop  offset="1" style="stop-color:#00FFE5"/>
			</linearGradient>
			<polygon id="XMLID_1670_" class="st58" points="612.1,366.3 612.1,366.3 612.1,366.3 			"/>
			<linearGradient id="XMLID_84_" gradientUnits="userSpaceOnUse" x1="611.7983" y1="375.6925" x2="574.2884" y2="375.6925">
				<stop  offset="0" style="stop-color:#0047FF"/>
				<stop  offset="1" style="stop-color:#00FFE5"/>
			</linearGradient>
			<path id="XMLID_1618_" class="st59" d="M611,367.3l-16,9.2c-1.4,0.8-3.4,0.9-4.6,0.2L571.9,366c-0.4-0.3-0.7-0.6-0.8-0.9l0,8.7
				c-0.1,0.5,0.2,1,0.8,1.4l18.5,10.7c1.2,0.7,3.2,0.6,4.6-0.2l16-9.2c0.8-0.4,1.2-1,1.1-1.6l0-9C612.1,366.4,611.7,366.9,611,367.3
				z"/>
		</g>
	</g>
	<g id="XMLID_512_">
		<linearGradient id="XMLID_85_" gradientUnits="userSpaceOnUse" x1="594.7748" y1="358.823" x2="585.7531" y2="358.823">
			<stop  offset="0" style="stop-color:#6318FF"/>
			<stop  offset="1" style="stop-color:#FFF6E2"/>
		</linearGradient>
		<path id="XMLID_515_" class="st60" d="M591.1,369.4L591.1,369.4c-1.6,0-2.9-1.3-2.9-2.9v-15.2c0-1.6,1.3-2.9,2.9-2.9l0,0
			c1.6,0,2.9,1.3,2.9,2.9v15.2C594.1,368,592.8,369.4,591.1,369.4z"/>
		<g id="XMLID_513_">
			<radialGradient id="XMLID_86_" cx="584.5326" cy="326.1947" r="38.2168" gradientUnits="userSpaceOnUse">
				<stop  offset="0" style="stop-color:#00FFE2"/>
				<stop  offset="1" style="stop-color:#3124FF"/>
			</radialGradient>
			<path id="XMLID_514_" class="st61" d="M599.4,352.3L599.4,352.3l-4.9-26.3h0c-0.3-1.7-1.7-3-3.5-3c-1.8,0-3.3,1.3-3.5,3.1h-0.1
				l-4.5,26.3h0c-0.2,0.7-0.3,1.4-0.3,2.1c0,4.7,3.8,8.6,8.6,8.6c4.7,0,8.6-3.8,8.6-8.6C599.7,353.7,599.6,353,599.4,352.3z"/>
		</g>
	</g>
</g>
<g id="_x39_">
	<g id="XMLID_1801_">
		<linearGradient id="XMLID_87_" gradientUnits="userSpaceOnUse" x1="583.4298" y1="190.2426" x2="571.8164" y2="190.2426">
			<stop  offset="0" style="stop-color:#867CE2"/>
			<stop  offset="1" style="stop-color:#BD9DFF"/>
		</linearGradient>
		<path id="XMLID_1803_" class="st62" d="M619.5,256.9l0-155.1l-83.9-1.7l0,154.4c-0.3,0.9,0.1,1.9,1.2,2.5l38.1,22.5
			c2,1.2,5.4,1.1,7.7-0.2l35-19.7C619,258.8,619.6,257.8,619.5,256.9z"/>
		<linearGradient id="XMLID_88_" gradientUnits="userSpaceOnUse" x1="833.0206" y1="286.1376" x2="553.6152" y2="83.1757">
			<stop  offset="0" style="stop-color:#6318FF"/>
			<stop  offset="1" style="stop-color:#FFFFFF"/>
		</linearGradient>
		<path id="XMLID_1802_" class="st63" d="M574.9,124l-38.1-22.5c-2-1.2-1.7-3.2,0.6-4.5l35-19.7c2.3-1.3,5.8-1.4,7.7-0.2l38.1,22.5
			c2,1.2,1.7,3.2-0.6,4.5l-35,19.7C580.3,125.1,576.8,125.2,574.9,124z"/>
	</g>
	<g id="XMLID_1779_">
		<linearGradient id="XMLID_89_" gradientUnits="userSpaceOnUse" x1="612.5798" y1="90.7418" x2="538.5784" y2="90.7418">
			<stop  offset="0" style="stop-color:#0047FF"/>
			<stop  offset="1" style="stop-color:#00FFE5"/>
		</linearGradient>
		<path id="XMLID_1781_" class="st64" d="M614.5,90.6l0-19l-73.9-1.5l0,18.4c-0.3,0.8,0.1,1.6,1.1,2.2l33.5,19.8
			c1.7,1,4.8,0.9,6.8-0.2L612.8,93C614,92.4,614.6,91.5,614.5,90.6z"/>
		<linearGradient id="XMLID_90_" gradientUnits="userSpaceOnUse" x1="802.4614" y1="233.9322" x2="556.4708" y2="55.243">
			<stop  offset="0" style="stop-color:#6318FF"/>
			<stop  offset="1" style="stop-color:#FFFFFF"/>
		</linearGradient>
		<path id="XMLID_1780_" class="st65" d="M575.2,91.2l-33.5-19.8c-1.7-1-1.5-2.8,0.5-3.9L573,50.1c2-1.1,5.1-1.2,6.8-0.2l33.5,19.8
			c1.7,1,1.5,2.8-0.5,3.9L582,91C580,92.1,576.9,92.2,575.2,91.2z"/>
	</g>
	<g id="XMLID_1812_">
		<linearGradient id="XMLID_91_" gradientUnits="userSpaceOnUse" x1="477.1924" y1="78.7746" x2="647.2132" y2="314.4171">
			<stop  offset="5.102040e-03" style="stop-color:#60D1FF"/>
			<stop  offset="1" style="stop-color:#0000AB"/>
		</linearGradient>
		<path id="XMLID_1824_" class="st66" d="M559.4,247.2l-9.7-5.6c-1.5-0.9-2.7-3.2-2.7-5.2l0-109.3c0-2,1.2-2.9,2.7-2.1l9.7,5.6
			c1.5,0.9,2.7,3.2,2.7,5.2l0,109.3C562.2,247.1,561,248,559.4,247.2z"/>
		<linearGradient id="XMLID_92_" gradientUnits="userSpaceOnUse" x1="521.995" y1="144.8079" x2="692.0158" y2="380.4504">
			<stop  offset="5.102040e-03" style="stop-color:#83FFFF"/>
			<stop  offset="1" style="stop-color:#2E00F4"/>
		</linearGradient>
		<path id="XMLID_1813_" class="st67" d="M557.5,248.4l-9.7-5.6c-1.5-0.9-2.7-3.2-2.7-5.2l0-109.3c0-2,1.2-2.9,2.7-2.1l9.7,5.6
			c1.5,0.9,2.7,3.2,2.7,5.2l0,109.3C560.2,248.3,559,249.3,557.5,248.4z"/>
	</g>
	<g id="XMLID_17_">
		<linearGradient id="XMLID_93_" gradientUnits="userSpaceOnUse" x1="597.9706" y1="62.2476" x2="573.5231" y2="62.2476">
			<stop  offset="0" style="stop-color:#0047FF"/>
			<stop  offset="1" style="stop-color:#00FFE5"/>
		</linearGradient>
		<path id="XMLID_20_" class="st68" d="M598,69.6l0-21l-24.4-0.5l0,20.8c-0.1,0.3,0,0.5,0.4,0.7l11.1,6.6c0.6,0.3,1.6,0.3,2.3-0.1
			l10.2-5.7C597.8,70.2,598,69.9,598,69.6z"/>
		<linearGradient id="XMLID_94_" gradientUnits="userSpaceOnUse" x1="660.0687" y1="102.1806" x2="578.8018" y2="43.1478">
			<stop  offset="0" style="stop-color:#6318FF"/>
			<stop  offset="1" style="stop-color:#FFFFFF"/>
		</linearGradient>
		<path id="XMLID_19_" class="st69" d="M585,55l-11.1-6.6c-0.6-0.3-0.5-0.9,0.2-1.3l10.2-5.7c0.7-0.4,1.7-0.4,2.3-0.1l11.1,6.6
			c0.6,0.3,0.5,0.9-0.2,1.3L587.2,55C586.6,55.3,585.6,55.4,585,55z"/>
	</g>
	<linearGradient id="XMLID_95_" gradientUnits="userSpaceOnUse" x1="516.5787" y1="147.704" x2="686.5995" y2="383.3466">
		<stop  offset="5.102040e-03" style="stop-color:#83FFFF"/>
		<stop  offset="1" style="stop-color:#2E00F4"/>
	</linearGradient>
	<path id="XMLID_326_" class="st70" d="M552.1,251.3l-9.7-5.6c-1.5-0.9-2.7-3.2-2.7-5.2l0-109.3c0-2,1.2-2.9,2.7-2.1l9.7,5.6
		c1.5,0.9,2.7,3.2,2.7,5.2l0,109.3C554.8,251.2,553.6,252.2,552.1,251.3z"/>
</g>
<g id="_x38_">
	<linearGradient id="XMLID_96_" gradientUnits="userSpaceOnUse" x1="702.7181" y1="255.0965" x2="692.4631" y2="255.0965">
		<stop  offset="0" style="stop-color:#867CE2"/>
		<stop  offset="1" style="stop-color:#CCB0FF"/>
	</linearGradient>
	<path id="XMLID_1753_" class="st71" d="M730.7,296.1L730.7,296.1V195.9l-69.5-1.2v99.5c-0.2,0.9,0.3,1.7,1.3,2.3l31.3,18.1
		c2,1.2,5.5,1,7.8-0.3l27.1-15.6C730.1,298,730.8,297,730.7,296.1z"/>
	<path id="XMLID_1761_" class="st18" d="M697,178c-1.3-0.8-3.7-0.7-5.3,0.2l-18.2,10.5c-1.6,0.9-1.7,2.3-0.4,3l21.1,12.2
		c1.3,0.8,3.7,0.7,5.3-0.2l18.2-10.5c1.6-0.9,1.7-2.3,0.4-3L697,178z"/>
	<linearGradient id="XMLID_97_" gradientUnits="userSpaceOnUse" x1="673.5182" y1="175.5805" x2="714.8583" y2="175.5805">
		<stop  offset="0" style="stop-color:#0047FF"/>
		<stop  offset="1" style="stop-color:#00FFE5"/>
	</linearGradient>
	<path id="XMLID_1759_" class="st72" d="M691.8,178.3c1.6-0.9,3.9-1,5.3-0.2l17.2,9.9l10.4-6.6l-29.9-18.3L667.3,179l11,7
		L691.8,178.3z"/>
	<linearGradient id="XMLID_98_" gradientUnits="userSpaceOnUse" x1="730.1959" y1="197.5013" x2="666.7079" y2="197.5013">
		<stop  offset="0" style="stop-color:#0047FF"/>
		<stop  offset="1" style="stop-color:#00FFE5"/>
	</linearGradient>
	<path id="XMLID_1751_" class="st73" d="M730.7,196.1L730.7,196.1l0-15.4l-26,11.9l-13,2.6l-30.5-15.7l0,14.7
		c-0.2,0.9,0.3,1.7,1.3,2.3l31.3,18.1c2,1.2,5.5,1,7.8-0.3l27.1-15.6C730.1,198,730.8,197.1,730.7,196.1z"/>
	<path id="XMLID_1758_" class="st21" d="M729.4,178.9L698,160.7c-2-1.2-5.5-1-7.8,0.3l-27.1,15.6c-2.3,1.3-2.6,3.4-0.6,4.5
		l31.3,18.1c2,1.2,5.5,1,7.8-0.3l27.1-15.6C731.1,182,731.4,180,729.4,178.9z M718,182.3l-18.2,10.5c-1.6,0.9-3.9,1-5.3,0.2
		l-21.1-12.2c-1.3-0.8-1.2-2.1,0.4-3l18.2-10.5c1.6-0.9,3.9-1,5.3-0.2l21.1,12.2C719.8,180,719.6,181.4,718,182.3z"/>
	<g id="XMLID_1772_">
		<linearGradient id="XMLID_99_" gradientUnits="userSpaceOnUse" x1="730.7284" y1="183.7367" x2="730.7284" y2="183.7367">
			<stop  offset="0" style="stop-color:#0047FF"/>
			<stop  offset="1" style="stop-color:#00FFE5"/>
		</linearGradient>
		<polygon id="XMLID_1773_" class="st74" points="730.7,183.7 730.7,183.7 730.7,183.7 		"/>
		<linearGradient id="XMLID_100_" gradientUnits="userSpaceOnUse" x1="730.1973" y1="199.5657" x2="666.7092" y2="199.5657">
			<stop  offset="0" style="stop-color:#0047FF"/>
			<stop  offset="1" style="stop-color:#00FFE5"/>
		</linearGradient>
		<path id="XMLID_1774_" class="st75" d="M728.8,185.4L701.7,201c-2.3,1.3-5.8,1.5-7.8,0.3l-31.3-18.1c-0.8-0.4-1.2-1-1.3-1.6
			l0,14.7c-0.2,0.9,0.3,1.7,1.3,2.3l31.3,18.1c2,1.2,5.5,1,7.8-0.3l27.1-15.6c1.3-0.8,2-1.7,1.9-2.7l0-15.3
			C730.7,183.8,730.1,184.7,728.8,185.4z"/>
	</g>
	<g id="XMLID_1778_">
		<g id="XMLID_181_">
			<path id="XMLID_223_" class="st24" d="M686.8,291.2l-16.2-9.4c-1.1-0.6-2-2.4-2-3.9l0,0c0-1.5,0.9-2.2,2-1.5l16.2,9.3
				c1.1,0.6,2,2.4,2,3.9l0,0C688.8,291.1,687.9,291.8,686.8,291.2z"/>
			<linearGradient id="XMLID_101_" gradientUnits="userSpaceOnUse" x1="682.7583" y1="294.1047" x2="670.621" y2="274.9395">
				<stop  offset="0" style="stop-color:#0E9CFF"/>
				<stop  offset="1" style="stop-color:#FFF6FF"/>
			</linearGradient>
			<path id="XMLID_204_" class="st76" d="M684.8,291.9l-16.2-9.4c-1.1-0.6-2-2.4-2-3.9l0,0c0-1.5,0.9-2.2,2-1.5l16.2,9.4
				c1.1,0.6,2,2.4,2,3.9l0,0C686.8,291.9,685.9,292.5,684.8,291.9z"/>
		</g>
		<g id="XMLID_243_">
			<path id="XMLID_1752_" class="st24" d="M686.8,278.4l-16.2-9.4c-1.1-0.6-2-2.4-2-3.9l0,0c0-1.5,0.9-2.2,2-1.5l16.2,9.4
				c1.1,0.6,2,2.4,2,3.9l0,0C688.8,278.4,687.9,279.1,686.8,278.4z"/>
			<linearGradient id="XMLID_102_" gradientUnits="userSpaceOnUse" x1="682.7584" y1="281.3462" x2="670.621" y2="262.181">
				<stop  offset="0" style="stop-color:#0E9CFF"/>
				<stop  offset="1" style="stop-color:#FFF6FF"/>
			</linearGradient>
			<path id="XMLID_1750_" class="st77" d="M684.8,279.1l-16.2-9.3c-1.1-0.6-2-2.4-2-3.9l0,0c0-1.5,0.9-2.2,2-1.5l16.2,9.4
				c1.1,0.6,2,2.4,2,3.9l0,0C686.8,279.1,685.9,279.8,684.8,279.1z"/>
		</g>
		<g id="XMLID_1762_">
			<path id="XMLID_1764_" class="st24" d="M686.8,265.9l-16.2-9.4c-1.1-0.6-2-2.4-2-3.9l0,0c0-1.5,0.9-2.2,2-1.5l16.2,9.3
				c1.1,0.6,2,2.4,2,3.9l0,0C688.8,265.8,687.9,266.5,686.8,265.9z"/>
			<linearGradient id="XMLID_103_" gradientUnits="userSpaceOnUse" x1="682.7584" y1="268.801" x2="670.621" y2="249.6358">
				<stop  offset="0" style="stop-color:#0E9CFF"/>
				<stop  offset="1" style="stop-color:#FFF6FF"/>
			</linearGradient>
			<path id="XMLID_1763_" class="st78" d="M684.8,266.6l-16.2-9.3c-1.1-0.6-2-2.4-2-3.9l0,0c0-1.5,0.9-2.2,2-1.5l16.2,9.4
				c1.1,0.6,2,2.4,2,3.9l0,0C686.8,266.5,685.9,267.2,684.8,266.6z"/>
		</g>
		<g id="XMLID_1754_">
			<path id="XMLID_1760_" class="st24" d="M686.8,253.1l-16.2-9.4c-1.1-0.6-2-2.4-2-3.9l0,0c0-1.5,0.9-2.2,2-1.5l16.2,9.3
				c1.1,0.6,2,2.4,2,3.9l0,0C688.8,253.1,687.9,253.8,686.8,253.1z"/>
			<linearGradient id="XMLID_104_" gradientUnits="userSpaceOnUse" x1="682.7584" y1="256.0426" x2="670.621" y2="236.8774">
				<stop  offset="0" style="stop-color:#0E9CFF"/>
				<stop  offset="1" style="stop-color:#FFF6FF"/>
			</linearGradient>
			<path id="XMLID_1755_" class="st79" d="M684.8,253.8l-16.2-9.3c-1.1-0.6-2-2.4-2-3.9l0,0c0-1.5,0.9-2.2,2-1.5l16.2,9.4
				c1.1,0.6,2,2.4,2,3.9l0,0C686.8,253.8,685.9,254.5,684.8,253.8z"/>
		</g>
		<g id="XMLID_1768_">
			<path id="XMLID_1770_" class="st24" d="M686.8,240.6l-16.2-9.3c-1.1-0.6-2-2.4-2-3.9l0,0c0-1.5,0.9-2.2,2-1.5l16.2,9.4
				c1.1,0.6,2,2.4,2,3.9l0,0C688.8,240.5,687.9,241.2,686.8,240.6z"/>
			<linearGradient id="XMLID_105_" gradientUnits="userSpaceOnUse" x1="682.7583" y1="243.4974" x2="670.621" y2="224.3322">
				<stop  offset="0" style="stop-color:#0E9CFF"/>
				<stop  offset="1" style="stop-color:#FFF6FF"/>
			</linearGradient>
			<path id="XMLID_1769_" class="st80" d="M684.8,241.3l-16.2-9.4c-1.1-0.6-2-2.4-2-3.9l0,0c0-1.5,0.9-2.2,2-1.5l16.2,9.3
				c1.1,0.6,2,2.4,2,3.9l0,0C686.8,241.2,685.9,241.9,684.8,241.3z"/>
		</g>
		<g id="XMLID_1765_">
			<path id="XMLID_1767_" class="st24" d="M686.8,227.8l-16.2-9.3c-1.1-0.6-2-2.4-2-3.9l0,0c0-1.5,0.9-2.2,2-1.5l16.2,9.4
				c1.1,0.6,2,2.4,2,3.9l0,0C688.8,227.8,687.9,228.5,686.8,227.8z"/>
			<linearGradient id="XMLID_106_" gradientUnits="userSpaceOnUse" x1="682.7584" y1="230.7389" x2="670.621" y2="211.5738">
				<stop  offset="0" style="stop-color:#0E9CFF"/>
				<stop  offset="1" style="stop-color:#FFF6FF"/>
			</linearGradient>
			<path id="XMLID_1766_" class="st81" d="M684.8,228.5l-16.2-9.4c-1.1-0.6-2-2.4-2-3.9l0,0c0-1.5,0.9-2.2,2-1.5l16.2,9.3
				c1.1,0.6,2,2.4,2,3.9l0,0C686.8,228.5,685.9,229.2,684.8,228.5z"/>
		</g>
		<g id="XMLID_1777_">
			<linearGradient id="XMLID_107_" gradientUnits="userSpaceOnUse" x1="682.7583" y1="294.1047" x2="670.621" y2="274.9395">
				<stop  offset="0" style="stop-color:#0E9CFF"/>
				<stop  offset="1" style="stop-color:#FFF6FF"/>
			</linearGradient>
			<path id="XMLID_1776_" class="st82" d="M684.8,291.9l-16.2-9.4c-1.1-0.6-2-2.4-2-3.9l0,0c0-1.5,0.9-2.2,2-1.5l16.2,9.4
				c1.1,0.6,2,2.4,2,3.9l0,0C686.8,291.9,685.9,292.5,684.8,291.9z"/>
			<linearGradient id="XMLID_108_" gradientUnits="userSpaceOnUse" x1="682.7584" y1="281.3462" x2="670.621" y2="262.1811">
				<stop  offset="0" style="stop-color:#0E9CFF"/>
				<stop  offset="1" style="stop-color:#FFF6FF"/>
			</linearGradient>
			<path id="XMLID_1775_" class="st83" d="M684.8,279.1l-16.2-9.3c-1.1-0.6-2-2.4-2-3.9l0,0c0-1.5,0.9-2.2,2-1.5l16.2,9.4
				c1.1,0.6,2,2.4,2,3.9l0,0C686.8,279.1,685.9,279.8,684.8,279.1z"/>
			<linearGradient id="XMLID_109_" gradientUnits="userSpaceOnUse" x1="682.7584" y1="268.801" x2="670.621" y2="249.6359">
				<stop  offset="0" style="stop-color:#0E9CFF"/>
				<stop  offset="1" style="stop-color:#FFF6FF"/>
			</linearGradient>
			<path id="XMLID_1771_" class="st84" d="M684.8,266.6l-16.2-9.3c-1.1-0.6-2-2.4-2-3.9l0,0c0-1.5,0.9-2.2,2-1.5l16.2,9.4
				c1.1,0.6,2,2.4,2,3.9l0,0C686.8,266.5,685.9,267.2,684.8,266.6z"/>
			<linearGradient id="XMLID_110_" gradientUnits="userSpaceOnUse" x1="682.7584" y1="256.0426" x2="670.621" y2="236.8774">
				<stop  offset="0" style="stop-color:#0E9CFF"/>
				<stop  offset="1" style="stop-color:#FFF6FF"/>
			</linearGradient>
			<path id="XMLID_232_" class="st85" d="M684.8,253.8l-16.2-9.3c-1.1-0.6-2-2.4-2-3.9l0,0c0-1.5,0.9-2.2,2-1.5l16.2,9.4
				c1.1,0.6,2,2.4,2,3.9l0,0C686.8,253.8,685.9,254.5,684.8,253.8z"/>
			<linearGradient id="XMLID_111_" gradientUnits="userSpaceOnUse" x1="682.7583" y1="243.4974" x2="670.621" y2="224.3322">
				<stop  offset="0" style="stop-color:#0E9CFF"/>
				<stop  offset="1" style="stop-color:#FFF6FF"/>
			</linearGradient>
			<path id="XMLID_188_" class="st86" d="M684.8,241.3l-16.2-9.4c-1.1-0.6-2-2.4-2-3.9l0,0c0-1.5,0.9-2.2,2-1.5l16.2,9.3
				c1.1,0.6,2,2.4,2,3.9l0,0C686.8,241.2,685.9,241.9,684.8,241.3z"/>
			<linearGradient id="XMLID_112_" gradientUnits="userSpaceOnUse" x1="682.7584" y1="230.7389" x2="670.621" y2="211.5737">
				<stop  offset="0" style="stop-color:#0E9CFF"/>
				<stop  offset="1" style="stop-color:#FFF6FF"/>
			</linearGradient>
			<path id="XMLID_173_" class="st87" d="M684.8,228.5l-16.2-9.4c-1.1-0.6-2-2.4-2-3.9l0,0c0-1.5,0.9-2.2,2-1.5l16.2,9.3
				c1.1,0.6,2,2.4,2,3.9l0,0C686.8,228.5,685.9,229.2,684.8,228.5z"/>
		</g>
	</g>
</g>
<g id="_x37_">
	<g id="XMLID_1644_">
		<linearGradient id="XMLID_113_" gradientUnits="userSpaceOnUse" x1="729.0631" y1="319.6316" x2="724.5992" y2="319.6316">
			<stop  offset="0" style="stop-color:#867CE2"/>
			<stop  offset="1" style="stop-color:#CCB0FF"/>
		</linearGradient>
		<path id="XMLID_1646_" class="st88" d="M742.9,316.8l0-2.8l-32.3-0.6l0,2.5c-0.1,0.4,0,0.7,0.5,1l14.6,8.7c0.8,0.4,2.1,0.4,3-0.1
			l13.5-7.6C742.7,317.6,743,317.2,742.9,316.8z"/>
		<linearGradient id="XMLID_114_" gradientUnits="userSpaceOnUse" x1="806.5204" y1="371.4813" x2="715.1946" y2="305.1415">
			<stop  offset="0" style="stop-color:#6318FF"/>
			<stop  offset="1" style="stop-color:#FFFFFF"/>
		</linearGradient>
		<path id="XMLID_1645_" class="st89" d="M725.8,322.6l-14.6-8.7c-0.8-0.4-0.7-1.2,0.2-1.7l13.5-7.6c0.9-0.5,2.2-0.5,3-0.1l14.6,8.7
			c0.8,0.4,0.7,1.2-0.2,1.7l-13.5,7.6C727.9,323,726.5,323,725.8,322.6z"/>
	</g>
	<linearGradient id="XMLID_115_" gradientUnits="userSpaceOnUse" x1="777.9047" y1="350.6946" x2="719.3525" y2="308.162">
		<stop  offset="0" style="stop-color:#867CE2"/>
		<stop  offset="1" style="stop-color:#CCB0FF"/>
	</linearGradient>
	<path id="XMLID_1643_" class="st90" d="M726.1,319.3l-9.4-5.6c-0.5-0.3-0.4-0.8,0.1-1.1l8.6-4.9c0.6-0.3,1.4-0.3,1.9-0.1l9.4,5.6
		c0.5,0.3,0.4,0.8-0.1,1.1l-8.6,4.9C727.5,319.6,726.6,319.6,726.1,319.3z"/>
	<linearGradient id="XMLID_116_" gradientUnits="userSpaceOnUse" x1="727.8972" y1="311.5265" x2="724.8923" y2="311.5265">
		<stop  offset="0" style="stop-color:#7463E2"/>
		<stop  offset="1" style="stop-color:#A98DFF"/>
	</linearGradient>
	<path id="XMLID_1642_" class="st91" d="M716.7,313.8l2,1.2l6.8-3.8c0.6-0.3,1.4-0.3,1.9-0.1l7.4,4.4l1.9-1.1
		c0.6-0.3,0.6-0.8,0.1-1.1l-9.4-5.6c-0.5-0.3-1.3-0.3-1.9,0.1l-8.6,4.9C716.3,313,716.3,313.5,716.7,313.8z"/>
	<g id="XMLID_1638_">
		<linearGradient id="XMLID_117_" gradientUnits="userSpaceOnUse" x1="731.1039" y1="301.4001" x2="719.8091" y2="301.4001">
			<stop  offset="0" style="stop-color:#6318FF"/>
			<stop  offset="1" style="stop-color:#FFF6E2"/>
		</linearGradient>
		<path id="XMLID_1641_" class="st92" d="M726.8,315.6L726.8,315.6c-2,0-3.7-1.6-3.7-3.7v-21.2c0-2,1.6-3.7,3.7-3.7l0,0
			c2,0,3.7,1.6,3.7,3.7V312C730.4,314,728.8,315.6,726.8,315.6z"/>
		<radialGradient id="XMLID_118_" cx="713.9787" cy="281.2989" r="33.2788" gradientUnits="userSpaceOnUse">
			<stop  offset="0" style="stop-color:#00FFE2"/>
			<stop  offset="1" style="stop-color:#3124FF"/>
		</radialGradient>
		<circle id="XMLID_1640_" class="st93" cx="726.8" cy="283.6" r="17.8"/>
		<radialGradient id="XMLID_119_" cx="720.9415" cy="262.8144" r="23.0887" gradientUnits="userSpaceOnUse">
			<stop  offset="0" style="stop-color:#00FFE2"/>
			<stop  offset="1" style="stop-color:#3124FF"/>
		</radialGradient>
		<path id="XMLID_1639_" class="st94" d="M726.8,255.6c-6.9,0-12.5,5.6-12.5,12.5c0,2.6,0.8,5,2.1,7l0,0c0,0.1,0.2,0.2,0.2,0.2
			c0.3,0.4,0.6,0.7,0.9,1.1c1.5,1.3,3.8,3.7,9.3,3.7c5.9,0,7.9-2.1,9.2-3.6c0.4-0.4,0.8-0.9,1.1-1.4c0,0,0-0.1,0-0.1h0
			c1.3-2,2.1-4.4,2.1-7C739.3,261.2,733.7,255.6,726.8,255.6z"/>
	</g>
</g>
<g id="_x36_">
	<polygon id="XMLID_6_" class="st95" points="673,328.2 685,335.2 672.4,342.3 684.8,349.2 709,335.2 685.2,321.2 	"/>
	<g id="XMLID_7_">
		<linearGradient id="XMLID_120_" gradientUnits="userSpaceOnUse" x1="697.6425" y1="323.9481" x2="695.641" y2="323.9481">
			<stop  offset="0" style="stop-color:#867CE2"/>
			<stop  offset="1" style="stop-color:#B49DFF"/>
		</linearGradient>
		<path id="XMLID_8_" class="st96" d="M703.9,334.6l0-25.1l-14.5-0.3l0,25c-0.1,0.2,0,0.3,0.2,0.4l6.6,3.9c0.3,0.2,0.9,0.2,1.3,0
			l6-3.4C703.8,335,703.9,334.8,703.9,334.6z"/>
		<linearGradient id="XMLID_121_" gradientUnits="userSpaceOnUse" x1="740.6582" y1="341.2831" x2="692.5041" y2="306.3036">
			<stop  offset="0" style="stop-color:#6318FF"/>
			<stop  offset="1" style="stop-color:#FFFFFF"/>
		</linearGradient>
		<path id="XMLID_12_" class="st97" d="M696.2,313.3l-6.6-3.9c-0.3-0.2-0.3-0.5,0.1-0.8l6-3.4c0.4-0.2,1-0.2,1.3,0l6.6,3.9
			c0.3,0.2,0.3,0.5-0.1,0.8l-6,3.4C697.1,313.5,696.5,313.5,696.2,313.3z"/>
	</g>
</g>
<g id="_x35__1_">
	<g id="XMLID_1791_">
		<linearGradient id="XMLID_122_" gradientUnits="userSpaceOnUse" x1="651.8338" y1="331.8796" x2="647.1953" y2="331.8796">
			<stop  offset="0" style="stop-color:#867CE2"/>
			<stop  offset="1" style="stop-color:#CCB0FF"/>
		</linearGradient>
		<path id="XMLID_1793_" class="st98" d="M666.2,361.4l0-67.9l-33.5-0.7l0,67.6c-0.1,0.4,0,0.7,0.5,1l15.2,9
			c0.8,0.5,2.2,0.4,3.1-0.1l14-7.9C666,362.2,666.3,361.8,666.2,361.4z"/>
		<linearGradient id="XMLID_123_" gradientUnits="userSpaceOnUse" x1="751.5235" y1="367.2301" x2="639.9255" y2="286.1645">
			<stop  offset="0" style="stop-color:#6318FF"/>
			<stop  offset="1" style="stop-color:#FFF6E2"/>
		</linearGradient>
		<path id="XMLID_1792_" class="st99" d="M648.4,302.5l-15.2-9c-0.8-0.5-0.7-1.3,0.2-1.8l14-7.9c0.9-0.5,2.3-0.6,3.1-0.1l15.2,9
			c0.8,0.5,0.7,1.3-0.2,1.8l-14,7.9C650.6,302.9,649.2,302.9,648.4,302.5z"/>
	</g>
	<g id="XMLID_1614_">
		<linearGradient id="XMLID_124_" gradientUnits="userSpaceOnUse" x1="623.0666" y1="291.3047" x2="660.613" y2="343.3427">
			<stop  offset="5.102040e-03" style="stop-color:#60D1FF"/>
			<stop  offset="1" style="stop-color:#0000AB"/>
		</linearGradient>
		<path id="XMLID_1620_" class="st100" d="M642.1,327.6l-3.9-2.3c-0.6-0.3-1.1-1.3-1.1-2.1l0-20c0-0.8,0.5-1.2,1.1-0.8l3.9,2.3
			c0.6,0.3,1.1,1.3,1.1,2.1l0,20C643.2,327.6,642.7,327.9,642.1,327.6z"/>
		<linearGradient id="XMLID_125_" gradientUnits="userSpaceOnUse" x1="632.6071" y1="306.1068" x2="670.1535" y2="358.1448">
			<stop  offset="5.102040e-03" style="stop-color:#83FFFF"/>
			<stop  offset="1" style="stop-color:#2E00F4"/>
		</linearGradient>
		<path id="XMLID_1619_" class="st101" d="M641.3,328.1l-3.9-2.3c-0.6-0.3-1.1-1.3-1.1-2.1l0-20c0-0.8,0.5-1.2,1.1-0.8l3.9,2.3
			c0.6,0.3,1.1,1.3,1.1,2.1l0,20C642.4,328.1,641.9,328.4,641.3,328.1z"/>
	</g>
	<g id="XMLID_1615_">
		<path id="XMLID_1844_" class="st18" d="M650,284.9c-0.6-0.4-1.8-0.3-2.5,0.1l-8.8,5.1c-0.8,0.4-0.8,1.1-0.2,1.5l10.2,5.9
			c0.6,0.4,1.8,0.3,2.5-0.1l8.8-5.1c0.8-0.4,0.8-1.1,0.2-1.5L650,284.9z"/>
		<linearGradient id="XMLID_126_" gradientUnits="userSpaceOnUse" x1="638.6106" y1="283.752" x2="658.5801" y2="283.752">
			<stop  offset="0" style="stop-color:#0047FF"/>
			<stop  offset="1" style="stop-color:#00FFE5"/>
		</linearGradient>
		<path id="XMLID_1843_" class="st102" d="M647.5,285.1c0.8-0.4,1.9-0.5,2.5-0.1l8.3,4.8l5-3.2l-14.4-8.8l-13.3,7.7l5.3,3.4
			L647.5,285.1z"/>
		<linearGradient id="XMLID_127_" gradientUnits="userSpaceOnUse" x1="665.989" y1="294.3409" x2="635.3209" y2="294.3409">
			<stop  offset="0" style="stop-color:#0047FF"/>
			<stop  offset="1" style="stop-color:#00FFE5"/>
		</linearGradient>
		<path id="XMLID_1842_" class="st103" d="M666.2,293.7L666.2,293.7l0-7.5l-12.5,5.7l-6.3,1.3l-14.8-7.6l0,7.1
			c-0.1,0.4,0.1,0.8,0.6,1.1l15.1,8.8c1,0.6,2.7,0.5,3.8-0.2l13.1-7.5C666,294.6,666.3,294.1,666.2,293.7z"/>
		<path id="XMLID_1839_" class="st21" d="M665.6,285.3l-15.1-8.8c-1-0.6-2.7-0.5-3.8,0.2l-13.1,7.5c-1.1,0.6-1.2,1.6-0.3,2.2
			l15.1,8.8c1,0.6,2.7,0.5,3.8-0.2l13.1-7.5C666.4,286.9,666.6,285.9,665.6,285.3z M660.1,287l-8.8,5.1c-0.8,0.4-1.9,0.5-2.5,0.1
			l-10.2-5.9c-0.6-0.4-0.6-1,0.2-1.5l8.8-5.1c0.8-0.4,1.9-0.5,2.5-0.1l10.2,5.9C661,285.9,660.9,286.5,660.1,287z"/>
		<g id="XMLID_1836_">
			<linearGradient id="XMLID_128_" gradientUnits="userSpaceOnUse" x1="666.2461" y1="287.6918" x2="666.2461" y2="287.6918">
				<stop  offset="0" style="stop-color:#0047FF"/>
				<stop  offset="1" style="stop-color:#00FFE5"/>
			</linearGradient>
			<polygon id="XMLID_1838_" class="st104" points="666.2,287.7 666.2,287.7 666.2,287.7 			"/>
			<linearGradient id="XMLID_129_" gradientUnits="userSpaceOnUse" x1="665.9896" y1="295.3381" x2="635.3215" y2="295.3381">
				<stop  offset="0" style="stop-color:#0047FF"/>
				<stop  offset="1" style="stop-color:#00FFE5"/>
			</linearGradient>
			<path id="XMLID_1837_" class="st105" d="M665.3,288.5l-13.1,7.5c-1.1,0.6-2.8,0.7-3.8,0.2l-15.1-8.8c-0.4-0.2-0.6-0.5-0.6-0.8
				l0,7.1c-0.1,0.4,0.1,0.8,0.6,1.1l15.1,8.8c1,0.6,2.7,0.5,3.8-0.2l13.1-7.5c0.6-0.4,1-0.8,0.9-1.3l0-7.4
				C666.2,287.7,665.9,288.2,665.3,288.5z"/>
		</g>
	</g>
	<linearGradient id="XMLID_130_" gradientUnits="userSpaceOnUse" x1="630.348" y1="307.3878" x2="667.8945" y2="359.4258">
		<stop  offset="5.102040e-03" style="stop-color:#83FFFF"/>
		<stop  offset="1" style="stop-color:#2E00F4"/>
	</linearGradient>
	<path id="XMLID_328_" class="st106" d="M639.1,329.4l-3.9-2.3c-0.6-0.3-1.1-1.3-1.1-2.1l0-20c0-0.8,0.5-1.2,1.1-0.8l3.9,2.3
		c0.6,0.3,1.1,1.3,1.1,2.1l0,20C640.2,329.3,639.7,329.7,639.1,329.4z"/>
</g>
<g id="_x34_">
	<g id="XMLID_1794_">
		<linearGradient id="XMLID_131_" gradientUnits="userSpaceOnUse" x1="634.395" y1="361.2413" x2="631.0298" y2="361.2413">
			<stop  offset="0" style="stop-color:#867CE2"/>
			<stop  offset="1" style="stop-color:#CCB0FF"/>
		</linearGradient>
		<path id="XMLID_1799_" class="st107" d="M644.8,372.8l0-29.5l-24.3-0.5l0,29.3c-0.1,0.3,0,0.5,0.4,0.7l11,6.5
			c0.6,0.3,1.6,0.3,2.2-0.1l10.1-5.7C644.7,373.4,644.9,373.1,644.8,372.8z"/>
		<linearGradient id="XMLID_132_" gradientUnits="userSpaceOnUse" x1="706.7171" y1="396.7662" x2="625.7558" y2="337.9554">
			<stop  offset="0" style="stop-color:#6318FF"/>
			<stop  offset="1" style="stop-color:#FFFFFF"/>
		</linearGradient>
		<path id="XMLID_1798_" class="st108" d="M631.9,349.8l-11-6.5c-0.6-0.3-0.5-0.9,0.2-1.3l10.1-5.7c0.7-0.4,1.7-0.4,2.2-0.1l11,6.5
			c0.6,0.3,0.5,0.9-0.2,1.3l-10.1,5.7C633.5,350.1,632.5,350.1,631.9,349.8z"/>
	</g>
	<g id="XMLID_1680_">
		<linearGradient id="XMLID_133_" gradientUnits="userSpaceOnUse" x1="642.5007" y1="338.8648" x2="621.9414" y2="338.8648">
			<stop  offset="0" style="stop-color:#0047FF"/>
			<stop  offset="1" style="stop-color:#00FFE5"/>
		</linearGradient>
		<path id="XMLID_1682_" class="st109" d="M643,338.8l0-5.3l-20.5-0.4l0,5.1c-0.1,0.2,0,0.5,0.3,0.6l9.3,5.5
			c0.5,0.3,1.3,0.3,1.9-0.1l8.6-4.8C642.9,339.3,643.1,339.1,643,338.8z"/>
		<linearGradient id="XMLID_134_" gradientUnits="userSpaceOnUse" x1="695.2538" y1="378.6461" x2="626.9124" y2="329.0024">
			<stop  offset="0" style="stop-color:#6318FF"/>
			<stop  offset="1" style="stop-color:#FFFFFF"/>
		</linearGradient>
		<path id="XMLID_1681_" class="st110" d="M632.1,339l-9.3-5.5c-0.5-0.3-0.4-0.8,0.1-1.1l8.6-4.8c0.6-0.3,1.4-0.3,1.9-0.1l9.3,5.5
			c0.5,0.3,0.4,0.8-0.1,1.1l-8.6,4.8C633.4,339.2,632.6,339.3,632.1,339z"/>
	</g>
	<g id="XMLID_1827_">
		<linearGradient id="XMLID_135_" gradientUnits="userSpaceOnUse" x1="610.1562" y1="338.7058" x2="644.8846" y2="386.8381">
			<stop  offset="5.102040e-03" style="stop-color:#60D1FF"/>
			<stop  offset="1" style="stop-color:#0000AB"/>
		</linearGradient>
		<path id="XMLID_1829_" class="st111" d="M627.8,372.3l-3.6-2.1c-0.6-0.3-1-1.2-1-1.9l0-18.5c0-0.7,0.5-1.1,1-0.8l3.6,2.1
			c0.6,0.3,1,1.2,1,1.9l0,18.5C628.8,372.3,628.3,372.6,627.8,372.3z"/>
		<linearGradient id="XMLID_136_" gradientUnits="userSpaceOnUse" x1="618.9806" y1="352.3969" x2="653.7089" y2="400.5291">
			<stop  offset="5.102040e-03" style="stop-color:#83FFFF"/>
			<stop  offset="1" style="stop-color:#2E00F4"/>
		</linearGradient>
		<path id="XMLID_1828_" class="st112" d="M627,372.7l-3.6-2.1c-0.6-0.3-1-1.2-1-1.9l0-18.5c0-0.7,0.5-1.1,1-0.8l3.6,2.1
			c0.6,0.3,1,1.2,1,1.9l0,18.5C628.1,372.7,627.6,373.1,627,372.7z"/>
	</g>
</g>
<g id="_x33_">
	<g id="XMLID_1782_">
		<linearGradient id="XMLID_137_" gradientUnits="userSpaceOnUse" x1="606.601" y1="224.8818" x2="600.5546" y2="224.8818">
			<stop  offset="0" style="stop-color:#8669E2"/>
			<stop  offset="1" style="stop-color:#CCB0FF"/>
		</linearGradient>
		<path id="XMLID_1784_" class="st113" d="M625.4,282.6l0-126.8l-43.7-0.9l0,126.5c-0.2,0.5,0,1,0.6,1.3l19.8,11.7
			c1,0.6,2.8,0.6,4-0.1l18.2-10.3C625.1,283.6,625.4,283.1,625.4,282.6z"/>
		<linearGradient id="XMLID_138_" gradientUnits="userSpaceOnUse" x1="736.5491" y1="251.7728" x2="591.0782" y2="146.1019">
			<stop  offset="0" style="stop-color:#6318FF"/>
			<stop  offset="1" style="stop-color:#FFFFFF"/>
		</linearGradient>
		<path id="XMLID_1783_" class="st114" d="M602.1,167.4l-19.8-11.7c-1-0.6-0.9-1.6,0.3-2.3l18.2-10.3c1.2-0.7,3-0.7,4-0.1l19.8,11.7
			c1,0.6,0.9,1.6-0.3,2.3l-18.2,10.3C605,167.9,603.2,168,602.1,167.4z"/>
	</g>
	<g id="XMLID_1795_">
		<linearGradient id="XMLID_139_" gradientUnits="userSpaceOnUse" x1="621.6928" y1="148.6873" x2="583.3437" y2="148.6873">
			<stop  offset="0" style="stop-color:#0047FF"/>
			<stop  offset="1" style="stop-color:#00FFE5"/>
		</linearGradient>
		<path id="XMLID_1797_" class="st115" d="M622.7,148.6l0-9.9l-38.3-0.8l0,9.5c-0.1,0.4,0,0.9,0.6,1.2l17.4,10.3
			c0.9,0.5,2.5,0.5,3.5-0.1l16-9C622.4,149.5,622.7,149.1,622.7,148.6z"/>
		<linearGradient id="XMLID_140_" gradientUnits="userSpaceOnUse" x1="720.0934" y1="222.8916" x2="592.616" y2="130.2911">
			<stop  offset="0" style="stop-color:#6318FF"/>
			<stop  offset="1" style="stop-color:#FFFFFF"/>
		</linearGradient>
		<path id="XMLID_1796_" class="st116" d="M602.3,148.9l-17.4-10.3c-0.9-0.5-0.8-1.4,0.3-2l16-9c1.1-0.6,2.6-0.6,3.5-0.1l17.4,10.3
			c0.9,0.5,0.8,1.4-0.3,2l-16,9C604.8,149.4,603.2,149.4,602.3,148.9z"/>
	</g>
	<g id="XMLID_1678_">
		<linearGradient id="XMLID_141_" gradientUnits="userSpaceOnUse" x1="560.0413" y1="146.755" x2="630.2731" y2="244.0937">
			<stop  offset="5.102040e-03" style="stop-color:#60D1FF"/>
			<stop  offset="1" style="stop-color:#0000AB"/>
		</linearGradient>
		<path id="XMLID_1690_" class="st117" d="M595.7,214.6l-7.3-4.2c-1.1-0.7-2-2.4-2-3.9l0-37.5c0-1.5,0.9-2.2,2-1.5l7.3,4.2
			c1.1,0.7,2,2.4,2,3.9l0,37.5C597.7,214.6,596.8,215.3,595.7,214.6z"/>
		<linearGradient id="XMLID_142_" gradientUnits="userSpaceOnUse" x1="577.887" y1="174.4427" x2="648.1189" y2="271.7815">
			<stop  offset="5.102040e-03" style="stop-color:#83FFFF"/>
			<stop  offset="1" style="stop-color:#2E00F4"/>
		</linearGradient>
		<path id="XMLID_1679_" class="st118" d="M594.2,215.6l-7.3-4.2c-1.1-0.7-2-2.4-2-3.9l0-37.5c0-1.5,0.9-2.2,2-1.5l7.3,4.2
			c1.1,0.7,2,2.4,2,3.9l0,37.5C596.2,215.5,595.3,216.2,594.2,215.6z"/>
	</g>
</g>
<g id="_x32_">
	<g id="XMLID_1785_">
		<linearGradient id="XMLID_143_" gradientUnits="userSpaceOnUse" x1="576.5573" y1="262.4361" x2="571.5462" y2="262.4361">
			<stop  offset="0" style="stop-color:#867CE2"/>
			<stop  offset="1" style="stop-color:#CCB0FF"/>
		</linearGradient>
		<path id="XMLID_1787_" class="st119" d="M592.1,294.4l0-73.3l-36.2-0.7l0,73c-0.1,0.4,0,0.8,0.5,1.1l16.4,9.7
			c0.9,0.5,2.3,0.5,3.3-0.1l15.1-8.5C591.9,295.2,592.2,294.8,592.1,294.4z"/>
		<linearGradient id="XMLID_144_" gradientUnits="userSpaceOnUse" x1="684.2539" y1="300.6259" x2="563.6925" y2="213.0493">
			<stop  offset="0" style="stop-color:#6318FF"/>
			<stop  offset="1" style="stop-color:#FFFFFF"/>
		</linearGradient>
		<path id="XMLID_1786_" class="st120" d="M572.9,230.7l-16.4-9.7c-0.9-0.5-0.7-1.4,0.3-1.9l15.1-8.5c1-0.6,2.5-0.6,3.3-0.1
			l16.4,9.7c0.9,0.5,0.7,1.4-0.3,1.9l-15.1,8.5C575.2,231.1,573.7,231.2,572.9,230.7z"/>
	</g>
	<g id="XMLID_1833_">
		<linearGradient id="XMLID_145_" gradientUnits="userSpaceOnUse" x1="529.7899" y1="212.9022" x2="606.588" y2="319.3414">
			<stop  offset="5.102040e-03" style="stop-color:#60D1FF"/>
			<stop  offset="1" style="stop-color:#0000AB"/>
		</linearGradient>
		<path id="XMLID_1835_" class="st121" d="M567.2,288.7l-5-2.9c-0.8-0.4-1.4-1.6-1.4-2.7l0-48c0-1,0.6-1.5,1.4-1.1l5,2.9
			c0.8,0.4,1.4,1.6,1.4,2.7l0,48C568.6,288.6,568,289.1,567.2,288.7z"/>
		<linearGradient id="XMLID_146_" gradientUnits="userSpaceOnUse" x1="549.9084" y1="242.8031" x2="626.7064" y2="349.2423">
			<stop  offset="5.102040e-03" style="stop-color:#83FFFF"/>
			<stop  offset="1" style="stop-color:#2E00F4"/>
		</linearGradient>
		<path id="XMLID_1834_" class="st122" d="M566.2,289.3l-5-2.9c-0.8-0.4-1.4-1.6-1.4-2.7l0-48c0-1,0.6-1.5,1.4-1.1l5,2.9
			c0.8,0.4,1.4,1.6,1.4,2.7l0,48C567.6,289.3,567,289.7,566.2,289.3z"/>
	</g>
	<linearGradient id="XMLID_147_" gradientUnits="userSpaceOnUse" x1="547.0239" y1="244.5148" x2="623.822" y2="350.9541">
		<stop  offset="5.102040e-03" style="stop-color:#83FFFF"/>
		<stop  offset="1" style="stop-color:#2E00F4"/>
	</linearGradient>
	<path id="XMLID_327_" class="st123" d="M563.3,291l-5-2.9c-0.8-0.4-1.4-1.6-1.4-2.7l0-48c0-1,0.6-1.5,1.4-1.1l5,2.9
		c0.8,0.4,1.4,1.6,1.4,2.7l0,48C564.7,291,564.1,291.4,563.3,291z"/>
</g>
<g id="_x31_">
	<g id="XMLID_1788_">
		<linearGradient id="XMLID_148_" gradientUnits="userSpaceOnUse" x1="598.7647" y1="290.883" x2="593.7536" y2="290.883">
			<stop  offset="0" style="stop-color:#867CE2"/>
			<stop  offset="1" style="stop-color:#CCB0FF"/>
		</linearGradient>
		<path id="XMLID_1790_" class="st124" d="M614.3,308.1l0-43.9l-36.2-0.7l0,43.6c-0.1,0.4,0,0.8,0.5,1.1l16.4,9.7
			c0.9,0.5,2.3,0.5,3.3-0.1l15.1-8.5C614.1,309,614.4,308.5,614.3,308.1z"/>
		<linearGradient id="XMLID_149_" gradientUnits="userSpaceOnUse" x1="706.4613" y1="343.784" x2="585.8999" y2="256.2074">
			<stop  offset="0" style="stop-color:#6318FF"/>
			<stop  offset="1" style="stop-color:#FFFFFF"/>
		</linearGradient>
		<path id="XMLID_1789_" class="st125" d="M595.1,273.8l-16.4-9.7c-0.9-0.5-0.7-1.4,0.3-1.9l15.1-8.5c1-0.6,2.5-0.6,3.3-0.1
			l16.4,9.7c0.9,0.5,0.7,1.4-0.3,1.9l-15.1,8.5C597.4,274.3,595.9,274.3,595.1,273.8z"/>
	</g>
	<g id="XMLID_1830_">
		<linearGradient id="XMLID_150_" gradientUnits="userSpaceOnUse" x1="564.9185" y1="259.8461" x2="612.8807" y2="326.3199">
			<stop  offset="5.102040e-03" style="stop-color:#60D1FF"/>
			<stop  offset="1" style="stop-color:#0000AB"/>
		</linearGradient>
		<path id="XMLID_1832_" class="st126" d="M589.2,306.2l-5-2.9c-0.8-0.4-1.4-1.6-1.4-2.7l0-25.6c0-1,0.6-1.5,1.4-1.1l5,2.9
			c0.8,0.4,1.4,1.6,1.4,2.7l0,25.6C590.6,306.2,590,306.7,589.2,306.2z"/>
		<linearGradient id="XMLID_151_" gradientUnits="userSpaceOnUse" x1="577.1056" y1="278.7543" x2="625.0679" y2="345.2283">
			<stop  offset="5.102040e-03" style="stop-color:#83FFFF"/>
			<stop  offset="1" style="stop-color:#2E00F4"/>
		</linearGradient>
		<path id="XMLID_1831_" class="st127" d="M588.2,306.8l-5-2.9c-0.8-0.4-1.4-1.6-1.4-2.7l0-25.6c0-1,0.6-1.5,1.4-1.1l5,2.9
			c0.8,0.4,1.4,1.6,1.4,2.7l0,25.6C589.6,306.8,589,307.3,588.2,306.8z"/>
	</g>
</g>
</svg>
