<?xml version="1.0" encoding="utf-8"?>
<!-- Generator: Adobe Illustrator 22.0.0, SVG Export Plug-In . SVG Version: 6.00 Build 0)  -->
<svg version="1.1" xmlns="http://www.w3.org/2000/svg" xmlns:xlink="http://www.w3.org/1999/xlink" x="0px" y="0px"
	 viewBox="0 0 435.3 437.3" style="enable-background:new 0 0 435.3 437.3;" xml:space="preserve">
<style type="text/css">
	.st0{fill:#4C565E;}
	.st1{fill:#3E484F;}
	.st2{fill:#353D44;}
	.st3{fill:#273035;}
	.st4{fill:#21292D;}
	.st5{fill:#FFCBAE;}
	.st6{fill:#ABC8CE;}
	.st7{fill:#141C1E;}
	.st8{fill:#20282B;}
	.st9{fill:#D8EAEF;}
	.st10{fill:#BDD5DB;}
	.st11{fill:#BFD7DD;}
	.st12{fill:#44647F;}
	.st13{fill:#DDA07F;}
	.st14{fill:#E5AC8F;}
	.st15{fill:#CC8A6D;}
	.st16{fill:#EAB18B;}
	.st17{fill:#E0A380;}
	.st18{opacity:0.4;fill:#D39779;}
	.st19{fill:#3B5056;}
	.st20{fill:#304449;}
	.st21{fill:#B29A7B;}
	.st22{filter:url(#Adobe_OpacityMaskFilter);}
	.st23{mask:url(#SVGID_1_);}
	.st24{fill:#845A49;}
	.st25{fill:#724A3B;}
	.st26{fill:#423D38;}
	.st27{fill:#332E2A;}
	.st28{fill:#D1916D;}
	.st29{fill:#3E5B50;}
	.st30{fill:#2E3F39;}
	.st31{fill:#314C41;}
	.st32{opacity:0.2;fill:#314C41;}
	.st33{fill:#B7E5D1;}
	.st34{fill:#9BCEB7;}
	.st35{fill:#49665C;}
	.st36{fill:#3D594E;}
	.st37{fill:#D39775;}
	.st38{fill:#DD9E7A;}
	.st39{fill:#FCF5FF;}
	.st40{fill:#2E493E;}
	.st41{fill:#C98865;}
	.st42{fill:#385448;}
	.st43{fill:#B28440;}
	.st44{fill:#FFCEB3;}
	.st45{fill:#E29A9A;}
	.st46{fill:#F9BDBD;}
	.st47{fill:#E8A3A3;}
	.st48{fill:#EFB69A;}
	.st49{fill:#C15252;}
	.st50{fill:#CC5C5C;}
	.st51{fill:#604848;}
	.st52{fill:#2A3A47;}
	.st53{fill:#513A3A;}
	.st54{fill:#EAAD94;}
	.st55{fill:#F4BEA4;}
	.st56{fill:#F4BC9F;}
	.st57{fill:#D38989;}
	.st58{fill:#E5B957;}
	.st59{fill:#F9CE78;}
	.st60{fill:#E59A57;}
	.st61{fill:#C45C5C;}
	.st62{fill:#B24F4F;}
	.st63{fill:#30444F;}
	.st64{fill:#273B44;}
	.st65{fill:#293C47;}
	.st66{fill:#507382;}
	.st67{fill:#446A77;}
	.st68{fill:#4C5456;}
	.st69{fill:#3F4849;}
	.st70{fill:#363F3F;}
	.st71{fill:#2C3535;}
	.st72{opacity:0.2;fill:#2F373D;}
	.st73{fill:#FFCC7B;}
	.st74{fill:#EFA765;}
	.st75{fill:#354956;}
	.st76{fill:#2D414C;}
	.st77{fill:#2C414C;}
	.st78{fill:#6D5E57;}
	.st79{fill:#5B4C46;}
	.st80{fill:#21323A;}
	.st81{fill:#2B3E49;}
	.st82{fill:#8C5134;}
	.st83{fill:#5E646D;}
	.st84{fill:#777E89;}
	.st85{fill:#6A737F;}
	.st86{fill:#D69976;}
	.st87{fill:#31363F;}
	.st88{fill:#3C4049;}
	.st89{fill:#2E343D;}
	.st90{fill:#C7E6EA;}
	.st91{fill:#32373F;}
	.st92{fill:#9B6A49;}
	.st93{fill:#30353D;}
	.st94{fill:#DB9B77;}
	.st95{fill:#535A63;}
	.st96{fill:#7F462D;}
</style>
<g id="OBJECTS">
	<g>
		<path class="st0" d="M312.2,248c0,0,0.3-0.6,1.2-1.7c0.9-1.2,7.6-0.5,7.6-0.5s0.7,1.6,0.8,1.7c0.1,0.1,0.6,5,0.6,5l-7.4,1.7
			l-2.5-2.6L312.2,248z"/>
		<path class="st1" d="M321.7,247.4c-0.1-0.1-0.8-1.7-0.8-1.7s-6.7-0.7-7.6,0.5c-0.9,1.2-1.2,1.7-1.2,1.7l0,0
			c1.7,2.1,7.7,2.7,9.7,0.3C321.8,247.8,321.8,247.5,321.7,247.4z"/>
		<g>
			<path class="st2" d="M312,248.8l-0.2,6.5l0.9,0.7v5.7c0,0,0.5,5.3,1.2,6.7c0.5,1,0.8,1.5,2.3,1.9c1.5,0.4,4.9,1,7.6-1.4
				c0,0,0.1-2.1-0.3-3.1c-0.3-0.6-6.1-0.5-6.1-0.5l-5.1-14.2L312,248.8z"/>
			<path class="st3" d="M321.8,245.8l-0.9-0.3c0,0,0.7,2.7,0.9,5.6c-0.8-0.1-4.2-0.2-8.5,0.7c-0.5-2.8-0.4-5.6-0.7-5.4
				c-1.7,2.9-0.1,4.4,0.1,7.7c0,1.9,0.5,11.1,1.2,13c0.9,1.8,3.4,2.2,4.6,2.5c2.1,0.4,5-1.1,5.2-2
				C324.7,266.7,322.9,252,321.8,245.8z"/>
			<path class="st4" d="M321.8,245.8l-0.4-0.1c1,6.3,2.4,19.7,1.7,20.5c-0.1,0.9-2.7,2.4-4.5,2c-1-0.2-3.2-0.6-4-2.4
				c-0.7-1.8-1.1-10.7-1.1-12.5c-0.1-2.7-1.3-4.2-0.6-6.3c0-0.3-0.1-0.5-0.2-0.4c-1.7,2.9-0.1,4.4,0.1,7.7c0,1.9,0.5,11.1,1.2,13
				c0.9,1.8,3.4,2.2,4.6,2.5c2.1,0.4,5-1.1,5.2-2C324.7,266.7,322.9,252,321.8,245.8z"/>
		</g>
		<path class="st2" d="M333.3,240.2c0,0,0.7-0.2,1,0.1c0.2,0.3-0.9,1.7-0.9,1.7s-0.2-0.8-0.2-0.9S333.3,240.2,333.3,240.2z"/>
		<path class="st0" d="M342.2,240.3v-6.8h-8.6v8.4l5.2,5.6l7.2-1.9c0,0-0.6-1.2-0.9-1.5C343.6,241.9,342.2,240.3,342.2,240.3z"/>
		<path class="st1" d="M342.3,240.5c-0.1-0.1-0.2-0.2-0.2-0.2v-6.8h-8.6v6.9C336,241.7,340.2,243.1,342.3,240.5z"/>
		<g>
			<path class="st2" d="M332.3,242.5c0,0.8,0,1.7,0,3.3c0,1.5,3.2,3.8,5.8,4.5c0.2,0,0.3-0.1,0.3-0.2l0-0.8c0.8,0.3,2.4,1.1,3.3,1.8
				c0.1,0.1,0.3,0.8,0.4,0.9c1.9,1.4,3.8,2.6,5.4,3.7c2.3,1.6,6.8-0.1,8-0.7c0.2-0.1,0.3-0.2,0.3-0.4v-0.6l-4.7,0.1l-8.1-4.7
				l-9.5-5.6l-0.1-0.9L332.3,242.5"/>
			<path class="st3" d="M355.6,253.2c-4.3-3-7.2-5.9-9.1-7.9c-1.1-2.5-2.4-3.8-2.4-3.8c-2.7,0-5.4,2-6.2,2.7c-2.3-1.3-4.6-3.4-4.5-4
				c-0.4,0.1-1,0.8-1,1.6s0,0.7,0,2.3c0,1.5,3.5,4,6.1,4.6c2.6,0.6,6.9,4,9.6,5.9c2.3,1.6,6.6,0.2,7.7-0.3c0.2-0.1,0.3-0.2,0.3-0.4
				C356,253.7,355.8,253.4,355.6,253.2z"/>
			<path class="st4" d="M355.6,253.2C355.6,253.2,355.6,253.2,355.6,253.2c-1.2,0.5-5.3,1.8-7.6,0.2c-2.7-1.9-7-5.3-9.6-5.9
				c-2.6-0.6-6.1-3.1-6.1-4.6c0,0.3,0,0.6,0,1.1c0,1.5,3.5,4,6.1,4.6c2.6,0.6,6.9,4,9.6,5.9c2.3,1.6,6.6,0.2,7.7-0.3
				c0.2-0.1,0.3-0.2,0.3-0.4C356,253.7,355.8,253.4,355.6,253.2z"/>
		</g>
		<path class="st2" d="M332.9,240.3c0,0,0.7-0.2,1,0.1c0.2,0.3-0.9,1.7-0.9,1.7s-0.2-0.8-0.2-0.9
			C332.7,241.1,332.9,240.3,332.9,240.3z"/>
		<g>
			<path class="st5" d="M356.9,136.9c0,0-0.1-4.5-0.4-5.9c-1.1-2.3-1.2-3.7-1.2-3.7c0-0.3-5.7-30.3-5.7-30.3L348,63.7
				c0-2.6-0.2-6-2.8-6.1c-2.6,0-4.2,0.2-4.3,2.8l-0.7,36.9l0,0.2c0,0.4,0,0.7,0.1,1.1l9.7,33.1c0,1.5-0.2,3.2,0,9
				c0.2,5.9,3.7,4.1,4.1,3.4C355.4,140.9,356.9,136.9,356.9,136.9z"/>
			<g>
				<path class="st6" d="M348.9,128.4c5.2,1.4,7.5-1.2,7.5-1.2l-5.8-30.7c0,0,1.3-25.2-0.9-34.6c-1.7-7.6-7.9-8.7-7.9-8.7
					c-3.6,0-3.8,3.9-3.8,7.5l1.3,37.6L348.9,128.4z"/>
			</g>
			<path class="st6" d="M350.6,96.5c0,0,1.3-25.2-0.9-34.6c-1.7-7.6-7.9-8.7-7.9-8.7c-0.6,0-1.1,0.1-1.6,0.3c2,0.9,5.2,3.2,6.4,8.4
				c2.2,9.7,0.9,35.8,0.9,35.8l5.9,30.9c2-0.4,2.9-1.4,2.9-1.4L350.6,96.5z"/>
		</g>
		<g>
			<path class="st3" d="M328.1,108.4c-11.2,6.6-0.4,57.3,3.1,77.2c-0.2,0.8-0.6,2.3-0.6,2.1c-0.5,5.6,1.3,13.7,1.5,22.9
				c0.4,12-0.3,30.6-0.3,30.6c1.9,1.2,9.1,4.8,11.2-0.1c0,0,2.1-39.4,2.2-51c4.4-33.2,3.2-61,2.9-68.7
				C347.1,115.8,337.8,102.7,328.1,108.4z"/>
			<path class="st7" d="M323.1,125.4c-0.2,18.5,5.6,46.6,8.1,60.1c-0.2,0.8-0.6,2.3-0.6,2.1c-0.3,4.2,0.5,9.7,1.1,16l0.2-8.7
				c0,0,5-30.9,3.7-62.5C335.6,132.5,331.1,122.1,323.1,125.4z"/>
		</g>
		<path class="st8" d="M348.2,121.3c-0.7-3.3-4.3-9.4-9.2-12.4c3.3,3.3,5.6,7.7,6.1,10.5c0.2,8.1,1.2,37.4-3.5,72.3
			c-0.2,10.7-2.1,43.8-2.5,51.9c1.7,0,3.2-0.7,4-2.5c0,0,2.1-39.4,2.2-51C349.7,156.9,348.5,129,348.2,121.3z"/>
		<g>
			<path class="st3" d="M321,126.6c-1.4,0.8-13.5-1.7-14.4,0c-1.7,3.3-2.2,7.2-1.9,13.7c1,17.1,7.5,43,8.8,55.5
				c-0.3,0.6-1.3,3.6-1.3,3.6c-1.2,4.8,0.6,11.1,0.7,18.5c0.2,12-1.7,29.2-1.7,29.2c0.2,3.3,10.7,5.1,11.2,0.6l4.8-52.2
				c0,0,7.1-30.5,7.9-62.1C335.1,133.5,330.7,120.9,321,126.6z"/>
		</g>
		<path class="st8" d="M331.7,127.9c-1.1,34.2-8.7,67.2-8.7,67.2l-5.3,55.4c2.3,0,4.4-0.7,4.6-2.7l4.8-52.2c0,0,7.1-30.5,7.9-62.1
			C335.1,133.5,334,130.3,331.7,127.9z"/>
		<g>
			<path class="st9" d="M348.4,119.6c0-6.5-2-8.8-2.3-20.6c-0.3-13,4-24.5,0.2-34.4c-1.8-4.8-4.6-14.5-11.5-11.8
				c-5.4,2.3-8.7-0.1-11.2,1.3c-6.5,4.9-15.9,6.6-19.1,11.2c-1,8-0.9,22.9,6,40c0,0-1.8,12.3-4.7,17c-0.4,7.8,7.9,12,17.3,11
				C331.3,132.5,347.2,124.4,348.4,119.6z"/>
		</g>
		<g>
			<path class="st10" d="M346,99c-0.3-13,4-24.5,0.2-34.4c-1.8-4.8-4.6-14.5-11.5-11.8c-0.2,0.1-0.4,0.2-0.6,0.2
				c5.2,0.1,7.5,8.5,9.1,12.9c3.8,10.4-0.5,22.4-0.2,36.1c0.3,12.3,2.3,14.7,2.3,21.5c1.6-1.4,2.7-2.7,3-3.8
				C348.4,113.1,346.3,110.8,346,99z"/>
		</g>
		<g>
			<path class="st11" d="M335,129.2c-0.3-1.1-0.3-5.7,0.2-11.9c1.1-15.7,3.3-45-5-51l1.6-0.7c9,6.5,6.3,34.6,5.1,51.8
				c-0.4,4.8-0.6,10.1-0.4,10.9L335,129.2z"/>
		</g>
		<path class="st12" d="M331.6,69.6c0,0,4,14,1.5,35.9c1.2,3.3,3,12.4,3,12.4s3.3-10.4,4.1-13.5c-0.3-22.7-7.7-35-7.7-35L331.6,69.6
			z"/>
		<path class="st12" d="M328.6,67.7c0,0,0.7,2.4,1.8,2.7c1.1,0.2,3.2-1,3.5-1.8c0.3-0.8,0.4-2.7,0.1-3c-0.3-0.4-1.9-0.3-1.9-0.3
			l-0.9,0.2c0,0-2.6,1.6-2.6,1.7C328.6,67.3,328.6,67.7,328.6,67.7z"/>
		<polygon class="st13" points="326,63.4 326.7,65.2 330.7,65.6 332.2,65.1 334.3,63.8 333.4,62.7 325.7,62.9 		"/>
		<path class="st11" d="M330.7,65.6c0,0,4.5-1.4,7.4,2.2c0,0,0.4-7.2-4.4-10.9C334.3,58.3,336,62.6,330.7,65.6z"/>
		<path class="st14" d="M356.5,137c-0.6,1-2.7,0.1-2.5-3.4C353.1,136.2,354.9,139.8,356.5,137z"/>
		<g>
			<path class="st13" d="M321.5,49.4c0,0,0.2,5.3-1.2,10.9c2.4,3.8,12.6,6.2,14.2,1.8c0,0-0.4-3.9,1.2-6.6
				C337.2,52.7,321.5,49.4,321.5,49.4z"/>
			<path class="st15" d="M321.5,49.4c0,0,0,1,0,2.6c3.3,6.3,8.5,8.3,12.9,8.9c0-1.4,0.2-3.6,1.2-5.4
				C337.2,52.7,321.5,49.4,321.5,49.4z"/>
			<path class="st16" d="M338.4,29c0,0,3.2,5.5,3.2,11.5c-0.2,0.8,1.1,2.3,0.8,5.7c-0.2,2.4-0.7,7.3-1,9.8c-0.1,0.9-0.8,1.7-1.7,1.8
				c-4.9,0.9-12.6,1.4-18.3-6.4c0,0-2.7-3.2-4-3.6c-1.3-0.4-6.2-6.7-6.2-11.9c0-5.4,3-13.7,14.2-13.7C334.4,22.4,338.4,29,338.4,29z
				"/>
			<g>
				<path class="st17" d="M341.5,40.5c0-6-3.2-11.5-3.2-11.5s-0.6-1-1.9-2.2c0.3,0.4,0.4,0.6,0.4,0.6s3.2,5.5,3.2,11.5
					c-0.2,0.8,1.1,2.3,0.8,5.7c-0.2,2.4-0.7,7.3-1,9.8c-0.1,0.9-0.8,1.7-1.7,1.8c-4.3,0.8-10.9,1.2-16.3-4c5.6,7,13.1,6.5,17.8,5.7
					c0.9-0.2,1.6-0.9,1.7-1.8c0.2-2.5,0.7-7.4,1-9.8C342.7,42.9,341.3,41.3,341.5,40.5z"/>
			</g>
		</g>
		<g>
			<path class="st18" d="M319.6,44.4c-2.1-2.2-4.8-0.3-3,2.3c0.4,0.6,1.2,0.9,1.5,1.4c0.2,0.3,0.3,0.5,0.5,0.8
				c0.5,0.4,1,0.9,1.4,1.4c0.6,0.2,1,0,1.4-0.5L319.6,44.4z"/>
			<path class="st16" d="M321.2,44.5c-1.3-2.7-4.4-1.8-3.6,1.2c0.2,0.6,0.9,1.2,1,1.8c0.6,2.9,1.6,3.2,2.7,2.6"/>
		</g>
		<path class="st11" d="M320.8,57.9c-1,0.3-2.2,1.7-2.7,3.6c0,0,2.8,8.1,8.7,12.3c0,0,0.9-5.8,4-8.3C329.2,65.1,321,62.5,320.8,57.9
			z"/>
		<path class="st19" d="M306.3,125.8c1.6,2.2,8.5,9.2,19.5,6.6c11-2.6,20.7-9,22.6-13.1v3.4c-1.9,4.1-11.6,10.5-22.6,13.1
			c-11,2.6-17.9-4.4-19.5-6.6V125.8z"/>
		<path class="st20" d="M343.1,128c2.7-1.9,4.6-3.8,5.3-5.4v-3.4c-0.7,1.6-2.7,3.5-5.4,5.5L343.1,128z"/>
		<g>
			<path class="st21" d="M338.1,128.2l-0.1,2.3c0,0.2-0.1,0.3-0.3,0.4l-3.5,1.8l0.1-2.4c0-0.1,0.1-0.2,0.2-0.3L338.1,128.2
				 M338.3,127.2c-0.1,0-0.2,0-0.3,0.1l-3.9,2c-0.4,0.2-0.6,0.6-0.6,1l-0.1,2.5c0,0.5,0.4,0.8,0.8,0.8c0.1,0,0.2,0,0.4-0.1l3.7-1.9
				c0.4-0.2,0.7-0.7,0.7-1.1l0.1-2.6C339,127.5,338.7,127.2,338.3,127.2L338.3,127.2z"/>
		</g>
		<defs>
			<filter id="Adobe_OpacityMaskFilter" filterUnits="userSpaceOnUse" x="297.2" y="63.5" width="22.3" height="86.9">
				<feFlood  style="flood-color:white;flood-opacity:1" result="back"/>
				<feBlend  in="SourceGraphic" in2="back" mode="normal"/>
			</filter>
		</defs>
		<mask maskUnits="userSpaceOnUse" x="297.2" y="63.5" width="22.3" height="86.9" id="SVGID_1_">
			<g class="st22">
				<path d="M307.5,146.8c0,0,8.8-2.2,11.6-7.1l6.6,14.7v17.2l-12.6-0.2l-4.9-15.8L307.5,146.8z"/>
			</g>
		</mask>
		<g class="st23">
			<g>
				<path class="st5" d="M302.4,67.9c-0.2,3,1,1.2,0.8,4.2l-2.8,5.9c-0.1,3-0.2,5.9-0.3,8.9l-0.3,8.9l0,0.1c0,0.3,0,0.6,0.1,0.8
					l2.1,10.6c0.7,3.5,1.4,7.1,2.1,10.6l2.2,10.6c0.8,3.5,1.5,7.1,2.3,10.6c0.4,1.8,2.2,3,4.1,2.6c1.7-0.4,1.8-2.6,1.6-4.3
					c-0.4-3.6-1.9-6.2-2.3-9.7l-1.2-10.2c-0.5-3.6-2.3-7.5-2.9-11l-1.7-11.8l0.1,1l0.7-9.1c0.1-3,1.5-5.4,1.6-8.4l1.8-8.6
					c0.1-3,1.4,1.8,1.4-1.2c0-2.6-2-4.7-4.6-4.8C304.7,63.5,302.6,65.5,302.4,67.9z"/>
			</g>
			<path class="st5" d="M308.8,139.7c0,0,0.2,5.4,1.4,7.1c1.2,1.8,4.9,3.9,6.8,3.6c1.9-0.2,2.5-1,2.5-1c-0.9-1.7-3.9-3.3-4.2-6.4
				c-0.4-1.9,0.5-1,0.5-0.5c0,0.4,0.8,2.1,1.4,2.5c0.6,0.3,0.8,0.1,0.5-1.7c-0.3-1.8-0.3-2.3-0.8-3.6c-0.5-1.3-1.8-1.2-2.3-2.5
				c-0.5-1.3-0.5-2.5-0.5-2.5l-6.3,1.1C307.9,135.8,308.8,137.5,308.8,139.7z"/>
			<g>
				<path class="st11" d="M307.5,137c0.4,1.2,2.3,1.2,4.2,0.9c1.8-0.3,3.6-1.1,3.7-2.1c-1.7-3.3-8.3-37.7-8.3-37.7l5.5-22.4
					c0.6-7.6-0.2-9.3-2.1-11c-2.1-1.8-6.7-1.6-7.8,1.9c-2.3,7.6-5.5,30.2-5.5,30.2S306.8,136,307.5,137z"/>
			</g>
			<path class="st6" d="M307.1,98l5.5-22.4c0.6-7.6-0.2-9.3-2.1-11c-0.7-0.6-1.6-1-2.6-1.1c1.7,1.7,2.4,3.6,1.9,11.3l-5.6,23.5
				c0,0,6.3,34.4,8.2,39.3c1.5-0.4,3-1.1,3-2C313.7,132.4,307.1,98,307.1,98z"/>
		</g>
		<path class="st24" d="M337.4,28.9c-0.8-7.1-12.7-8.8-18-7.5c-5.3,1.3-7.1,8.4-7.1,8.4l0,0c-0.6,1.6-1.1,3.6-1.2,5.2
			c-0.7,13.3,9.8,14.9,10.2,20.2l0.4-4.3l-2.3-4.7c0,0-1.2-1.8,0.2-1.9c1.4-0.1,2,2.8,2.9,2.5c-0.6-2.3,3.7-10.5,1.1-13.4
			c-0.6-0.7-1.3-1.4-2.1-2c1-1.9,6.5,1.3,11.1,1.8C337.8,33.8,337.7,31.2,337.4,28.9z"/>
		<path class="st25" d="M336.8,26.9c-0.1,0.9-0.4,2.4-1,3.2c-0.9,1.2-3.9,0.9-7,0.1c-3.2-0.7-6-1.4-7.4,1.2c1-1.9,6.5,1.3,11.1,1.8
			c5.2,0.5,5.1-2.1,4.9-4.3C337.3,28.2,337.1,27.5,336.8,26.9z"/>
		<path class="st25" d="M323.7,33.6c-0.2,0.4-0.4,1.1-0.3,2.4c0.1,3-2,6.2-3.5,5.7c-1.5-0.5-2.7,4.8-4.8,3.3c-1.3-0.9-3-5.2-4.1-8.4
			c0.2,11.8,9.8,13.5,10.3,18.6l0.4-4.3l-2.3-4.7c0,0-1.2-1.8,0.2-1.9c1.4-0.1,2,2.8,2.9,2.5C321.9,44.6,326,36.6,323.7,33.6z"/>
	</g>
	<g>
		<path class="st26" d="M109.9,19.5c-0.7-0.5-1.4-0.9-2-1c-0.6-0.1-1-0.1-1.5,0.3c-0.5,0.5-1,1.6-1.1,3.2c-0.1,1.6,0,3.4,0.1,5.2
			c0.3,3.6,1,7.4,1.4,11.4c0.2,2,0.2,4,0,6.1c-0.3,2-0.9,4.1-2.2,5.7c-0.2,0.3-0.6,0.3-0.9,0.1c-0.2-0.2-0.3-0.5-0.2-0.8l0,0
			c1.5-3.3,0.6-6.9-0.4-10.4c-1.1-3.5-2.6-7-3.8-10.8c-0.6-1.9-1.2-3.9-1.5-6c-0.3-2.1-0.5-5.1,0.8-7.9c0.6-1.4,1.7-2.8,2.9-3.9
			c1.3-1.1,2.8-1.8,4.4-2.3c3.2-0.9,6.3-0.5,9.1,0.6l0.9,0.3c3.1,1.2,4.7,4.6,3.5,7.7c-1.2,3.1-4.6,4.7-7.7,3.5
			C111,20.3,110.4,19.9,109.9,19.5z"/>
		<g>
			<path class="st27" d="M105.5,27.2c-0.2-1.8-0.2-3.6-0.1-5.2c0.1-1.6,0.5-2.6,1.1-3.2c0.2-0.2,0.4-0.3,0.6-0.3
				c-0.1,0-0.3-0.1-0.4-0.1c-0.6-0.1-1-0.1-1.5,0.3c-0.5,0.5-1,1.6-1.1,3.2c-0.1,1.6,0,3.4,0.1,5.2c0.3,3.6,1,7.4,1.4,11.4
				c0.2,2,0.2,4,0,6.1c-0.3,2-0.9,4-2.1,5.6c0,0.1,0.1,0.3,0.2,0.4c0.3,0.2,0.7,0.2,0.9-0.1c1.3-1.6,1.9-3.7,2.2-5.7
				c0.3-2,0.2-4.1,0-6.1C106.5,34.7,105.8,30.9,105.5,27.2z"/>
			<path class="st27" d="M115.8,9.3l-0.9-0.3c-1.5-0.6-3.2-0.9-4.9-1c1.3,0.2,2.5,0.5,3.6,0.9l0.9,0.3c3.1,1.2,4.7,4.6,3.5,7.7
				c-0.9,2.4-3.1,3.9-5.5,3.9c2.8,0.5,5.7-1,6.8-3.8C120.5,13.9,118.9,10.4,115.8,9.3z"/>
		</g>
		<path class="st27" d="M105.3,22c0.1-1.6,0.5-2.6,1.1-3.2c0.5-0.5,0.9-0.4,1.5-0.3c0.6,0.1,1.3,0.5,2,1c0.5,0.4,1.1,0.8,1.7,1
			c3.1,1.2,6.6-0.4,7.7-3.5c1.2-3.1-0.4-6.6-3.5-7.7l-0.9-0.3c-2.7-1-5.9-1.4-9-0.6c-1.9,2.1-3.1,5-2.7,9c0.3,2.8,1,5.3,2,7.4
			C105.3,23.8,105.3,22.9,105.3,22z"/>
		<g>
			<path class="st16" d="M144.8,112.1c0,0,1.3,6,1.1,6.8l-2.1,10.1c-0.1,0.4-0.6,0.5-0.9,0.3l-2.9-2.5l0.9-14.6h1.6H144.8z"/>
			<path class="st16" d="M140.5,96.4c0,0,1.9,10,4.3,15.7c-0.6,1.5-3.1,10.4-3.6,8.9c-3.2-9.7-7.1-18.7-7.1-18.7L140.5,96.4z"/>
			<path class="st28" d="M144.9,123.5c-0.6,0-1.3-3.5-1.3-4.8C143.7,118.7,143.4,124.9,144.9,123.5z"/>
		</g>
		<g>
			<path class="st29" d="M128.1,82.1c0-0.2-0.1-0.4-0.1-0.5c-0.2-3.2-2.1-34.8-1.7-37.6c0.4-3.6,2.1-7.1,5.9-7c3,0.1,7,4.6,7.2,10.2
				c0.1,5.6-1.2,32.6-1.3,34.1c0,0,3.7,14.5,3.6,16.8l-6.7,4.4L128.1,82.1z"/>
		</g>
		<path class="st16" d="M137.1,231.6c0-1.7-3.8-11.8-4.5-16.4c-0.1-1.1-0.1-2.4-0.1-3.8c-1.5,1.5-6.3,1.2-7.9-0.1
			c-0.1,1-0.2,1.9-0.4,2.8c0,0,0.1,1.3,0.1,1.4c0,0.1,1.1,4.1,1.1,4.1s4.4,13.5,4.4,13.8c0,0.2,2,0.5,2.4,0.6
			C132.7,234.1,137.2,233.3,137.1,231.6z"/>
		<g>
			<path class="st30" d="M124.6,211.3c0,0-2.4,0.4-2.4,5.1s2.5,3.8,3.2,6c0.6,2.2,2.6,11.6,6.1,12.7c3.5,1.1,6.6,2.4,9.1,1.9
				c1-0.2,0.4-1.9-0.4-2.3c-0.6-0.3-2.7-3.8-3.3-4.8c-0.1-0.1-0.2-0.1-0.2,0c-0.2,0.6-1.9,1.9-3.5,1.7c-2.1-0.2-2.9-1-8.7-18.7
				L124.6,211.3z"/>
			<path class="st30" d="M124,230.6L124,230.6c-0.5,0-0.8-0.4-0.8-0.8v-12.5h1.2v12.9C124.4,230.4,124.2,230.6,124,230.6z"/>
		</g>
		<path class="st16" d="M109.5,219.1c-1,10.8-2.2,19.6,0.3,22.3c1.8,2,5.7,4,7.1,1c0.5-1.1,0.1-5.1,0-7c0-4.3-1.2-10.1-0.8-18.1
			C115.5,213.8,109.5,219.1,109.5,219.1z"/>
		<path class="st30" d="M109.6,219.1c0,0-1,15.2,0.2,19.9c0.9,3.4,4.9,4,6.6,1.5c0.8-1.2,0.4-3.9,0.5-6c0.2-0.9,0.6,4,0.8,6.5
			c0.1,0.9,0,1.8-0.3,2.7l-1.3,5.2c-0.2,0.9-1,1.5-1.9,1.5h-0.9c-0.7,0-1.4-0.4-1.7-1.1l-2.6-5c-1-1.9-1.4-3.9-1.3-6
			c0.2-3.2,1.4-7.4-0.4-12C106.4,224.5,108.3,219.4,109.6,219.1z"/>
		<path class="st29" d="M124.3,211c0.3,2.3,8.3,3.1,8.6,0.3c0-14.3,3.8-43.4,3.2-45.6c11.2-42.4,1.1-69.4,1.1-69.4
			c-3-1.1-13.1-1.8-13.1-1.8s-5.5,10.3-5.3,24.1c0.3,13.9,3.7,44.3,3.7,44.3C120.7,173.9,125.9,196.2,124.3,211z"/>
		<path class="st31" d="M137.2,96.2c-3-1.1-13.1-1.8-13.1-1.8s-0.3,0.6-0.8,1.7c3.2,0.3,8.7,0.8,10.8,1.6c0,0,10.1,27-1.1,69.4
			c0.6,2.2-3.1,31.3-3.2,45.6c0,0.1-0.1,0.2-0.1,0.3c1.6-0.1,3.1-0.6,3.2-1.8c0-14.3,3.8-43.4,3.2-45.6
			C147.3,123.2,137.2,96.2,137.2,96.2z"/>
		<path class="st29" d="M105.9,100.8c-4.1,2.6-6.3,9.2-5.7,16.7c1,11.6,13,35.7,10.6,46.5c-5.9,17.5,0.9,40.2-1.6,55.6
			c1.7,5,6.9,5,7.2,1.1c0,0,4.7-31,7.9-56.6c1-29.4,5.8-31.7,1.2-60.6C124.7,98.5,105.9,100.8,105.9,100.8z"/>
		<path class="st32" d="M124.4,125.8l1.1-22.3c0,0,0-0.1,0-0.1c-0.6-3.8-12.2-3.3-17.3-2.9c-2,4-5.1,7.7-7.8,10.4
			c-0.3,2-0.4,4.2-0.2,6.5c0,0.5,0.1,1.1,0.2,1.7C113.1,128.7,124.4,125.8,124.4,125.8z"/>
		<path class="st31" d="M125.5,103.4c-0.3-1.9-3.3-2.7-6.9-3c1.5,0.5,2.5,1.2,2.7,2.4c4.5,29.6-0.3,31.9-1.2,62
			c-3.2,26.1-7.8,57.9-7.8,57.9c0,0.2,0,0.3-0.1,0.5c1.9,0.8,4-0.1,4.1-2.6c0,0,4.7-31,7.9-56.6C125.2,134.6,130,132.3,125.5,103.4z
			"/>
		<path class="st32" d="M137.2,96.2c-3-1.1-13.1-1.8-13.1-1.8s-1.3,2.4-2.6,6.3c-5.7-1.2-15.7,0-15.7,0c-0.2,0.2-0.5,0.3-0.7,0.5
			c-1.2,4.4-2.8,8.6-4.5,11.6c4,5.1,19.7,7.6,26.1,7.1c6.9-0.6,11.6-3.2,13.9-6.2C139.5,102.5,137.2,96.2,137.2,96.2z"/>
		<path class="st33" d="M115.2,40.8c-1.5,0.5-5.9,2.1-9.6,4c-3.8,2-6.2,5.9-6.1,10.3c0.1,8,3.4,16.6,8.3,24.3
			c6,10.1-0.3,21.7-4.9,29.5c3.6,4.5,17.5,6.8,23.2,6.3c10.3-0.9,15-6.6,13.8-11.2c0,0-4.3-19.4-4.6-25.5
			c-0.3-5.2,0.7-10.7,1.5-13.1c3.4-0.7,6.6-5.4,2.2-14.4c-0.2-2.8-2.4-11-10.1-12.4c-6.3,1.6-10.7,1.6-12.5,2
			C115.9,40.6,115.5,40.7,115.2,40.8z"/>
		<path class="st34" d="M135.2,78.4c-0.3-5.2,0.7-10.7,1.5-13.1c1.2-0.2,2.5-1,3.3-2.2c0.2-0.9,0.4-1.9,0.4-2.9
			c0.1-2.4-0.3-5.2-0.9-8c-0.2-0.4-0.4-0.8-0.6-1.3c-0.2-2.8-2.4-11-10.1-12.4c-0.6,0.2-1.2,0.3-1.7,0.4l2.1,34.4l6.2,39.1
			c3.7-2.3,5.2-5.6,4.5-8.4c0,0-1.3-5.8-2.5-12c-0.9-4.1-1.6-8-1.9-11C135.3,79.9,135.3,79.1,135.2,78.4z"/>
		<polygon class="st16" points="114.5,42.7 126.2,55 126.2,44 117.8,42.7 		"/>
		<path class="st35" d="M131,73.2l9,38.9c0,0,5.9-0.4,6.4-3.3c0,0-8.8-23.3-8.9-31c-0.1-7.7,4-12.2,3.7-18.5
			c-0.3-7.2-4.6-18.1-9.3-21.5c-4.5-3.3-5.8-0.2-5.8-0.2L131,73.2z"/>
		<path class="st36" d="M137.6,77.8c-0.1-7.7,4-12.2,3.7-18.5c-0.3-7.2-4.6-18.1-9.3-21.5c-3.7-2.7-5.2-1.1-5.6-0.4
			c0.9-0.1,2.2,0.1,4,1.5c4.8,3.4,9.1,14.3,9.3,21.5c0.2,6.3-3.8,10.7-3.7,18.5c0.1,7.7,8.9,31,8.9,31c-0.1,0.5-0.4,1-0.7,1.3
			c1.2-0.5,2.1-1.2,2.3-2.3C146.4,108.8,137.7,85.5,137.6,77.8z"/>
		<path class="st29" d="M129.5,36.8c0,0,0,4.7,0,6.9l3.2,0.5c0,0,0.4,26.4-1.7,29.1c-4.7-13-2.7-32.6-5.5-33.6
			C125.9,38.8,129.5,36.8,129.5,36.8z"/>
		<g>
			<path class="st16" d="M115.3,31.4c0,0,0.5,5.5-0.9,10.9c2.3,3.7,10.5,5.6,12,1.4c0,0-0.4-3.8,1.2-6.4
				C129.1,34.6,115.3,31.4,115.3,31.4z"/>
			<path class="st37" d="M115.3,31.4c0,0,0.1,1.7,0.1,4c0.8,0.8,1.3,1.5,1.3,1.5c2.9,3.9,6.3,5.6,9.7,6.3c-0.1-1.1,0-3.8,1.2-5.9
				C129.1,34.6,115.3,31.4,115.3,31.4z"/>
			<path class="st16" d="M131.6,11.7c0,0,3.1,5.4,3.1,11.2c-0.2,0.8,1.1,2.3,0.8,5.5c-0.2,2.3-0.7,7.1-0.9,9.5
				c-0.1,0.9-0.8,1.6-1.6,1.8c-4.7,0.8-12.2,1.3-17.7-6.2c0,0-2.6-3.1-3.9-3.5c-1.2-0.4-6-6.5-6-11.5c0-5.3,2.9-13.3,13.7-13.3
				C127.7,5.2,131.6,11.7,131.6,11.7z"/>
			<g>
				<path class="st17" d="M134.7,22.8c0-5.8-3.1-11.2-3.1-11.2s-1.5-2.5-4.7-4.3c1.8,1.5,2.7,2.9,2.7,2.9s4.5,5.7,4.5,11.5
					c-0.2,0.8,1.1,1.8,0.7,5.1c-0.2,2.3-1.5,7.4-1.8,9.9c-0.1,0.9-0.8,1.6-1.6,1.8c-3.4,0.6-8.8,0.8-13.3-1.8c5,4.2,10.9,3.7,14.8,3
					c0.9-0.2,1.6-0.9,1.6-1.8c0.2-2.4,0.7-7.2,0.9-9.5C135.8,25.1,134.5,23.6,134.7,22.8z"/>
				<path class="st38" d="M110.2,29.2c0.3,0.3,0.6,0.6,0.8,0.7C110.7,29.6,110.5,29.4,110.2,29.2z"/>
			</g>
		</g>
		<path class="st39" d="M114.9,32.6c0,0.4-0.3,0.8-0.8,0.8c-0.4,0-0.8-0.3-0.8-0.8c0-0.4,0.3-0.8,0.8-0.8
			C114.5,31.8,114.9,32.1,114.9,32.6z"/>
		<path class="st35" d="M125.4,75.9l-2.3,45.5c0,0-14.1,3.6-28.6-10.7c0,0,14.4-11.6,14.3-21.7c-0.2-10.1-6.5-19.3-8-22.2
			c-1.5-3,0-16.5,0.5-18.9c0.4-2.4,7.4-5.3,13.6-7.2c0,0-0.7,0.9-0.5,1.7c0.3,1.2,0.5,4.2,0.5,4.2l4.3,14.8l4.3,8.4L125.4,75.9z"/>
		<g>
			<path class="st40" d="M100.8,66.7c1.4,2.8,7,10.9,7.9,20.2c0.9-7.7,3-24.9,3.2-29.3c0.2-5.6-2.5-9.9-6.5-10.7
				c-1.5-0.3-2.8-0.3-3.7,0.1c-0.2,0.3-0.3,0.5-0.4,0.8C100.9,50.2,99.4,63.7,100.8,66.7z"/>
		</g>
		<g>
			<g>
				<path class="st16" d="M104,111.2c0,0,0.4,11.8,1.7,17.8c-0.9,1.3-5.8,3.5-6.1,2c-1.4-10.2-3.6-19.7-3.6-19.7L104,111.2z"/>
				<path class="st16" d="M99.6,131c0,0-0.3,6.6-0.2,7.1c0.1,0.4,4.4,5.4,7,5.1c2.5-0.2,3.7-2.2,3.7-2.2s-0.3-3.3-0.1-5.3
					c0.2-2-3.1-2.1-4.1-6.2c-1-4.1-6.1,0-6.1,0L99.6,131z"/>
				<g>
					<g>
						<path class="st41" d="M110,139.2c-0.9-0.2-1.7-0.7-2.4-1.3c-0.6-0.7-1.1-1.5-1.2-2.4c0.3,0.4,0.5,0.7,0.8,1.1
							c0.3,0.3,0.6,0.7,0.9,0.9C108.6,138.1,109.3,138.6,110,139.2z"/>
					</g>
					<g>
						<path class="st41" d="M106,136.5l0.2-0.6l0.2-0.5c0.2-0.4,0.3-0.7,0.5-1.1c0.2,0.4,0.2,0.9,0,1.3c-0.1,0.2-0.2,0.4-0.4,0.6
							C106.4,136.3,106.3,136.4,106,136.5z"/>
					</g>
				</g>
			</g>
			<g>
				<path class="st29" d="M93.7,90.3c0-0.2,0-0.4,0-0.5c0.4-3.2,4.9-37.3,5.7-40c1.1-3.5,3.1-4.2,6.4-3.1c3.9,1.3,6.1,5.8,5.2,11.4
					c-0.9,5.6-7.2,30.9-7.5,32.4c0,0,0.8,4.1,1.2,23.7c-0.8,3.5-7.6,0.1-9.1,0.6C94.6,109.2,93.7,90.3,93.7,90.3z"/>
			</g>
			<path class="st42" d="M106.2,46.8c1.8,2.3,2.6,5.8,2,9.8c-0.9,6-7.2,33.3-7.5,34.8c0,0,0.8,4.2,1.2,24.3c1.4,0.1,2.6-0.3,2.9-1.6
				c-0.4-19.6-1.2-23.7-1.2-23.7c0.3-1.5,6.6-26.8,7.5-32.4C111.9,52.6,109.8,48.2,106.2,46.8z"/>
		</g>
		<path class="st29" d="M110.6,47.8l4.7,2l-1.9,5.6l12,20.6c2.4-14.7-13.5-31.7-10.5-35.2C110.8,40.5,110.6,47.8,110.6,47.8z"/>
		<path class="st26" d="M133.7,15.7c-3.4-0.9-11.7,10.9-18.4,12.6c0,0-0.9-2.1-2.6-1.5l2.6,6c0,0,0.3,2.2,0,3.9
			c-0.1-1.1-9.2-6.7-10.4-18.3c-1.3-12.3,12.7-14.7,17.7-13.8C129.5,5.9,134.4,12.2,133.7,15.7z"/>
		<path class="st27" d="M115.3,28.4c1.6-5.6-2.2-10.9,5.7-17.7C114.4,16.4,118.7,25.4,115.3,28.4z"/>
		<path class="st33" d="M97.4,112.6c0,0.4-0.3,0.7-0.7,0.7c-0.4,0-0.7-0.3-0.7-0.7c0-0.4,0.3-0.7,0.7-0.7
			C97.1,111.9,97.4,112.2,97.4,112.6z"/>
		<g>
			<path class="st18" d="M113.6,27.1c-2-2.1-4.6-0.3-2.9,2.2c0.4,0.5,1.1,0.8,1.4,1.3c0.2,0.3,0.3,0.5,0.5,0.7
				c0.5,0.4,0.9,0.9,1.4,1.3c0.5,0.2,1,0,1.4-0.5L113.6,27.1z"/>
			<path class="st16" d="M115.2,27.2c-1.3-2.6-4.2-1.7-3.4,1.2c0.2,0.6,0.8,1.2,0.9,1.7c0.6,2.8,1.6,3,2.5,2.5"/>
		</g>
	</g>
	<g>
		<polygon class="st43" points="392.1,219.1 393.1,206.6 394.7,199.8 406.9,205 406.3,216.6 		"/>
		<g>
			<path class="st44" d="M426.8,286.4c0,0,1.3,6,1.1,6.8l-2.1,10.1c-0.1,0.4-0.6,0.5-0.9,0.3L422,301l0.9-14.6h1.6H426.8z"/>
			<path class="st28" d="M427,297.7c-0.6,0-1.3-3.5-1.3-4.8C425.7,292.9,425.4,299.2,427,297.7z"/>
		</g>
		<g>
			<path class="st44" d="M422.9,272.3c0-2.3-2.8-16.9-2.8-16.9c0-1.5,1.4-28.5,1.3-34.1c-0.1-5.6-4.2-10.2-7.2-10.3
				c-3.8-0.1-5.5,3.4-5.9,7c-0.3,2.8,1.5,34.4,1.7,37.7c0,0.2,0,0.4,0.1,0.5l6.1,18.4l3.3-1.1l-3.3,3.1c0,0,3.8,9,7.1,18.8
				c0.5,1.5,3-7.5,3.6-8.9C425,282.1,423.5,275.4,422.9,272.3z"/>
			<path class="st45" d="M413.9,210.6c3.7-0.8,6,2.3,7.1,5.8c0.3,1.1,2,5.9,2.9,12.8c-5.7,4.5-11,3-13.5,1c-0.8-3.7-1.4-6.7-1.7-8.2
				C407.8,216.4,411,211.2,413.9,210.6z"/>
		</g>
		<path class="st46" d="M391.4,264.3c3.1,2.2,23.7,2.5,26.3-6.9c-0.2-1.7-0.4-3.4-0.5-4.8c-0.3-5.2,0.7-10.7,1.5-13.2
			c3.5-0.7,7.2-5.4,2.2-14.4c-0.2-2.8-0.3-12.5-8-13.9c-6.3,1.6-12.8,3.1-14.7,3.5c-0.4,0.1-0.7,0.2-1.1,0.3c-1.5,0.5-5.9,2.1-9.7,4
			c-3.9,2-6.2,6-6.1,10.3c0.1,8,3.4,16.6,8.3,24.3C391.3,256.1,391.9,260,391.4,264.3z"/>
		<path class="st47" d="M420.9,225c-0.2-2.8-0.3-12.5-8-13.9c-0.6,0.2-1.3,0.3-1.9,0.5c2.9,1.8,8.2,5.9,9.6,13.6
			c0.8,2.1,1.6,9.7-2.1,13.9c0,0-4.2,3.6-17.6,4.5c0,0,10,1.2,14.5,0c0,0-0.5,10.1,0.6,16.9c0.8-0.9,1.5-1.9,1.8-3.1
			c-0.2-1.7-0.4-3.4-0.5-4.8c-0.3-5.2,0.7-10.7,1.5-13.2C422.1,238.8,425.9,234,420.9,225z"/>
		<path class="st44" d="M397.3,215.7c-2.3,1.1-2.9,5.2-0.8,6.7c2,1.5,6.7,2.6,11.4,0c3.3-1.8,2.7-5.4,1.6-6.7
			C408.4,214.5,402.8,213,397.3,215.7z"/>
		<g>
			<g>
				<path class="st44" d="M405.5,390.7c2.7-15-3.5-39.9-1.3-52c0,0-3.6-31.1-3.8-45.2c-0.3-14.2,5.4-24.6,5.4-24.6
					s10.4,0.7,13.4,1.8c0,0,10.3,27.6-1.1,70.9c0.7,2.5-4.9,37.8-3.8,50.2c0.7,4.7,4.5,15,4.6,16.7c0,1.8-4.5,2.6-4.9,2.4
					c-0.4-0.1-2.5-0.4-2.5-0.6c0-0.3-4.5-14.1-4.5-14.1s-1.1-4-1.1-4.2C405.6,392.1,405.5,390.7,405.5,390.7z"/>
				<path class="st48" d="M419.1,270.7c-0.9-0.3-2.6-0.6-4.4-0.9c1.7,11.9,4.9,42.1-0.5,64.5c-0.3,2.2-0.2,5.2-0.2,6.1
					c0,0.9,0.1,4-2.8,4.7c0,0,1,1.1,3,0.9c0,0-2.4,36-2.4,38.8c0.1,2.9-1.7,5.5,1.3,11.7c2.9,6.1,2.8,12.2,5.1,12.9
					c0.3-0.3,0.4-0.6,0.4-0.9c0-1.8-3.9-12.1-4.6-16.7c-1.1-12.4,4.5-47.8,3.8-50.2C429.4,298.3,419.1,270.7,419.1,270.7z"/>
				<g>
					<path class="st49" d="M405.3,407.6L405.3,407.6c-0.5,0-0.8-0.4-0.8-0.8V394h1.2v13.2C405.7,407.4,405.5,407.6,405.3,407.6z"/>
					<path class="st50" d="M405.9,387.8c0,0-2.4,0.4-2.4,5.2c0,4.8,2.6,3.9,3.2,6.1c0.6,2.2,2.7,11.9,6.2,13c3.6,1.1,6.7,2.4,9.3,2
						c1.1-0.2,0.4-1.9-0.4-2.3c-0.6-0.3-2.8-3.9-3.4-4.9c-0.1-0.1-0.2-0.1-0.3,0c-0.2,0.6-1.9,1.9-3.6,1.7c-2.2-0.2-3-1.1-8.9-19.1
						L405.9,387.8z"/>
					<path class="st49" d="M422.5,412.9c-2.5,0.4-5.7-0.8-9.3-2c-3.6-1.1-5.6-10.8-6.2-13c-0.6-2.2-3.2-1.3-3.2-6.1
						c0-0.6,0-1.2,0.1-1.7c-0.2,0.7-0.4,1.6-0.4,2.8c0,4.8,2.6,3.9,3.2,6.1c0.6,2.2,2.7,11.9,6.2,13c3.6,1.1,6.7,2.4,9.3,2
						c0.6-0.1,0.6-0.7,0.4-1.2C422.6,412.8,422.6,412.9,422.5,412.9z"/>
				</g>
				<path class="st44" d="M405.6,339.5c1-30.1,5.9-32.3,1.3-61.9c-0.8-5-17.7-4.3-17.7-4.3c-4.1,2.6-6.6,11-6,18.6
					c1,11.8,12.1,36.2,9.6,47.2c-6,17.9-0.1,41.3-2.7,57c0.1,0.3-0.2,0.8-0.1,1c0,10.5-1.6,18.7,0.8,21.3c1.8,2,5.8,4.1,7.3,1
					c0.5-1.2,0.1-5.2,0-7.1c0-3.6-0.8-8.2-0.9-14.2c0.1-0.3,0.1-0.6,0.2-0.9C397.5,397.3,402.3,365.6,405.6,339.5z"/>
				<path class="st48" d="M405.6,339.5c1-30.1,5.9-32.3,1.3-61.9c-0.4-2.4-5.1-3.1-9.9-3.2c1.7,11.1,5.7,40.6,3.4,62.6
					c0.3,2.5,1,2.3,0.7,3.4c-0.3,1.1-0.2,2.7-2.8,2.9c-2.6,0.2,0.2,3.1,2.9,2.3c0,0-4.3,47-5.5,51.6c-1.3,4.5,2.7,16.8,1.4,19.6
					c-1.2,2.7-2.4,2.1-2.7,3.1c-0.1,0.3-0.1,0.7,0,1.1c1.5,0.5,3.1,0.4,3.8-1.3c0.5-1.2,0.1-5.2,0-7.1c0-3.6-0.8-8.2-0.9-14.2
					c0.1-0.3,0.1-0.6,0.2-0.9C397.5,397.3,402.3,365.6,405.6,339.5z"/>
				<path class="st50" d="M390.2,395.9c0,0-0.6,15.5,0.6,20.2c0.9,3.4,5,4.1,6.8,1.6c0.9-1.2,0.4-5,0.5-7.1c0,0,0.6,5.1,0.8,7.7
					c0.1,0.9,0,1.9-0.3,2.8l-1.4,5.3c-0.2,0.9-1,1.5-1.9,1.5h-0.9c-0.7,0-1.4-0.4-1.8-1.1l-2.6-5.1c-1-1.9-1.4-4-1.3-6.2
					c0.2-3.3,1.4-7.6-0.4-12.2C387.4,401.3,388.9,396.1,390.2,395.9z"/>
				<g>
					<path class="st49" d="M396.1,426.4h-0.9c-0.7,0-1.4-0.4-1.8-1.1l-2.6-5.1c-1-1.9-1.4-4-1.3-6.2c0.2-3.3,1.4-7.6-0.4-12.2
						c-0.6-1.2-0.2-3.5,0.6-5.3c-1.1,1.6-2.1,5.1-1.3,6.6c1.8,4.6,0.6,8.9,0.4,12.2c-0.1,2.1,0.3,4.3,1.3,6.2l2.6,5.1
						c0.3,0.7,1,1.1,1.8,1.1h0.9c0.9,0,1.7-0.6,1.9-1.5l0.1-0.4C397,426.2,396.6,426.4,396.1,426.4z"/>
				</g>
			</g>
			<path class="st51" d="M419.7,270.2c0-0.5,0-0.9-0.2-1.4c0,0-1.2-5.7-1.9-11.1c-2.6,9.3-23.2,9-26.3,6.9c-0.2,1.7-0.6,3.4-1.2,5.2
				c-0.9,2.6-2.6,4.8-4.5,6.8c-2.1,2.2-3.8,6-3.8,12.6c0,9.8,11.9,39.4,10.5,47.7c0.2,0.8,1.2,1.4,2.6,1.8c0.4-3,1-8.4,0.4-11.3
				c0,0,2.2,5.9,2.1,11.7c4.1,0.4,10-0.4,14.5-2.5c6.3-3,9.4-9.1,9.5-10C421.6,326.5,428.6,300,419.7,270.2z"/>
			<g>
				<path class="st52" d="M392.4,336.1c0,0.2,0,0.5-0.1,0.7c0.1,0.2,0.2,0.4,0.4,0.6C392.6,337,392.5,336.5,392.4,336.1z"/>
				<path class="st53" d="M419.7,270.2c0-0.5,0-0.9-0.2-1.4c0,0-1.2-5.7-1.9-11.1c-0.5,1.9-1.8,3.4-3.5,4.5c0.6,4,1.2,7.3,1.2,7.3
					c0.1,0.5,0.2,1,0.2,1.5c8.9,31.8,1.9,60.1,1.9,60.1c-0.1,0.3-0.5,1.4-1.3,2.7c3.5-3,5.2-6.6,5.4-7.3
					C421.6,326.5,428.6,300,419.7,270.2z"/>
			</g>
		</g>
		<g>
			<path class="st44" d="M397.3,206.2c0,0,0.5,5.4-0.8,10.8c2.3,3.6,10.3,5.5,11.8,1.3c0,0-0.4-3.7,1.1-6.3
				C410.9,209.3,397.3,206.2,397.3,206.2z"/>
			<path class="st54" d="M397.3,206.2c0,0,0.1,1.6,0.1,4c0.7,0.8,1.3,1.4,1.3,1.4c2.9,3.9,6.3,5.6,9.5,6.2c0-1.1,0-3.8,1.2-5.9
				C410.9,209.3,397.3,206.2,397.3,206.2z"/>
			<path class="st44" d="M413.4,186.8c0,0,3,5.3,3,11c-0.2,0.8,1.1,2.2,0.8,5.4c-0.2,2.3-0.7,7-0.9,9.4c-0.1,0.9-0.7,1.6-1.6,1.8
				c-4.6,0.8-12.1,1.3-17.5-6.1c0,0-2.6-3.1-3.8-3.4c-1.2-0.4-6-6.4-6-11.3c0-5.2,2.9-13.1,13.5-13.1
				C409.6,180.4,413.4,186.8,413.4,186.8z"/>
			<g>
				<path class="st55" d="M416.5,197.8c0-5.7-3-11-3-11s-1.5-2.4-4.6-4.3c1.8,1.5,2.6,2.9,2.6,2.9s4.4,5.6,4.4,11.3
					c-0.2,0.8,1,1.8,0.7,5c-0.2,2.3-1.5,7.3-1.8,9.7c-0.1,0.9-0.7,1.6-1.6,1.8c-3.4,0.6-8.7,0.8-13.2-1.8c5,4.1,10.7,3.7,14.6,3
					c0.9-0.2,1.5-0.9,1.6-1.8c0.2-2.4,0.7-7.1,0.9-9.4C417.5,200,416.2,198.5,416.5,197.8z"/>
				<path class="st38" d="M392.3,204c0.3,0.3,0.6,0.6,0.8,0.7C392.8,204.5,392.6,204.2,392.3,204z"/>
			</g>
		</g>
		<g>
			<path class="st44" d="M391.9,310c0.2-2-3.1-2.1-4.1-6.2c0-0.2-0.1-0.4-0.2-0.5l0,0c-1.5-9.7-0.9-33.8-1.5-40.3
				c2.6-9.9,2-13.1,4.2-22.9c-2.5,2-7.7,1.9-11-1.8c-2.1,9.3-1.7,20.1-1.9,22c0,0.2,0,0.4,0,0.5l4.1,44.4c0,0-0.3,6.6-0.2,7.1
				c0.1,0.4,4.4,5.4,7,5.2c2.5-0.2,3.7-2.2,3.7-2.2S391.7,312,391.9,310z"/>
			<g>
				<path class="st56" d="M384.5,260.8c0.6,6.5,0,30.5,1.5,40.3l0,0c0.1,0.2,0.1,0.3,0.2,0.5c0.4,1.7,1.3,2.7,2.1,3.5
					c-0.2-0.4-0.3-0.8-0.5-1.3c0-0.2-0.1-0.4-0.2-0.5l0,0c-1.5-9.7-0.9-33.8-1.5-40.3c2.6-9.9,2-13.1,4.2-22.9
					c-0.6,0.5-1.4,0.8-2.3,1C386.6,248.6,386.8,252.1,384.5,260.8z"/>
				<path class="st56" d="M391.9,310c0.1-1-0.7-1.5-1.6-2.3c0,0.1,0,0.1,0,0.2c-0.2,2,0.1,5.3,0.1,5.3s-1.2,2-3.7,2.2
					c-1.6,0.1-3.9-1.8-5.4-3.3c0,0.1,0,0.3,0,0.3c0.1,0.4,4.4,5.4,7,5.2c2.5-0.2,3.7-2.2,3.7-2.2S391.7,312,391.9,310z"/>
			</g>
			<g>
				<g>
					<path class="st41" d="M391.9,313.5c-0.9-0.2-1.7-0.7-2.4-1.4c-0.6-0.7-1.1-1.5-1.2-2.4c0.3,0.4,0.5,0.7,0.8,1.1
						c0.3,0.3,0.6,0.7,0.9,0.9C390.6,312.4,391.2,312.9,391.9,313.5z"/>
				</g>
				<g>
					<path class="st41" d="M387.9,310.7l0.2-0.6l0.2-0.5c0.2-0.4,0.3-0.7,0.5-1.2c0.2,0.4,0.2,0.9,0,1.4c-0.1,0.2-0.2,0.4-0.4,0.6
						C388.4,310.6,388.2,310.7,387.9,310.7z"/>
				</g>
			</g>
			<path class="st45" d="M387.8,220.7c-3.7-0.8-6,2.3-7.1,5.8c-0.3,1.1-2,5.9-2.9,12.8c5.7,4.5,11,3,13.5,1c0.8-3.7,1.4-6.7,1.7-8.2
				C393.9,226.6,390.7,221.4,387.8,220.7z"/>
			<path class="st57" d="M390.4,222.4c1,2.7,1.4,6.2,0.7,9.7c-0.4,1.8-1.3,5.3-2.4,9.6c1-0.4,1.9-0.9,2.6-1.4
				c0.8-3.7,1.4-6.7,1.7-8.2C393.6,228.2,392.2,224.5,390.4,222.4z"/>
		</g>
		<g>
			<path class="st18" d="M395.6,201.1c-2-2.1-4.6-0.3-2.9,2.2c0.4,0.5,1.1,0.9,1.4,1.3c0.2,0.3,0.3,0.5,0.5,0.7
				c0.5,0.4,1,0.9,1.4,1.3c0.5,0.2,1,0,1.4-0.5L395.6,201.1z"/>
			<path class="st44" d="M397.1,201.2c-1.3-2.6-4.3-1.7-3.5,1.2c0.2,0.6,0.8,1.2,0.9,1.7c0.6,2.8,1.6,3.1,2.6,2.5"/>
		</g>
		<path class="st39" d="M396.8,206.6c0,0.4-0.3,0.8-0.8,0.8c-0.4,0-0.8-0.3-0.8-0.8c0-0.4,0.3-0.8,0.8-0.8
			C396.5,205.9,396.8,206.2,396.8,206.6z"/>
		<path class="st58" d="M404.2,179.7c-7.6-1.2-13.8,2.1-16.7,8c-3.5,7.1-0.7,31.5-0.7,31.5c4.1-2,7.2-3.2,7.2-3.2
			c0.5-10.6,4.2-13.3,4.5-22.7l0.1,6.4l2.4,0.8c0.6,0,1.2-0.1,1.8-0.1l-0.1-4.3c0,0,0.5,2.9,0.6,4.2c0.2,0,0.3,0,0.5-0.1
			c0.8-0.1,1.5-0.3,2.2-0.5c-0.1-0.6-0.2-1.6-0.3-1.9c0,0,0.5,1,0.7,1.8c2.3-0.7,4.4-1.5,6-2.4c0-0.9-0.1-2.7-0.4-3.6
			c0,0,0.7,1.9,0.9,3.3c0.5-0.3,1-0.6,1.5-0.9c0.1-0.7,0.1-1.8-0.1-2.1c0,0,0.4,0.8,0.7,1.6c0.9-0.6,1.5-1.2,1.6-1.4
			C416.9,188,411.8,180.9,404.2,179.7z"/>
		<g>
			<path class="st58" d="M405.9,198.1l0,0.1c0,0,0,0,0,0.1C405.9,198.2,405.9,198.1,405.9,198.1z"/>
			<path class="st59" d="M389.9,188.6c3.1-5.9,9.4-9.2,17-8.2c-0.9-0.3-1.7-0.6-2.7-0.7c-7.6-1.2-13.8,2.1-16.7,8
				c-3.5,7.1-0.7,31.5-0.7,31.5c0.4-0.2,0.8-0.4,1.2-0.6C387.5,211.1,386.9,194.4,389.9,188.6z"/>
			<path class="st58" d="M405.9,199.8C405.9,199.8,405.9,199.8,405.9,199.8c0.1-0.2,0-0.5,0-0.7L405.9,199.8z"/>
			<path class="st58" d="M401.5,195c-0.1,2.1-0.4,3.8-0.7,5.4l0.2,0.1c0.2,0,0.3,0,0.5,0L401.5,195z"/>
		</g>
		<path class="st60" d="M393,216.4c0.6-0.2,1-0.4,1-0.4c0.5-10.6,4.2-13.3,4.5-22.7c-1.3,3.7-3,8.3-3.7,12
			C394,208.6,393,214,393,216.4z"/>
		<path class="st61" d="M414.3,261.1c-0.8,0.5-1.7,1-2.8,1.4c-7.6,2.8-18.3,1.9-20.1,0.8l-0.3,2.1c0.9,0.6,3.8,1,8.1,1
			c4.3,0,9.2-0.6,13-1.9c1-0.3,1.8-0.7,2.5-1.1L414.3,261.1z"/>
		<path class="st62" d="M414.7,263.2c2.4-1.3,3.4-2.7,3.6-3.3l-0.5-3c-0.5,1.6-1.6,3-3.4,4.2L414.7,263.2z"/>
	</g>
	<g>
		<path class="st2" d="M221.4,341.7c0,0,0.7-0.2,1,0.1c0.2,0.3-0.9,1.7-0.9,1.7s-0.2-0.8-0.2-0.9
			C221.2,342.6,221.4,341.7,221.4,341.7z"/>
		<g>
			<path class="st5" d="M277.5,222.9c-1.4-0.2-4.5-3.7-4.5-3.7c-2.1-1.5-3.5-1.6-3.5-1.6c-0.1-0.1-6.1-7.1-9.9-12
				c-6.2-7-12.1-12.7-12.1-12.7l-10.4-31.4c-0.8-2.5-2.1-5.7-4.6-5c-2.5,0.8-4,1.5-3.2,4l10.8,35.7l0,0.2c0.1,0.4,0.3,0.7,0.5,1
				l25.3,25.2c0,2.1,0.5,2.4,4,8.2c3.5,5.8,6,2.1,6,1.1c-0.4-3.3-1-7.2-1.2-8.4C276.6,225.3,278.8,223.1,277.5,222.9z"/>
			<g>
				<path class="st63" d="M253.5,210.9c5.2-1.4,6.2-5.6,6.2-5.6l-11.6-12.7c0,0-4.8-24.8-9.8-33.2c-4-6.7-10.3-5.9-10.3-5.9
					c-3.5,1.2-2.4,4.9-1.3,8.4l13,35.7L253.5,210.9z"/>
			</g>
			<path class="st64" d="M236.8,160.7c5.3,8.8,10.7,34.7,10.7,34.7l10.9,12.3c0.9-1.3,1.2-2.4,1.2-2.4l-11.6-12.7
				c0,0-4.8-24.8-9.8-33.2c-4-6.7-10.3-5.9-10.3-5.9c-0.6,0.2-1,0.4-1.3,0.8C228.1,154.2,233.2,154.6,236.8,160.7z"/>
			<path class="st65" d="M241.9,199.8c-0.4-1.9-0.6-3.3-0.5-3.9c0.3-4.3-1.4-18.1-2.1-25.6c-0.6-5.7-4.3-13.9-10.2-16.8
				c-0.7,0-1.2,0-1.2,0c-1.9,0.6-2.5,2-2.4,3.7c1,2.3,1.8,4.4,1.8,4.4l1.4,5.3l0.3,1.6l10.6,29.1L241.9,199.8z"/>
			<path class="st66" d="M257.9,203.4c0.5-0.2,1.7,1.7,2.5,2.5c0.2,0.2,0.3,0.5,0.1,0.7c-1,1.7-5.6,6.3-7.1,4.8
				c-0.5-0.6-2.3-1.8-1.9-2.4l0.5,0.4c0.6,0.3,6.7-4.2,6.2-5.6L257.9,203.4z"/>
			<g>
				<path class="st67" d="M252.4,210.4c1.8-0.9,5.9-4.2,5.5-5.4l0,0c-1.3,1.9-5.4,4.8-5.9,4.5l-0.5-0.4
					C251.3,209.3,251.8,209.9,252.4,210.4z"/>
				<path class="st67" d="M260.4,205.8c-0.8-0.7-2-2.7-2.5-2.5l0.3,0.5c0.1,0.2,0,0.5-0.2,0.8c0.6,0.5,1.5,1.7,2,2.3
					c0,0,0.1,0.1,0.1,0.1c0.1-0.2,0.3-0.4,0.4-0.5C260.7,206.3,260.6,206,260.4,205.8z"/>
			</g>
		</g>
		<g>
			<g>
				<path class="st0" d="M200.5,349.4c0,0,0.3-0.6,1.2-1.7c0.9-1.2,7.6-0.5,7.6-0.5s0.7,1.6,0.8,1.7c0.1,0.1,0.6,5,0.6,5l-7.4,1.7
					l-2.5-2.6L200.5,349.4z"/>
				<path class="st1" d="M210.1,348.8c-0.1-0.1-0.8-1.7-0.8-1.7s-6.7-0.7-7.6,0.5c-0.9,1.2-1.2,1.7-1.2,1.7l0,0
					c1.7,2.1,7.7,2.7,9.7,0.3C210.1,349.2,210.1,348.9,210.1,348.8z"/>
				<g>
					<path class="st2" d="M200.4,350.1l-0.2,6.5l0.9,0.7v5.7c0,0,0.5,5.3,1.2,6.7c0.5,1,0.8,1.5,2.3,1.9c1.5,0.4,4.9,1,7.6-1.4
						c0,0,0.1-2.1-0.3-3.1c-0.3-0.6-6.1-0.5-6.1-0.5l-5.1-14.2L200.4,350.1z"/>
					<path class="st3" d="M210.1,347.2l-0.9-0.3c0,0,0.7,2.7,0.9,5.6c-0.8-0.1-4.2-0.2-8.5,0.7c-0.5-2.8-0.4-5.6-0.7-5.4
						c-1.7,2.9-0.1,4.4,0.1,7.7c0,1.9,0.5,11.1,1.2,13c0.9,1.8,3.4,2.2,4.6,2.5c2.1,0.4,5-1.1,5.2-2
						C213,368.1,211.2,353.4,210.1,347.2z"/>
					<path class="st4" d="M210.1,347.2l-0.4-0.1c1,6.3,2.4,19.7,1.7,20.5c-0.1,0.9-2.7,2.4-4.5,2c-1-0.2-3.2-0.6-4-2.4
						c-0.7-1.8-1.1-10.7-1.1-12.5c-0.1-2.7-1.3-4.2-0.6-6.3c0-0.3-0.1-0.5-0.2-0.4c-1.7,2.9-0.1,4.4,0.1,7.7c0,1.9,0.5,11.1,1.2,13
						c0.9,1.8,3.4,2.2,4.6,2.5c2.1,0.4,5-1.1,5.2-2C213,368.1,211.2,353.4,210.1,347.2z"/>
				</g>
				<path class="st2" d="M221.6,341.6c0,0,0.7-0.2,1,0.1c0.2,0.3-0.9,1.7-0.9,1.7s-0.2-0.8-0.2-0.9
					C221.4,342.5,221.6,341.6,221.6,341.6z"/>
				<path class="st0" d="M230.5,341.7v-6.8h-8.6v8.4l5.2,5.6l7.2-1.9c0,0-0.6-1.2-0.9-1.5C231.9,343.3,230.5,341.7,230.5,341.7z"/>
				<path class="st1" d="M230.6,341.9c-0.1-0.1-0.2-0.2-0.2-0.2v-6.8h-8.6v6.9C224.4,343.1,228.5,344.5,230.6,341.9z"/>
				<g>
					<path class="st2" d="M220.7,343.9c0,0.8,0,1.7,0,3.3c0,1.5,3.2,3.8,5.8,4.5c0.2,0,0.3-0.1,0.3-0.2l0-0.8
						c0.8,0.3,2.4,1.1,3.3,1.8c0.1,0.1,0.3,0.8,0.4,0.9c1.9,1.4,3.8,2.6,5.4,3.7c2.3,1.6,6.8-0.1,8-0.7c0.2-0.1,0.3-0.2,0.3-0.4
						v-0.6l-4.7,0.1l-8.1-4.7l-9.5-5.6l-0.1-0.9L220.7,343.9"/>
					<path class="st3" d="M243.9,354.6c-4.3-3-7.2-5.9-9.1-7.9c-1.1-2.5-2.4-3.8-2.4-3.8c-2.7,0-5.4,2-6.2,2.7
						c-2.3-1.3-4.6-3.4-4.5-4c-0.4,0.1-1,0.8-1,1.6c0,0.8,0,0.7,0,2.3c0,1.5,3.5,4,6.1,4.6c2.6,0.6,6.9,4,9.6,5.9
						c2.3,1.6,6.6,0.2,7.7-0.3c0.2-0.1,0.3-0.2,0.3-0.4C244.3,355,244.1,354.8,243.9,354.6z"/>
					<path class="st4" d="M243.9,354.6C243.9,354.6,243.9,354.6,243.9,354.6c-1.2,0.5-5.3,1.8-7.6,0.2c-2.7-1.9-7-5.3-9.6-5.9
						c-2.6-0.6-6.1-3.1-6.1-4.6c0,0.3,0,0.6,0,1.1c0,1.5,3.5,4,6.1,4.6c2.6,0.6,6.9,4,9.6,5.9c2.3,1.6,6.6,0.2,7.7-0.3
						c0.2-0.1,0.3-0.2,0.3-0.4C244.3,355,244.1,354.8,243.9,354.6z"/>
				</g>
				<g>
					<path class="st68" d="M216.7,208.4c-11.3,6.6-0.4,57.9,3.1,78c-1.4,5.8,0.6,14.4,0.9,25.3c0.4,12.2-0.5,27.9-0.5,27.9
						c1.9,1.2,8.8,4.8,11-0.1c0,0,2.7-36.9,2.8-48.6c4.5-33.5,3.2-61.6,3-69.4C235.9,215.9,226.5,202.7,216.7,208.4z"/>
					<path class="st69" d="M237.1,221.5c-1.1-5.5-10-18-19.5-13.5c8.5-1.5,15.9,9.4,17,14.3c0.3,7.8,1.5,35.9-3,69.4
						c-0.1,11.7-2.8,48.6-2.8,48.6c-0.3,0.7-0.8,1.3-1.3,1.7c1.6,0,3.1-0.7,3.9-2.5c0,0,2.7-36.9,2.8-48.6
						C238.6,257.4,237.3,229.2,237.1,221.5z"/>
					<path class="st70" d="M224,233.6c0,0-5.7-4.6-12.2-4.4c0.5,18.5,5.8,44.3,8.1,57.2c-1.4,5.8,0.6,14.4,0.9,25.3
						c0.4,12.2-0.5,27.9-0.5,27.9c0.6,0.4,1.9,1.1,3.3,1.6l-0.4-44.4C223.1,296.8,226.8,265.4,224,233.6z"/>
					<path class="st71" d="M223.8,233.8c0,0-1.2-1.1-3.1-2.3c-2.3-1.2-5.5-2.4-8.9-2.3c0.5,18.5,5.8,44.3,8.1,57.2
						c-0.5,2.1-0.6,4.6-0.4,7.4C220.8,285.2,224.4,259.8,223.8,233.8z"/>
				</g>
				<g>
					<path class="st68" d="M204.5,229.7c-11.3,6.6-4.5,47-2.5,67c-2.4,4.3-0.7,13.7-0.6,22.4c0.2,12.1-1.5,28-1.5,28
						c0.2,3.3,10.3,4.5,10.7-0.1l5.2-50.5c0,0,7.1-30.8,8-62.7C223.8,233.8,214.3,224,204.5,229.7z"/>
				</g>
				<path class="st69" d="M221.7,232c-1.6,32.5-8.7,63.1-8.7,63.1l-5.9,53.2c-0.1,0.7-0.4,1.3-0.8,1.8c2.2-0.1,4.1-1.1,4.3-3
					l5.2-50.5c0,0,7.1-30.8,8-62.7C223.8,233.8,223.1,233,221.7,232z"/>
				<path class="st72" d="M237.4,238.7c0-7.3-0.2-12.9-0.3-16.1c-0.1-0.7-0.2-1.4-0.3-2c-1.9-6-10.8-17.5-20.1-12.1
					c-3.9,2.3-5.2,9.8-5,19.5c-2.3-0.1-4.8,0.3-7.2,1.8c-3.6,2.1-5.4,7.6-6,14.8c3.8,2.4,11,2.1,17.4,1.5
					C222.9,245.3,233.6,242.5,237.4,238.7z"/>
			</g>
		</g>
		<g>
			<path class="st73" d="M238.4,232.6c0-6.6-3.5-21.5-3.8-33.5c-0.3-13.2,3.8-23.2-0.1-33.2c-1.8-4.8-4.4-16.2-11.3-13.5
				c-5.5,2.3-8.8,2.2-11.3,3.6c-7.1,7.8-13.6,5.6-17.6,12.9c-5.1,8.6,2.5,27.1,9.5,44.3c0,3.2-4.9,9-8.4,21.9
				c-0.4,7.9,10.6,7.7,20.1,6.8C223.7,241.2,237.2,237.4,238.4,232.6z"/>
			<path class="st74" d="M235.7,183.5c0-4.1-0.1-8.1-0.1-11.1c0-1.7-0.3-3.7-0.8-5.7c-0.1-0.3-0.2-0.5-0.3-0.8
				c-0.3-0.9-0.7-2-1.1-3.2c-2.3-5.3-6.4-9.9-12.2-9.5c1.7,2.9,3.4,9.4,3.4,9.4l0.8,5.4l2.1,23l-1,14.7c0,0,2.4,20.4,2.9,33
				c4.6-1.7,8.3-3.8,8.8-6.2c0-6.6-3.5-21.5-3.8-33.5C234.5,193.4,235.2,188.3,235.7,183.5z"/>
		</g>
		<path class="st75" d="M228.6,205c0,0,3.8,32,2.9,40.7c0,0,9.9-2.4,11.5-6.3c0,0-6.5-37.8-5.8-42c0.7-4.2,0.4-18.2,0.4-25.7
			c0-7.5-5-19.9-14.4-19.2c1.7,2.9,3.4,9.4,3.4,9.4l0.8,5.4l2.1,23L228.6,205z"/>
		<path class="st76" d="M237.2,197.3c0.7-4.2,0.4-18.2,0.4-25.7c0-7.5-5-19.9-14.4-19.2l0,0c9.4-0.4,14,12.7,13.7,20.6
			c-0.3,7.9-0.5,22.5-1.3,26.9c-0.8,3.9,3.2,35.1,4.1,42.6c1.5-0.9,2.7-1.9,3.2-3.1C243,239.3,236.4,201.6,237.2,197.3z"/>
		<path class="st77" d="M224.4,154.3l4.7,1.3l-1.4,4l5.6,3.5l-5.4,8.9c-0.1-3.4-1.1-10.9-4.2-13.8
			C220.6,155.2,224.4,154.3,224.4,154.3z"/>
		<path class="st75" d="M218.6,248.6c-10.6,6.4-25.9-0.9-27.9-5.2c0,0,10.6-21.4,10-28.3c-0.6-7-3.9-20.4-3.9-20.4l-1.6-30.2
			c0,0,9.3-6.7,14.7-8l0.1,1.8l-0.3-0.1l-0.7,0.2l-1.5,1.8l2.4,6.5l2.5,3.2l0.9,2c0,0,6.7,2.5,6.8,3
			C226.1,192.6,222.8,239.6,218.6,248.6z"/>
		<g>
			<path class="st77" d="M200,210.1l3.5-32.2c0.8-7.7-1-11.2-2.8-12.9c-1.1-1-3-1.5-4.7-1.1c-0.4,0.3-0.7,0.5-0.7,0.5l1.6,30.2
				C196.8,194.7,198.8,203.1,200,210.1z"/>
		</g>
		<g>
			<g>
				<path class="st5" d="M192.4,174c-0.4,3-0.8,5.9-1.2,8.9l-1.1,8.9c-0.4,3-0.7,6-1.1,8.9l-1,8.9l0,0.1c0,0.3,0,0.6,0,0.9l1.2,10.9
					c0.4,3.6,0.1,5.5,0.5,9.1l2,12.6c0.5,3.6,0.9,7.2,1.4,10.8c0.3,1.9,2,3.2,3.9,2.9c1.8-0.2,2.1-2.5,2-4.2
					c-0.1-3.6-0.6-15.8-1.4-22.5c-0.2-3.6-1-5.8-1.2-9.4l-1.8-11.9l0,1l1.5-9.1c0.4-3,2-5.3,2.4-8.3l2.6-8.5c0.3-3,0.7-6,1-8.9
					c0.3-2.6-1.6-4.9-4.2-5.2C195.1,169.7,192.8,171.5,192.4,174z"/>
			</g>
			<path class="st5" d="M193,254.6c0,0-0.3,5.4,0.8,7.3c1.1,1.9,4.6,4.3,6.5,4.3c1.9-0.1,2.6-0.7,2.6-0.7c-0.8-1.8-3.6-3.7-3.7-6.8
				c-0.2-1.9,0.6-0.9,0.6-0.5s0.6,2.2,1.2,2.6c0.5,0.4,0.8,0.2,0.7-1.6c-0.1-1.8-0.1-2.3-0.5-3.7c-0.4-1.3-1.7-1.3-2.1-2.7
				c-0.4-1.4-0.7-2.4-0.7-2.4l-6,0.3C192.5,250.6,193.2,252.3,193,254.6z"/>
			<g>
				<path class="st63" d="M189.3,230.3c0.5,0.1,1.4,0.4,3.4,0.4c1.8,0,4.8-0.4,4.9-1.5c0.5-3.8-0.5-18.6-0.5-18.6l5.6-32.5
					c1.2-7.6-0.3-11.2-2.1-13.1c-1.9-2-6.6-2.2-8,1.2c-3,7.5-5.4,42.2-5.4,42.2S188.7,229.2,189.3,230.3z"/>
			</g>
			<path class="st64" d="M201.9,166.7c0.8,2.3,1.1,5.8,0,11.1l-7.1,34c0,0,0.2,13.7-0.3,18.7c1.5-0.2,3-0.6,3.1-1.3
				c0.5-3.8-0.5-18.6-0.5-18.6l5.6-32.5C203.6,172.3,203,168.9,201.9,166.7z"/>
			<path class="st66" d="M197.7,227.9c0.5,0.1,0.3,2.4,0.4,3.5c0,0.3-0.1,0.6-0.4,0.7c-1.8,0.7-8.6,1.4-8.8-0.7c0-0.8-0.7-2.9,0-3
				l0.1,0.6c0.3,0.7,8.1,1,8.6-0.5L197.7,227.9z"/>
			<g>
				<path class="st67" d="M194.5,229.4c-2.4,0.2-5.3-0.1-5.5-0.5l-0.1-0.6c-0.3,0.1-0.3,0.7-0.2,1.3
					C190.5,229.7,192.8,229.7,194.5,229.4z"/>
				<path class="st67" d="M197.7,227.9l0,0.6c-0.1,0.2-0.3,0.4-0.7,0.5c0.1,1,0,2.3,0.1,3c0,0.1,0,0.2,0,0.2
					c0.2-0.1,0.5-0.1,0.6-0.2c0.3-0.1,0.4-0.4,0.4-0.7C198,230.3,198.2,228,197.7,227.9z"/>
			</g>
		</g>
		<g>
			<path class="st13" d="M210.2,150.4c0,0,0.2,5.3-1.2,10.9c2.4,3.8,12.6,6.2,14.2,1.8c0,0-0.4-3.9,1.2-6.6
				C226,153.8,210.2,150.4,210.2,150.4z"/>
			<path class="st15" d="M210.2,150.4c0,0,0,1,0,2.6c3.3,6.3,8.5,8.3,12.9,8.9c0-1.4,0.2-3.6,1.2-5.4
				C226,153.8,210.2,150.4,210.2,150.4z"/>
			<path class="st16" d="M227.1,130.1c0,0,3.2,5.5,3.2,11.5c-0.2,0.8,1.1,2.3,0.8,5.7c-0.2,2.4-0.7,7.3-1,9.8
				c-0.1,0.9-0.8,1.7-1.7,1.8c-4.9,0.9-12.6,1.4-18.3-6.4c0,0-2.7-3.2-4-3.6c-1.3-0.4-6.2-6.7-6.2-11.9c0-5.4,3-13.7,14.2-13.7
				C223.1,123.5,227.1,130.1,227.1,130.1z"/>
			<g>
				<path class="st17" d="M230.3,141.6c0-6-3.2-11.5-3.2-11.5s-0.6-1-1.9-2.2c0.3,0.4,0.4,0.6,0.4,0.6s3.2,5.5,3.2,11.5
					c-0.2,0.8,1.1,2.3,0.8,5.7c-0.2,2.4-0.7,7.3-1,9.8c-0.1,0.9-0.8,1.7-1.7,1.8c-4.3,0.8-10.9,1.2-16.3-4c5.6,7,13.1,6.5,17.8,5.7
					c0.9-0.2,1.6-0.9,1.7-1.8c0.2-2.5,0.7-7.4,1-9.8C231.4,144,230.1,142.4,230.3,141.6z"/>
			</g>
		</g>
		<path class="st78" d="M208.8,133.3c3,2.2,1.8,12.3,2.4,14.6c-0.9,0.4-1.4-2.6-2.9-2.5c-1.4,0.1-0.2,1.9-0.2,1.9l2.3,4.8l-0.3,3.1
			c-0.5-5.4-11.2-5.8-10.5-19.2c0.2-3.3,2.2-8.6,3.2-7.6C203.8,129.3,207.9,130.2,208.8,133.3z"/>
		<path class="st79" d="M208.8,133.3c-0.8-3.1-5-4-6-4.9c-0.5-0.5-1.3,0.8-2,2.5c0.5,2.6,5.4,2.7,9.2,4.2
			C209.7,134.3,209.3,133.7,208.8,133.3z"/>
		<g>
			<path class="st18" d="M208.3,145.5c-2.1-2.2-4.8-0.3-3.1,2.3c0.4,0.6,1.2,0.9,1.5,1.4c0.2,0.3,0.3,0.5,0.5,0.8
				c0.5,0.4,1,0.9,1.5,1.4c0.6,0.2,1,0,1.4-0.5L208.3,145.5z"/>
			<path class="st16" d="M209.9,145.6c-1.3-2.8-4.5-1.8-3.6,1.3c0.2,0.7,0.9,1.2,1,1.8c0.6,2.9,1.7,3.2,2.7,2.6"/>
		</g>
		<path class="st78" d="M211.3,135c3.6,2.8,13.1-3.8,16.3-3.9c3.4-0.1,6.5-4.7,6.4-10c-3.2,7.3-5.3,0.5-17.2,0
			c-9.2-0.4-14.4,3.9-14.8,7.1C201.4,131.5,207.8,132.3,211.3,135z"/>
		<path class="st79" d="M222.9,129.3c-4.7,0.5-6.8,3.1-12.9,4.9l0,0c0.4,0.3,0.8,0.5,1.2,0.8c3.6,2.8,13.1-3.8,16.3-3.9
			c3.4-0.1,6.5-4.7,6.4-10C234,125.5,227.6,128.8,222.9,129.3z"/>
		<path class="st77" d="M209.8,157.5c-2,0.3-6.6,2.8-5.7,10.5l5.3-1.8l-0.8,8.1l11.7,0.7C218.6,173,208.9,165.6,209.8,157.5z"/>
		<path class="st80" d="M213,231.2l-10-2c0,0,1,2.3,1.1,2.4c0,0.1,8.3,1.2,8.3,1.2L213,231.2z"/>
		<path class="st81" d="M203,229.2c0,0,4,3,10,2l-2.2,8.4c0,0-7.2,0.6-10-2.2L203,229.2z"/>
	</g>
	<g>
		<path class="st82" d="M47.9,173.8c0,0,2.4,8.9,0.8,16.5c0,0-1.4-2.9-3.5-3.6c-2.1-0.7-3.8-8.2-3.8-8.2l3.5-5.3L47.9,173.8z"/>
		<g>
			<path class="st16" d="M57.9,268.1c0,0,1.3,6,1.1,6.8l-2.1,10.1c-0.1,0.4-0.6,0.5-0.9,0.3l-2.9-2.5l0.9-14.6h1.6H57.9z"/>
			<path class="st16" d="M53.6,252.4c0,0,1.9,10,4.3,15.7c-0.6,1.5-3.1,10.4-3.6,8.9c-3.2-9.7-7.1-18.7-7.1-18.7L53.6,252.4z"/>
			<path class="st28" d="M58.1,279.5c-0.6,0-1.3-3.5-1.3-4.8C56.8,274.6,56.5,280.9,58.1,279.5z"/>
		</g>
		<g>
			<path class="st83" d="M41.2,238.1c0-0.2-0.1-0.4-0.1-0.5c-0.2-3.3-2.1-34.8-1.7-37.6c0.4-3.6,2.1-7.1,5.9-7c3,0.1,7,4.6,7.2,10.2
				c0.1,5.6-1.2,32.6-1.3,34.1c0,0,5.9,26.6,5.8,28.9l-6.3,4L41.2,238.1z"/>
			<path class="st84" d="M51,267.9c-0.1-0.2,0-0.5,0.2-0.6c0.7-0.2,1.9-0.6,2.2-0.8l0.7,0.6l0.2-1c0,0,1.7-0.6,2.4-0.9
				c0.2-0.1,0.5,0,0.6,0.3c0.2,0.5,0.5,1.4,0.5,1.7c0,0.1,0,0.2,0,0.2c-0.4,0.7-4.3,1.6-5.7,2.4c-0.2,0.1-0.5,0-0.6-0.2L51,267.9z"
				/>
			<g>
				<path class="st85" d="M53.6,267.1l0.1-0.4l-0.2-0.2c-0.1,0.1-0.2,0.1-0.4,0.2L53.6,267.1z"/>
				<path class="st85" d="M58,267.1c-0.1-0.3-0.4-1.2-0.5-1.7c-0.1-0.2-0.3-0.4-0.6-0.3c0,0-0.1,0-0.2,0.1c0.1,0,0.1,0.1,0.1,0.2
					c0.2,0.5,0.5,1.4,0.5,1.7c0,0.1,0,0.2,0,0.2c-0.3,0.7-4.2,1.6-5.6,2.4c0.1,0.1,0.3,0.2,0.5,0.1c1.4-0.8,5.4-1.7,5.7-2.4
					C58,267.3,58,267.2,58,267.1z"/>
			</g>
		</g>
		<g>
			<g>
				<path class="st16" d="M37.6,370.7c2.7-15-3.5-39.9-1.3-52c0,0-3.6-31.1-3.8-45.2c-0.3-14.2,5.4-24.6,5.4-24.6s10.4,0.7,13.4,1.8
					c0,0,10.3,27.6-1.1,70.9c0.7,2.5-4.9,37.8-3.8,50.2c0.7,4.7,4.5,15,4.6,16.7c0,1.8-4.5,2.6-4.9,2.4s-2.5-0.4-2.5-0.6
					c0-0.3-4.5-14.1-4.5-14.1s-1.1-4-1.1-4.2C37.7,372.1,37.6,370.7,37.6,370.7z"/>
				<path class="st86" d="M51.2,250.7c-0.9-0.3-2.6-0.6-4.4-0.9c1.7,11.9,4.9,42.1-0.5,64.5c-0.3,2.2-0.2,5.2-0.2,6.1
					c0,0.9,0.1,4-2.8,4.7c0,0,1,1.1,3,0.9c0,0-2.4,36-2.4,38.8c0.1,2.9-1.7,5.5,1.3,11.7c2.9,6.1,2.8,12.2,5.1,12.9
					c0.3-0.3,0.4-0.6,0.4-0.9c0-1.8-3.9-12.1-4.6-16.7c-1.1-12.4,4.5-47.8,3.8-50.2C61.5,278.3,51.2,250.7,51.2,250.7z"/>
				<g>
					<path class="st87" d="M37.4,387.6L37.4,387.6c-0.5,0-0.8-0.4-0.8-0.8V374h1.2v13.2C37.8,387.4,37.6,387.6,37.4,387.6z"/>
					<path class="st88" d="M38,367.8c0,0-2.4,0.4-2.4,5.2c0,4.8,2.6,3.9,3.2,6.1c0.6,2.2,2.7,11.9,6.2,13c3.6,1.1,6.7,2.4,9.3,2
						c1.1-0.2,0.4-1.9-0.4-2.3c-0.6-0.3-2.8-3.9-3.4-4.9c-0.1-0.1-0.2-0.1-0.3,0c-0.2,0.6-1.9,1.9-3.6,1.7c-2.2-0.2-3-1.1-8.9-19.1
						L38,367.8z"/>
					<path class="st87" d="M54.6,392.9c-2.5,0.4-5.7-0.8-9.3-2c-3.6-1.1-5.6-10.8-6.2-13c-0.6-2.2-3.2-1.3-3.2-6.1
						c0-0.6,0-1.2,0.1-1.7c-0.2,0.7-0.4,1.6-0.4,2.8c0,4.8,2.6,3.9,3.2,6.1c0.6,2.2,2.7,11.9,6.2,13c3.6,1.1,6.7,2.4,9.3,2
						c0.6-0.1,0.6-0.7,0.4-1.2C54.7,392.8,54.7,392.9,54.6,392.9z"/>
				</g>
				<path class="st16" d="M37.7,319.5c1-30.1,5.9-32.3,1.3-61.9c-0.8-5-20-2.7-20-2.7c-4.1,2.6-6.4,9.4-5.8,17
					c1,11.8,13.3,36.4,10.8,47.5c-6,17.9,0.9,41.1-1.7,56.8c0.1,0.3,0.2,0.5,0.3,0.8c-1,10.4-2,18.9,0.4,21.5c1.8,2,5.8,4.1,7.3,1
					c0.5-1.2,0.1-5.2,0-7.1c0-3.6-0.8-8.2-0.9-14.2c0.1-0.3,0.1-0.6,0.2-0.9C29.5,377.3,34.4,345.6,37.7,319.5z"/>
				<path class="st86" d="M37.7,319.5c1-30.1,5.9-32.3,1.3-61.9c-0.4-2.4-5.1-3.1-9.9-3.2c1.7,11.1,5.7,40.6,3.4,62.6
					c0.3,2.5,1,2.3,0.7,3.4c-0.3,1.1-0.2,2.7-2.8,2.9c-2.6,0.2,0.2,3.1,2.9,2.3c0,0-4.3,47-5.5,51.6c-1.3,4.5,2.7,16.8,1.4,19.6
					c-1.2,2.7-2.4,2.1-2.7,3.1c-0.1,0.3-0.1,0.7,0,1.1c1.5,0.5,3.1,0.4,3.8-1.3c0.5-1.2,0.1-5.2,0-7.1c0-3.6-0.8-8.2-0.9-14.2
					c0.1-0.3,0.1-0.6,0.2-0.9C29.5,377.3,34.4,345.6,37.7,319.5z"/>
				<path class="st88" d="M22.7,375.8c0,0-1,15.6,0.2,20.3c0.9,3.4,5,4.1,6.8,1.6c0.9-1.2,0.4-5,0.5-7.1c0,0,0.6,5.1,0.8,7.7
					c0.1,0.9,0,1.9-0.3,2.8l-1.4,5.3c-0.2,0.9-1,1.5-1.9,1.5h-0.9c-0.7,0-1.4-0.4-1.8-1.1l-2.6-5.1c-1-1.9-1.4-4-1.3-6.2
					c0.2-3.3,1.4-7.6-0.4-12.2C19.5,381.3,21.3,376.1,22.7,375.8z"/>
				<g>
					<path class="st87" d="M28.2,406.4h-0.9c-0.7,0-1.4-0.4-1.8-1.1l-2.6-5.1c-1-1.9-1.4-4-1.3-6.2c0.2-3.3,1.4-7.6-0.4-12.2
						c-0.6-1.2-0.2-3.5,0.6-5.3c-1.1,1.6-2.1,5.1-1.3,6.6c1.8,4.6,0.6,8.9,0.4,12.2c-0.1,2.1,0.3,4.3,1.3,6.2l2.6,5.1
						c0.3,0.7,1,1.1,1.8,1.1h0.9c0.9,0,1.7-0.6,1.9-1.5l0.1-0.4C29.1,406.2,28.7,406.4,28.2,406.4z"/>
				</g>
				<path class="st88" d="M51.5,249.9c0,0-28,2.3-32.5,5c-3,1.8-6.1,5.6-6.1,14.6c0,9.9,12.1,40.1,10.7,48.6
					c0.2,0.8,1.2,1.4,2.7,1.8c0.4-3.1,1-8.6,0.4-11.5c0,0,2.2,6,2.2,11.9c4.2,0.4,10.2-0.4,14.8-2.6c6.5-3.1,9.5-9.3,9.7-10.2
					C53.5,307.6,60.6,280.4,51.5,249.9z"/>
				<path class="st89" d="M19.1,254.9c-0.2,0.1-0.4,0.2-0.6,0.4c-0.8,2.1-1.8,3.9-2.4,5.2c3.5,7.6,23.8,10.2,23.8,10.2
					c1.2-1.5,1.6-4.5,1.6-8.3l3.4,7.5c0,0,6.5-5.4,7-10.4c0.3-1.3-0.5-4.9-1.4-9.5C45.6,250.4,23,252.5,19.1,254.9z"/>
				<path class="st89" d="M51.5,249.9c0,0-0.1,0-0.3,0c5.1,35.4-5.1,65.3-5.1,65.3c-0.1,0.3-0.4,0.9-0.9,1.8
					c5.5-3.2,8.2-8.6,8.3-9.4C53.5,307.6,60.6,280.4,51.5,249.9z"/>
			</g>
		</g>
		<path class="st90" d="M28.3,196.8c-1.5,0.5-5.9,2.1-9.6,4c-3.8,2-6.2,5.9-6.1,10.3c0.1,8,3.4,16.6,8.3,24.3c3,4.6,2.7,13.2-1.8,21
			c3.6,4.5,12.2,5.7,17.9,5.2c8.3-4.4,15-6.6,13.8-11.2c0,0-2-9.8-2.3-15.9c-0.3-5.2,0.7-10.7,1.5-13.1c3.4-0.7,7.2-5.4,2.2-14.4
			c-0.2-2.8-0.2-12.5-8-13.9c-6.3,1.6-12.8,3.1-14.7,3.5C29,196.5,28.6,196.6,28.3,196.8z"/>
		<path class="st88" d="M42.4,255.9l4.1,9.3c0,0,6.4-5.3,6.9-10.2c0.7-3.3-5.8-23.3-2.5-32.7c2.6-0.7,4.7-4.1,4.1-8.8
			c-0.6-4.2-2.2-5.1-2.7-7.6c-0.5-2.4-0.3-12.1-9.1-12.7l-3.4,2l1.9,8l0.3,12.4l-0.3,0.7v1.3l-0.9,20.3l0.9,18H42.4z"/>
		<path class="st91" d="M51,222.2c0.3-0.1,0.5-0.2,0.7-0.3c-1.2,0.4-2.6,0.7-4.1,0.7c0,0,1.2,0.3,1.1,3.2
			c-0.1,2.8-1.2,11.4,0.6,18.3c1.2,4.4,2.2,10.5,2.8,14.4c0.7-1.2,1.1-2.4,1.3-3.6C54.2,251.6,47.7,231.7,51,222.2z"/>
		<path class="st91" d="M42,216.9l-0.1-0.2l-0.1-0.3l0-0.1v1.3l-0.9,20.3l0.9,18h0.7l2.4,5.3c0.3-6-1.7-15-1.7-21.8
			C43,228.3,43.2,219.5,42,216.9z"/>
		<path class="st91" d="M55,213.4c-0.6-4.2-2.2-5.1-2.7-7.6c-0.5-2.4-0.3-12.1-9.1-12.7l-0.4,0.2c1.8,0.9,8.3,4.7,9.2,13.9
			c1.4,5.3,1.5,11.7-2,14.4c0,0-3,1.4-7.7,1.2c0,0,3.9,1.7,8.2,0.8c0.1-0.5,0.2-1,0.4-1.4C53.5,221.6,55.7,218.1,55,213.4z"/>
		<g>
			<path class="st92" d="M46.5,265.5l-4.2-9.4h-0.5v-0.5h0.9l4.1,9.1c1.2-1,6.4-6.2,6.9-10.4l-0.1,0.8c-0.5,4.9-6.4,10-6.7,10.2
				L46.5,265.5z"/>
		</g>
		<path class="st16" d="M39.3,200l3.9,6.3l-1.4,10l-11.7-14.5c0,0,1.4-1.2,1.5-1.2c0.1,0,4.3-0.6,4.3-0.6H39.3z"/>
		<path class="st83" d="M41.8,216.3c0,0,0.2-10.8-3.3-17.7v-2.3l2.3-1.7c0,0,4.4,1,1,6c0,0,5,2.7,6,3.9
			C48.7,205.8,44,214.9,41.8,216.3z"/>
		<g>
			<path class="st16" d="M28.7,187.9c0,0,0.5,5.5-0.9,10.9c2.3,3.7,10.5,5.6,12,1.4c0,0-0.4-3.8,1.2-6.4
				C42.5,191.1,28.7,187.9,28.7,187.9z"/>
			<path class="st37" d="M28.7,187.9c0,0,0.1,1.7,0.1,4c0.8,0.8,1.3,1.5,1.3,1.5c2.9,3.9,6.3,5.6,9.7,6.3c-0.1-1.1,0-3.8,1.2-5.9
				C42.5,191.1,28.7,187.9,28.7,187.9z"/>
			<path class="st16" d="M45,168.2c0,0,3.1,5.4,3.1,11.2c-0.2,0.8,1.1,2.3,0.8,5.5c-0.2,2.3-0.7,7.1-0.9,9.5
				c-0.1,0.9-0.8,1.6-1.6,1.8c-4.7,0.8-12.2,1.3-17.7-6.2c0,0-2.6-3.1-3.9-3.5c-1.2-0.4-6-6.5-6-11.5c0-5.3,2.9-13.3,13.7-13.3
				C41.2,161.7,45,168.2,45,168.2z"/>
			<g>
				<path class="st17" d="M48.1,179.3c0-5.8-3.1-11.2-3.1-11.2s-1.5-2.5-4.7-4.3c1.8,1.5,2.7,2.9,2.7,2.9s4.5,5.7,4.5,11.5
					c-0.2,0.8,1.1,1.8,0.7,5.1c-0.2,2.3-1.5,7.4-1.8,9.9c-0.1,0.9-0.8,1.6-1.6,1.8c-3.4,0.6-8.8,0.8-13.3-1.8c5,4.2,10.9,3.7,14.8,3
					c0.9-0.2,1.6-0.9,1.6-1.8c0.2-2.4,0.7-7.2,0.9-9.5C49.2,181.6,47.9,180.1,48.1,179.3z"/>
				<path class="st38" d="M23.6,185.7c0.3,0.3,0.6,0.6,0.8,0.7C24.2,186.1,23.9,185.9,23.6,185.7z"/>
			</g>
		</g>
		<g>
			<path class="st18" d="M27.1,183.1c-2-2.1-4.6-0.3-2.9,2.2c0.4,0.5,1.1,0.8,1.4,1.3c0.2,0.3,0.3,0.5,0.5,0.7
				c0.5,0.4,0.9,0.9,1.4,1.3c0.5,0.2,0.8,0,1.2-0.5L27.1,183.1z"/>
			<path class="st16" d="M28.6,183.2c-1.3-2.6-4.2-1.7-3.4,1.2c0.2,0.6,0.8,1.2,0.9,1.7c0.6,2.8,1.6,3,2.5,2.5"/>
		</g>
		<path class="st39" d="M28,188.6c0,0.4-0.3,0.8-0.8,0.8s-0.8-0.3-0.8-0.8c0-0.4,0.3-0.8,0.8-0.8S28,188.1,28,188.6z"/>
		<path class="st88" d="M41.8,216.3c1.2,2.7-0.3,11.6-0.3,22.7c0.1,9.2,3.8,22.4,0.3,26.8c0,0-19.9-2.5-23.3-10
			c1.8-4.1,7.5-13,1-22.3l-3.9-24.2l-0.2-6.2c0.5-2,9.1-5.7,13.4-6.7l-0.3,3.5l5.7,6.2l6.6,9.7L41.8,216.3z"/>
		<g>
			<path class="st93" d="M15.6,209.4l3.9,24.2c2,2.9,2.8,5.7,3,8.4c1-8.7,2.9-24.5,3.1-28.7c0.3-5.7-3.5-10.6-6.5-11
				c-1.5-0.2-2.7,0.3-3.6,1L15.6,209.4z"/>
		</g>
		<g>
			<path class="st92" d="M41.9,266.1l-0.1,0c-0.8-0.1-20-2.5-23.4-10l0.2-0.4c3.2,6.9,21.4,9.7,23.1,9.9c2.1-2.9,1.3-9.7,0.5-16.2
				c-0.4-3.5-0.9-7.2-0.9-10.3c0-4.7,0.2-9.1,0.4-12.6c0.3-4.7,0.5-8.6-0.2-10.1l0.3,0l0.2-0.2c0.7,1.6,0.5,5.3,0.2,10.3
				c-0.2,3.5-0.5,7.9-0.4,12.6c0,3.1,0.5,6.8,0.9,10.3c0.9,7.1,1.7,13.7-0.7,16.7L41.9,266.1z"/>
		</g>
		<path class="st83" d="M28.3,196.8c0,0-1.6,1.8-2.4,5.9c-0.3,1.3,0.7,2.6,2,2.8c1.7,0.3,3.9,0.5,5.2,0.4l-2.2,5.1
			c-0.5,1.1,0,2.3,1.1,2.8c2.5,1.1,6.9,2.8,9.8,2.6C41.8,216.3,31.5,201.1,28.3,196.8z"/>
		<g>
			<g>
				<path class="st16" d="M17.1,267.2c0,0,0.4,11.8,1.7,17.8c-0.9,1.3-5.8,3.5-6.1,2c-1.4-10.2-2.6-19.7-2.6-19.7L17.1,267.2z"/>
				<path class="st16" d="M12.7,287c0,0,0.8,8.7,1.2,8.9c1.4,0.8,2.1,1.2,4.6,1.8c3.6,1,4.6-0.7,4.6-0.7s-0.3-3.3-0.1-5.3
					c0.2-2-3.1-2.1-4.1-6.2c-1-4.1-6.1,0-6.1,0L12.7,287z"/>
				<path class="st94" d="M19,285.5c-0.1-0.3-0.2-0.6-0.3-0.8c-1,0.3-2.9,0.7-2.9,0.7l-0.4,1.1l-0.8-0.7c-0.3,0.1-1,0.3-1.7,0.5
					l-0.1,0.6c0,0,0.1,1,0.2,2.3c1.9-0.7,5.9-1.2,6.8-1.9C19.4,286.9,19.1,286.3,19,285.5z"/>
				<g>
					<g>
						<path class="st41" d="M23.1,295.2c-0.9-0.2-1.7-0.7-2.4-1.3c-0.6-0.7-1.1-1.5-1.2-2.4c0.3,0.4,0.5,0.7,0.8,1.1
							c0.3,0.3,0.6,0.7,0.9,0.9C21.7,294.1,22.4,294.6,23.1,295.2z"/>
					</g>
					<g>
						<path class="st41" d="M19.1,292.5l0.2-0.6l0.2-0.5c0.2-0.4,0.3-0.7,0.5-1.1c0.2,0.4,0.2,0.9,0,1.3c-0.1,0.2-0.2,0.4-0.4,0.6
							C19.6,292.3,19.4,292.4,19.1,292.5z"/>
					</g>
				</g>
			</g>
			<g>
				<g>
					<path class="st83" d="M6.6,246.9c0-0.2,0-1.4,0-1.5C7,242,11,211,11.8,208.3c1.1-3.5,3.4-6.7,7.2-5.9c3,0.6,6.2,5.9,5.3,11.6
						c-0.9,5.7-7.2,32.5-7.5,34c0,0,1.7,34.4,2.8,37.9c0,0-3.8,0.9-7.7,1.3C9.7,279.6,6.6,246.9,6.6,246.9z"/>
				</g>
				<path class="st95" d="M19,202.3c-0.3-0.1-0.5-0.1-0.8-0.1c2.7,1.6,5.1,6.6,4.2,12c-1,6-8,34.3-8.4,35.9c0,0,0.9,28.4,1.9,36.6
					c2.2-0.8,3.6-0.8,3.6-0.8c-1.1-3.5-2.8-37.9-2.8-37.9c0.3-1.5,6.6-28.3,7.5-34C25.2,208.3,22,203,19,202.3z"/>
				<path class="st84" d="M11.3,285.9c-0.1-0.3,0.1-0.6,0.4-0.6c0.8-0.2,2.4-0.5,2.8-0.7l0.8,0.7l0.4-1.1c0,0,2.1-0.4,3.1-0.8
					c0.3-0.1,0.6,0.1,0.6,0.3c0.1,0.6,0.4,1.6,0.4,2c0,0.1,0,0.2,0,0.2c-0.5,0.8-5.5,1.3-7.3,2.2c-0.3,0.1-0.6,0-0.7-0.3L11.3,285.9
					z"/>
				<g>
					<path class="st85" d="M19.9,285.7c0-0.4-0.3-1.4-0.4-2c-0.1-0.3-0.4-0.4-0.6-0.3c0,0,0,0,0,0c0,0,0.1,0.1,0.1,0.1
						c0.1,0.6,0.4,1.6,0.4,2c0,0.1,0,0.2,0,0.2c-0.5,0.8-5.5,1.3-7.3,2.2c0,0,0,0-0.1,0c0.1,0.2,0.4,0.3,0.6,0.2
						c1.8-0.8,6.7-1.4,7.3-2.2C19.9,285.9,19.9,285.8,19.9,285.7z"/>
				</g>
			</g>
		</g>
		<path class="st83" d="M41.4,222.5c0,0.6-0.4,1.1-0.8,1.1c-0.4,0-0.8-0.5-0.8-1.1c0-0.6,0.4-1.1,0.8-1.1
			C41.1,221.4,41.4,221.9,41.4,222.5z"/>
		<path class="st83" d="M41,237.3c0,0.6-0.4,1.1-0.8,1.1c-0.4,0-0.8-0.5-0.8-1.1c0-0.6,0.4-1.1,0.8-1.1
			C40.6,236.2,41,236.7,41,237.3z"/>
		<path class="st83" d="M42.1,251.9c0,0.6-0.4,1.1-0.8,1.1c-0.4,0-0.8-0.5-0.8-1.1c0-0.6,0.4-1.1,0.8-1.1
			C41.8,250.8,42.1,251.3,42.1,251.9z"/>
		<path class="st82" d="M30.7,174.9c0,0-2.5,15.8,0.7,23.3c-8.3-1.7-14.8-11.8-14.8-25.1c0-13.3,13.4-14,18.5-13.2
			c5.9,1,13.9,5.6,13.2,18.3C45.8,175.6,35.1,180.5,30.7,174.9z"/>
		<path class="st96" d="M30.7,174.9c4.4,5.6,15.1,0.7,17.6,3.4C46.4,172,37.3,178.3,30.7,174.9z"/>
		<path class="st96" d="M29.3,195.6c-2.9-8.4-2.5-22-2.5-22c-1.3,8.2,0,16,0,16c-1.5-4.2-2.3-16.5-2.3-16.5
			c-1.1,8.7,1.6,19.4,1.6,19.4c-3.4-7.9-4.4-18.5-4.4-18.5C21,181,24,190.9,24,190.9c-6.3-9.6-5.4-25-5.4-25.2c-1.2,1.9-2,4.3-2,7.5
			c0,13.3,6.5,23.3,14.8,25.1c-3.2-7.6-0.7-23.3-0.7-23.3C27.9,187.3,29.3,195.6,29.3,195.6z"/>
	</g>
</g>
<g id="DESIGNED_BY_FREEPIK">
</g>
</svg>
