<?xml version="1.0" encoding="utf-8"?>
<!-- Generator: Adobe Illustrator 22.0.0, SVG Export Plug-In . SVG Version: 6.00 Build 0)  -->
<svg version="1.1" id="Layer_1" xmlns="http://www.w3.org/2000/svg" xmlns:xlink="http://www.w3.org/1999/xlink" x="0px" y="0px"
	 viewBox="0 0 1639.3 3606.4" style="enable-background:new 0 0 1639.3 3606.4;" xml:space="preserve">
<style type="text/css">
	.st0{fill:#E3E3E3;}
	.st1{fill:#AAAAAA;}
	.st2{fill:#F4F4F4;}
	.st3{fill:#CCCCCC;}
	.st4{fill:#727272;}
	.st5{fill:#3FB7B6;}
	.st6{fill:#919191;}
	.st7{fill:#C1C1C1;}
	.st8{fill:#2F8989;}
	.st9{fill:#999999;}
	.st10{enable-background:new    ;}
	.st11{fill:#808080;}
	.st12{fill:#7A7A7A;}
	.st13{fill:#3D3D3D;}
	.st14{fill:#B7B7B7;}
	.st15{fill:#3A3A3A;}
	.st16{fill:#B8B8B8;}
	.st17{fill:#909090;}
</style>
<g>
	<g>
		<g>
			<polygon class="st0" points="92.4,3083 810.2,3453.5 810.2,955.3 92.4,584.7 			"/>
			<polygon class="st1" points="1520.7,3083 810.2,3453.5 810.2,955.3 1520.7,584.7 			"/>
			<polygon class="st2" points="1520.7,584.7 810.2,955.3 92.4,584.7 802.9,214.3 			"/>
			<g>
				<polygon class="st3" points="1418.3,613.3 802.9,295.1 193,610.6 812.3,930.5 				"/>
			</g>
		</g>
		<g>
			<polygon class="st4" points="141.4,584 197.1,612.8 802.9,295.1 802.9,237.3 			"/>
			<polygon class="st1" points="802.9,237.3 802.9,295.1 1418.3,613.3 1474.3,584.7 			"/>
		</g>
	</g>
	<g>
		<polygon class="st5" points="135.8,946.1 183.5,971.1 183.5,792.4 135.8,767.3 		"/>
		<polygon class="st5" points="231.4,995.2 279.2,1020.3 279.2,841.5 231.4,816.5 		"/>
		<polygon class="st5" points="327,1045.8 374.8,1070.9 374.8,892.1 327,867 		"/>
		<polygon class="st5" points="422.6,1094.9 470.4,1120 470.4,941.2 422.6,916.2 		"/>
		<polygon class="st5" points="518.2,1145.1 566,1170.2 566,991.5 518.2,966.4 		"/>
		<polygon class="st5" points="613.8,1194.3 661.7,1219.4 661.7,1040.6 613.8,1015.6 		"/>
		<polygon class="st5" points="709.4,1244.9 757.2,1269.9 757.2,1091.2 709.4,1066.1 		"/>
	</g>
	<g>
		<polygon class="st5" points="135.8,2591 183.5,2616 183.5,1177 135.8,1152 		"/>
		<polygon class="st5" points="231.4,2640.1 279.2,2665.1 279.2,1226.2 231.4,1201.1 		"/>
		<polygon class="st5" points="327,2690.7 374.8,2715.8 374.8,1276.8 327,1251.7 		"/>
		<polygon class="st5" points="422.6,2739.8 470.4,2764.9 470.4,1325.9 422.6,1300.9 		"/>
		<polygon class="st5" points="518.2,2790 566,2815.1 566,1376.1 518.2,1351 		"/>
		<polygon class="st5" points="613.8,2839.2 661.7,2864.2 661.7,1425.3 613.8,1400.2 		"/>
		<polygon class="st5" points="709.4,2889.8 757.2,2914.8 757.2,1475.8 709.4,1450.8 		"/>
	</g>
	<g>
		<polygon class="st4" points="1569.7,1074.9 810.1,1470 810.1,1353.2 1569.7,958.1 		"/>
		<polygon class="st6" points="1520.2,932.2 1520.2,958.7 809.7,1327.9 858.7,1327.8 1569.7,958.1 		"/>
		<g>
			<polygon class="st1" points="42.8,1074.9 810.1,1470 810.1,1353.2 42.8,958.1 			"/>
			<polygon class="st7" points="809.7,1327.9 92.4,958.5 92.4,932.3 42.8,958.1 810.1,1353.2 858.7,1327.8 			"/>
		</g>
	</g>
	<polygon class="st5" points="135.8,2833.5 758.6,3154.2 758.6,2977.8 135.8,2657.1 	"/>
	<g>
		<polygon class="st8" points="1484.4,946.1 1436.6,971.1 1436.6,792.4 1484.4,767.3 		"/>
		<polygon class="st8" points="1388.8,995.2 1341,1020.3 1341,841.5 1388.8,816.5 		"/>
		<polygon class="st8" points="1293.2,1045.8 1245.3,1070.9 1245.3,892.1 1293.2,867 		"/>
		<polygon class="st8" points="1197.5,1094.9 1149.7,1120 1149.7,941.2 1197.5,916.2 		"/>
		<polygon class="st8" points="1101.9,1145.1 1054.1,1170.2 1054.1,991.5 1101.9,966.4 		"/>
		<polygon class="st8" points="1006.3,1194.3 958.5,1219.4 958.5,1040.6 1006.3,1015.6 		"/>
		<polygon class="st8" points="910.7,1244.9 862.9,1269.9 862.9,1091.2 910.7,1066.1 		"/>
	</g>
	<g>
		<polygon class="st8" points="1484.4,2591 1436.6,2616 1436.6,1177 1484.4,1152 		"/>
		<polygon class="st8" points="1388.8,2640.1 1341,2665.1 1341,1226.2 1388.8,1201.1 		"/>
		<polygon class="st8" points="1293.2,2690.7 1245.3,2715.8 1245.3,1276.8 1293.2,1251.7 		"/>
		<polygon class="st8" points="1197.5,2739.8 1149.7,2764.9 1149.7,1325.9 1197.5,1300.9 		"/>
		<polygon class="st8" points="1101.9,2790 1054.1,2815.1 1054.1,1376.1 1101.9,1351 		"/>
		<polygon class="st8" points="1006.3,2839.2 958.5,2864.2 958.5,1425.3 1006.3,1400.2 		"/>
		<polygon class="st8" points="910.7,2889.8 862.9,2914.8 862.9,1475.8 910.7,1450.8 		"/>
	</g>
	<polygon class="st8" points="1484.4,2833.5 861.5,3154.2 861.5,2977.8 1484.4,2657.1 	"/>
	<polygon class="st9" points="1080.7,788.5 713.9,788.5 713.9,468.2 1137.6,468.2 1418.3,613.3 	"/>
	<g>
		<g class="st10">
			<g>
				<polygon class="st11" points="1137.6,203.9 1136.7,542.8 1048.1,736.6 1049.1,397.7 				"/>
			</g>
			<g>
				<polygon class="st1" points="1049.1,397.7 1048.1,736.6 713.9,788.5 714.8,449.6 				"/>
			</g>
			<g>
				<polygon class="st0" points="714.8,449.6 713.9,788.5 468.1,646.7 469.1,307.7 				"/>
			</g>
			<g>
				<polygon class="st2" points="1137.6,203.9 1049.1,397.7 714.8,449.6 469.1,307.7 557.6,113.9 891.9,62 				"/>
			</g>
		</g>
	</g>
	<g>
		<polygon class="st12" points="719.2,248 810,295.6 810,245.9 719.2,198.2 		"/>
		<polygon class="st13" points="893.9,251.5 810,295.6 810,245.9 893.9,201.8 		"/>
		<polygon class="st14" points="893.9,201.8 810,245.9 719.2,197.9 803,154.1 		"/>
	</g>
	<g>
		<g>
			<polygon class="st15" points="339.2,3210 497.7,3292.6 497.7,3114.5 339.2,3032.4 			"/>
			<polygon class="st16" points="359.8,3198.9 339.2,3209.8 339.2,3032.4 359.8,3043.1 			"/>
		</g>
		<polygon class="st17" points="429.2,3234.9 429.2,3079.1 414.5,3071.4 414.5,3227.3 359.8,3198.9 339.2,3210 497.7,3292.6 
			497.7,3270.5 		"/>
	</g>
</g>
</svg>
