<?xml version="1.0" encoding="utf-8"?>
<!-- Generator: Adobe Illustrator 22.0.0, SVG Export Plug-In . SVG Version: 6.00 Build 0)  -->
<svg version="1.1" id="Layer_1" xmlns="http://www.w3.org/2000/svg" xmlns:xlink="http://www.w3.org/1999/xlink" x="0px" y="0px"
	 viewBox="0 0 75 48" style="enable-background:new 0 0 75 48;" xml:space="preserve">
<style type="text/css">
	.st0{fill:#278704;}
	.st1{fill:#8ECC37;}
	.st2{fill:#154802;}
	.st3{fill:#154902;}
</style>
<g>
	<g>
		<path class="st0" d="M45.2,19.2c-5.7-3.3-14.3-3.7-19.2-0.9c-4.9,2.8-4.2,7.8,1.5,11.1c5.7,3.3,14.3,3.7,19.2,0.9
			C51.6,27.5,50.9,22.5,45.2,19.2z"/>
		<g>
			<path class="st0" d="M68.9,29.4L45.1,43.1l-41.2-24L27.6,5.4L68.9,29.4z M41.3,38.4c2.4-1.4,6.1-1.5,8.3-0.3L60.3,32
				c-2.2-1.3-2-3.4,0.5-4.8l-29-16.9c-2.4,1.4-6.1,1.5-8.3,0.3c-0.1-0.1-0.2-0.1-0.3-0.2l-10.8,6.2c0.1,0,0.2,0.1,0.3,0.2
				c2.2,1.3,2,3.4-0.5,4.8L41.3,38.4L41.3,38.4z"/>
		</g>
		<g>
			<path class="st1" d="M12.7,16.7c-0.1-0.1-0.2-0.1-0.3-0.2l10.8-6.2c0.1,0.1,0.2,0.1,0.3,0.2c2.2,1.3,5.9,1.1,8.3-0.3l29,16.9
				c-2.4,1.4-2.6,3.5-0.5,4.8l-10.7,6.2c-2.2-1.3-5.9-1.1-8.3,0.3l-29-16.9C14.7,20.2,14.9,18,12.7,16.7z M46.7,30.3
				c4.9-2.8,4.2-7.8-1.5-11.1c-5.7-3.3-14.3-3.7-19.2-0.9c-4.9,2.8-4.2,7.8,1.5,11.1C33.2,32.7,41.8,33.1,46.7,30.3L46.7,30.3z"/>
		</g>
		<g>
			<polygon class="st2" points="45.1,43.1 45.1,45.5 68.9,31.8 68.9,29.4 			"/>
		</g>
		<g>
			<polygon class="st3" points="3.9,19.1 3.9,21.5 45.1,45.5 45.1,43.1 			"/>
		</g>
		<g>
			<polygon class="st1" points="33.6,26.3 34.5,26.8 35.5,26.8 35.9,26.6 36.1,26.3 33.4,22.3 33.9,21.3 35.9,20.1 39.8,20.1 
				40.8,20.7 41.8,20.1 43.9,21.3 42.9,21.9 43.7,22.4 45.1,24 42.4,24.8 41.1,23.4 38.5,21.9 37.5,21.9 37.1,22.1 36.9,22.5 
				39.7,26.4 39.1,27.5 37.1,28.6 33.3,28.6 32.3,28 31.2,28.7 29.1,27.4 30.2,26.8 29.3,26.3 27.9,24.7 30.7,23.9 31.9,25.3 
				33.6,26.3 			"/>
		</g>
	</g>
</g>
</svg>
