<svg height="496pt" viewBox="0 0 496 496" width="496pt" xmlns="http://www.w3.org/2000/svg"><g fill="#57a4ff"><path d="m96 344h112v144h-112zm0 0"/><path d="m288 216h-272v48h272zm0 0"/><path d="m184 144h-64v72h64zm0 0"/><path d="m368 40h32v32h-32zm0 0"/><path d="m312 40h32v32h-32zm0 0"/><path d="m424 40h32v32h-32zm0 0"/><path d="m368 104h32v32h-32zm0 0"/><path d="m312 104h32v32h-32zm0 0"/><path d="m424 104h32v32h-32zm0 0"/><path d="m368 168h32v32h-32zm0 0"/><path d="m312 168h32v32h-32zm0 0"/><path d="m424 168h32v32h-32zm0 0"/><path d="m368 232h32v32h-32zm0 0"/><path d="m312 232h32v32h-32zm0 0"/><path d="m424 232h32v32h-32zm0 0"/><path d="m368 296h32v32h-32zm0 0"/><path d="m312 296h32v32h-32zm0 0"/><path d="m424 296h32v32h-32zm0 0"/><path d="m368 360h32v32h-32zm0 0"/><path d="m312 360h32v32h-32zm0 0"/><path d="m424 360h32v32h-32zm0 0"/></g><path d="m488 480v-472c0-4.417969-3.582031-8-8-8h-192c-4.417969 0-8 3.582031-8 8v200h-88v-64c0-4.417969-3.582031-8-8-8h-24v-72c0-4.417969-3.582031-8-8-8s-8 3.582031-8 8v72h-24c-4.417969 0-8 3.582031-8 8v64h-96c-4.417969 0-8 3.582031-8 8v264c-4.417969 0-8 3.582031-8 8s3.582031 8 8 8h480c4.417969 0 8-3.582031 8-8s-3.582031-8-8-8zm-192-464h176v464h-176zm-168 136h48v56h-48zm152 72v32h-256v-32zm-256 48h256v208h-64v-136c0-4.417969-3.582031-8-8-8h-112c-4.417969 0-8 3.582031-8 8v136h-64zm176 208h-96v-128h96zm0 0" fill="#004fac"/><path d="m368 80h32c4.417969 0 8-3.582031 8-8v-32c0-4.417969-3.582031-8-8-8h-32c-4.417969 0-8 3.582031-8 8v32c0 4.417969 3.582031 8 8 8zm8-32h16v16h-16zm0 0" fill="#004fac"/><path d="m312 80h32c4.417969 0 8-3.582031 8-8v-32c0-4.417969-3.582031-8-8-8h-32c-4.417969 0-8 3.582031-8 8v32c0 4.417969 3.582031 8 8 8zm8-32h16v16h-16zm0 0" fill="#004fac"/><path d="m424 80h32c4.417969 0 8-3.582031 8-8v-32c0-4.417969-3.582031-8-8-8h-32c-4.417969 0-8 3.582031-8 8v32c0 4.417969 3.582031 8 8 8zm8-32h16v16h-16zm0 0" fill="#004fac"/><path d="m368 144h32c4.417969 0 8-3.582031 8-8v-32c0-4.417969-3.582031-8-8-8h-32c-4.417969 0-8 3.582031-8 8v32c0 4.417969 3.582031 8 8 8zm8-32h16v16h-16zm0 0" fill="#004fac"/><path d="m312 144h32c4.417969 0 8-3.582031 8-8v-32c0-4.417969-3.582031-8-8-8h-32c-4.417969 0-8 3.582031-8 8v32c0 4.417969 3.582031 8 8 8zm8-32h16v16h-16zm0 0" fill="#004fac"/><path d="m424 144h32c4.417969 0 8-3.582031 8-8v-32c0-4.417969-3.582031-8-8-8h-32c-4.417969 0-8 3.582031-8 8v32c0 4.417969 3.582031 8 8 8zm8-32h16v16h-16zm0 0" fill="#004fac"/><path d="m368 208h32c4.417969 0 8-3.582031 8-8v-32c0-4.417969-3.582031-8-8-8h-32c-4.417969 0-8 3.582031-8 8v32c0 4.417969 3.582031 8 8 8zm8-32h16v16h-16zm0 0" fill="#004fac"/><path d="m312 208h32c4.417969 0 8-3.582031 8-8v-32c0-4.417969-3.582031-8-8-8h-32c-4.417969 0-8 3.582031-8 8v32c0 4.417969 3.582031 8 8 8zm8-32h16v16h-16zm0 0" fill="#004fac"/><path d="m424 208h32c4.417969 0 8-3.582031 8-8v-32c0-4.417969-3.582031-8-8-8h-32c-4.417969 0-8 3.582031-8 8v32c0 4.417969 3.582031 8 8 8zm8-32h16v16h-16zm0 0" fill="#004fac"/><path d="m368 272h32c4.417969 0 8-3.582031 8-8v-32c0-4.417969-3.582031-8-8-8h-32c-4.417969 0-8 3.582031-8 8v32c0 4.417969 3.582031 8 8 8zm8-32h16v16h-16zm0 0" fill="#004fac"/><path d="m312 272h32c4.417969 0 8-3.582031 8-8v-32c0-4.417969-3.582031-8-8-8h-32c-4.417969 0-8 3.582031-8 8v32c0 4.417969 3.582031 8 8 8zm8-32h16v16h-16zm0 0" fill="#004fac"/><path d="m424 272h32c4.417969 0 8-3.582031 8-8v-32c0-4.417969-3.582031-8-8-8h-32c-4.417969 0-8 3.582031-8 8v32c0 4.417969 3.582031 8 8 8zm8-32h16v16h-16zm0 0" fill="#004fac"/><path d="m368 336h32c4.417969 0 8-3.582031 8-8v-32c0-4.417969-3.582031-8-8-8h-32c-4.417969 0-8 3.582031-8 8v32c0 4.417969 3.582031 8 8 8zm8-32h16v16h-16zm0 0" fill="#004fac"/><path d="m312 336h32c4.417969 0 8-3.582031 8-8v-32c0-4.417969-3.582031-8-8-8h-32c-4.417969 0-8 3.582031-8 8v32c0 4.417969 3.582031 8 8 8zm8-32h16v16h-16zm0 0" fill="#004fac"/><path d="m424 336h32c4.417969 0 8-3.582031 8-8v-32c0-4.417969-3.582031-8-8-8h-32c-4.417969 0-8 3.582031-8 8v32c0 4.417969 3.582031 8 8 8zm8-32h16v16h-16zm0 0" fill="#004fac"/><path d="m368 400h32c4.417969 0 8-3.582031 8-8v-32c0-4.417969-3.582031-8-8-8h-32c-4.417969 0-8 3.582031-8 8v32c0 4.417969 3.582031 8 8 8zm8-32h16v16h-16zm0 0" fill="#004fac"/><path d="m312 400h32c4.417969 0 8-3.582031 8-8v-32c0-4.417969-3.582031-8-8-8h-32c-4.417969 0-8 3.582031-8 8v32c0 4.417969 3.582031 8 8 8zm8-32h16v16h-16zm0 0" fill="#004fac"/><path d="m424 400h32c4.417969 0 8-3.582031 8-8v-32c0-4.417969-3.582031-8-8-8h-32c-4.417969 0-8 3.582031-8 8v32c0 4.417969 3.582031 8 8 8zm8-32h16v16h-16zm0 0" fill="#004fac"/></svg>