<?xml version="1.0" encoding="iso-8859-1"?>
<!-- Generator: Adobe Illustrator 19.0.0, SVG Export Plug-In . SVG Version: 6.00 Build 0)  -->
<svg version="1.1" id="Capa_1" xmlns="http://www.w3.org/2000/svg" xmlns:xlink="http://www.w3.org/1999/xlink" x="0px" y="0px"
	 viewBox="0 0 480.004 480.004" style="enable-background:new 0 0 480.004 480.004;" xml:space="preserve">
<g>
	<g>
		<path d="M469.38,290.63c-6.805-6.806-16.036-10.629-25.66-10.628h-2.12c-0.592,0-1.168,0.12-1.752,0.144
			c0.064-1.688,0.136-3.384,0.136-5.016c0.023-33.884-10.829-66.88-30.96-94.136l26.52-29.84c8.785-9.926,7.86-25.093-2.065-33.878
			c-5.913-5.234-14.023-7.224-21.687-5.322l-33.84,8.456c-3.512,0.88-7.177-0.708-8.936-3.872l-24.968-44.944
			c-6.436-11.588-21.047-15.764-32.634-9.328c-1.08,0.6-2.111,1.282-3.086,2.04l-41.168,32
			c17.918-19.447,16.679-49.738-2.768-67.656c-19.447-17.918-49.738-16.679-67.656,2.768c-7.516,8.157-11.966,18.67-12.592,29.743
			c-7.021,1.832-12.823,6.765-15.76,13.4l-20.904,47.04l-23.24-6.344c-12.787-3.492-25.983,4.043-29.475,16.83
			c-2.27,8.314,0.091,17.206,6.187,23.298l25.84,25.84c-25.369,34.487-35.689,77.777-28.608,120L96,301.762v-13.76
			c0-4.418-3.582-8-8-8H8c-4.418,0-8,3.582-8,8v184c0,4.418,3.582,8,8,8h278.36c13.285-0.005,26.137-4.728,36.264-13.328
			l146.752-124.736C483.545,327.771,483.547,304.8,469.38,290.63z M80,464.002H16v-168h64V464.002z M232,32.002
			c17.625-0.039,31.943,14.218,31.982,31.842c0.03,13.777-8.785,26.019-21.862,30.358l-37.064-28.8
			c-1.512-1.165-3.155-2.147-4.896-2.928C200.973,45.462,214.969,32.068,232,32.002z M144.704,184.178
			c2.775-3.438,2.238-8.475-1.2-11.25c-1.188-0.959-2.626-1.558-4.144-1.726l-27.104-27.12c-3.121-3.127-3.117-8.192,0.01-11.314
			c2.024-2.02,4.972-2.807,7.734-2.062l29.872,8.152c3.812,1.039,7.813-0.86,9.416-4.472l23.696-53.32
			c1.797-4.036,6.526-5.852,10.562-4.055c0.589,0.262,1.144,0.595,1.654,0.991l46.04,35.808c8.667,6.742,20.805,6.742,29.472,0
			l47.432-36.888c3.48-2.722,8.508-2.107,11.23,1.374c0.253,0.324,0.481,0.667,0.682,1.026l24.968,44.944
			c5.273,9.494,16.264,14.265,26.8,11.632l33.848-8.464c4.287-1.069,8.629,1.54,9.698,5.827c0.639,2.564-0.029,5.278-1.786,7.253
			l-27.256,30.688c-4.37,0.652-7.384,4.724-6.731,9.093c0.211,1.415,0.798,2.748,1.699,3.859
			c21.124,25.617,32.685,57.781,32.704,90.984c0,3.08-0.168,6.352-0.408,9.752c-1.421,0.786-2.787,1.668-4.088,2.64l-77.64,59.72
			c-11.276,8.661-24.491,14.446-38.504,16.856l-101.84,17.44c-4.583,0.632-8.81-2.571-9.442-7.154
			c-0.053-0.381-0.079-0.766-0.078-1.151c0.015-3.946,2.769-7.352,6.624-8.192l78.064-16.736
			c18.654-3.979,30.55-22.327,26.571-40.981c-3.4-15.936-17.476-27.328-33.771-27.331H209.24c-17.418,0.01-34.77,2.159-51.664,6.4
			l-43.64,10.912c-1.221-7.33-1.869-14.745-1.936-22.176C112.024,241.943,123.585,209.789,144.704,184.178z M458.536,330.186
			L312.264,454.49c-7.236,6.138-16.416,9.508-25.904,9.512H96V318.25l65.464-16.368c15.625-3.908,31.67-5.882,47.776-5.88h60.216
			c10.242,0.019,18.529,8.336,18.51,18.578c-0.016,8.724-6.11,16.257-14.638,18.094l-78.064,16.736
			c-13.153,2.868-21.491,15.856-18.623,29.01c2.724,12.49,14.634,20.754,27.287,18.934l102.12-17.488
			c16.577-2.849,32.211-9.692,45.552-19.936l77.64-59.72c3.547-2.72,7.89-4.199,12.36-4.208h2.104
			c11.199,0.009,20.278,9.081,20.296,20.28C464.043,321.449,462.085,326.431,458.536,330.186z"/>
	</g>
</g>
<g>
	<g>
		<path d="M392,0.002c-26.51,0-48,21.49-48,48c0.031,26.497,21.503,47.969,48,48c26.51,0,48-21.49,48-48S418.51,0.002,392,0.002z
			 M392,80.002c-17.673,0-32-14.327-32-32s14.327-32,32-32c17.673,0,32,14.327,32,32S409.673,80.002,392,80.002z"/>
	</g>
</g>
<g>
	<g>
		<path d="M272,200.002c-4.418,0-8-3.582-8-8s3.582-8,8-8s8,3.582,8,8h16c-0.042-10.134-6.445-19.15-16-22.528v-17.472h-16v17.472
			c-12.473,4.393-19.023,18.066-14.629,30.539c3.38,9.596,12.455,16.009,22.629,15.989c4.418,0,8,3.582,8,8s-3.582,8-8,8
			s-8-3.582-8-8h-16c0.042,10.134,6.445,19.15,16,22.528v17.472h16V246.53c12.473-4.393,19.023-18.066,14.63-30.539
			C291.249,206.395,282.174,199.983,272,200.002z"/>
	</g>
</g>
<g>
	<g>
		<rect x="160" y="176.002" width="16" height="16"/>
	</g>
</g>
<g>
	<g>
		<rect x="192" y="176.002" width="16" height="16"/>
	</g>
</g>
<g>
	<g>
		<rect x="224" y="176.002" width="16" height="16"/>
	</g>
</g>
<g>
	<g>
		<rect x="304" y="176.002" width="16" height="16"/>
	</g>
</g>
<g>
	<g>
		<rect x="336" y="176.002" width="16" height="16"/>
	</g>
</g>
<g>
	<g>
		<rect x="368" y="176.002" width="16" height="16"/>
	</g>
</g>
<g>
</g>
<g>
</g>
<g>
</g>
<g>
</g>
<g>
</g>
<g>
</g>
<g>
</g>
<g>
</g>
<g>
</g>
<g>
</g>
<g>
</g>
<g>
</g>
<g>
</g>
<g>
</g>
<g>
</g>
</svg>
