<svg xmlns="http://www.w3.org/2000/svg" viewBox="0 0 38 38" width="38"><title>Ресурс 1</title><path d="M31.74,35.56H36L34.92,37l1,.73L38,34.95l-2.11-2.81-1,.73L36,34.34H31.74a3.06,3.06,0,0,1-3.05-3.05V28.84a4.2,4.2,0,0,0-3.05-4.09v-.87l-1.22,0v.72h-1.9a6.47,6.47,0,0,0,.07-.92,6.34,6.34,0,0,0-1.35-3.91,4.24,4.24,0,0,0,1.16-4.34h3.85a3.67,3.67,0,0,0,3.66-3.66v-.61h1.22V9.92H29.91V8.09a3.67,3.67,0,0,0-3.66-3.66H25A1.22,1.22,0,0,1,23.81,3.2V2l1.47,1.1.73-1L23.2,0,20.39,2.11l.73,1L22.59,2V3.2A2.44,2.44,0,0,0,25,5.65h1.22a2.44,2.44,0,0,1,2.44,2.44v3.66a2.44,2.44,0,0,1-2.44,2.44H21.81a4.28,4.28,0,0,0-.64-.73,5.11,5.11,0,0,0,.2-1.4,5.18,5.18,0,0,0-4.49-5.14,5.19,5.19,0,0,0-8-2.75A5.11,5.11,0,0,0,7,3.82,5.15,5.15,0,0,0,1.88,9.69l0,.13a5.12,5.12,0,0,0,.15.66,5.18,5.18,0,0,0,.18,5.87A5.18,5.18,0,0,0,2,24.66a5.12,5.12,0,0,0-.74,2.66,5.19,5.19,0,0,0,5.19,5.19,5.12,5.12,0,0,0,1.8-.32,5.16,5.16,0,0,0,4.61,1.46v.08H14v-.47A5.2,5.2,0,0,0,16.88,30a6.38,6.38,0,0,0,5.34-4.23h2.2a3.06,3.06,0,0,1,3.05,3.05v2.44A4.28,4.28,0,0,0,31.74,35.56ZM16.37,28.83l-.48,0-.09.47A4,4,0,0,1,14,31.89H12.82v.49a3.87,3.87,0,0,1-.92.12,4,4,0,0,1-2.6-1,5.11,5.11,0,0,0,2.05-3.86l-1.14-.08a3.86,3.86,0,0,1-3.94,3.7,4,4,0,0,1-3.83-4,3.93,3.93,0,0,1,.84-2.44l.19-.24a4,4,0,0,1,2.67-1.28l-.08-1.22A5.17,5.17,0,0,0,2.7,23.69,4,4,0,0,1,3.43,17l.76-.38-.6-.6a3.91,3.91,0,0,1-.89-4.19A5.19,5.19,0,0,0,7,14.19l.38,0a5.17,5.17,0,0,0,1.28,2.62l.9-.83a4,4,0,0,1-1-2,5.18,5.18,0,0,0,3-2.52l-1.08-.57a4,4,0,0,1-7.24-.49,4.1,4.1,0,0,1-.18-.65v0A3.89,3.89,0,0,1,3.05,9,4,4,0,0,1,7,5a3.93,3.93,0,0,1,1.7.39l.35.17.3-.25a4,4,0,0,1,6.42,2.27l.09.47.48,0a4,4,0,0,1,3.16,1.82H18.31v1.22H20a3.88,3.88,0,0,1-.15,2.31l-.16.44.38.27,0,0h-3v1.22h4a3,3,0,0,1-.69,3.43,6.58,6.58,0,0,0-4.23-1.75,6.62,6.62,0,0,0-6.41,6.26H11a5.35,5.35,0,0,1,5.19-5,5.28,5.28,0,0,1,3.45,1.39l.3.35a5.19,5.19,0,0,1,1.44,3.58,5.42,5.42,0,0,1-.08.93H18.92a3.06,3.06,0,0,1-3.05-3.05v-.61H14.65v.61a4.28,4.28,0,0,0,4.27,4.27h2A5.16,5.16,0,0,1,16.37,28.83Z"/><rect x="12.82" y="28.23" width="1.22" height="1.83"/><rect x="24.42" y="31.29" width="1.22" height="1.83"/><path d="M25,21.82l1.05.62a3.11,3.11,0,0,1,1.06-1.08l-.64-1A4.32,4.32,0,0,0,25,21.82Z"/><path d="M28.69,19.69H28.5l.14,1.22h1.89V19.69Z"/><rect x="32.35" y="19.69" width="1.83" height="1.22"/><path d="M14.41,35.19l-1.07.59a4.33,4.33,0,0,0,1.44,1.54l.66-1A3.11,3.11,0,0,1,14.41,35.19Z"/><path d="M17.09,36.78h-.22L16.79,38h2.13V36.78Z"/><rect x="24.42" y="27.62" width="1.22" height="1.83"/><path d="M22.48,37.85l-.32-1.18a3,3,0,0,1-.79.1h-.61V38h.61A4.23,4.23,0,0,0,22.48,37.85Z"/><path d="M24.32,36.81A4.3,4.3,0,0,0,25.44,35l-1.16-.37a3.08,3.08,0,0,1-.8,1.28Z"/><polygon points="36.02 19.69 36.02 20.91 34.92 22.37 35.89 23.11 38 20.3 35.89 17.49 34.92 18.22 36.02 19.69"/><rect x="32.96" y="9.92" width="1.83" height="1.22"/><rect x="21.98" y="9.92" width="1.83" height="1.22"/><rect x="25.64" y="9.92" width="1.83" height="1.22"/><rect x="14.65" y="9.92" width="1.83" height="1.22"/><polygon points="36.47 10.53 34.92 12.61 35.89 13.34 38 10.53 35.89 7.72 34.92 8.46 36.47 10.53"/></svg>