<?xml version="1.0" encoding="iso-8859-1"?>
<!-- Generator: Adobe Illustrator 19.0.0, SVG Export Plug-In . SVG Version: 6.00 Build 0)  -->
<svg version="1.1" id="Capa_1" xmlns="http://www.w3.org/2000/svg" xmlns:xlink="http://www.w3.org/1999/xlink" x="0px" y="0px"
	 viewBox="0 0 480.12 480.12" style="enable-background:new 0 0 480.12 480.12;" xml:space="preserve"  width="39" heigh="39">
<g>
	<g>
		<path d="M296.066,272.12c1.241,0,2.465-0.289,3.575-0.844l48-24c3.952-1.977,5.553-6.784,3.576-10.736
			c-0.774-1.547-2.029-2.802-3.576-3.576l-48-24c-3.952-1.976-8.758-0.373-10.734,3.579c-0.555,1.111-0.844,2.336-0.844,3.577v16
			h-32v-168h32v16c0.001,4.419,3.584,8.001,8.003,8c1.241,0,2.465-0.289,3.575-0.844l48-24c3.952-1.977,5.553-6.784,3.576-10.736
			c-0.774-1.547-2.029-2.802-3.576-3.576l-48-24c-3.952-1.976-8.758-0.373-10.734,3.579c-0.555,1.111-0.844,2.336-0.844,3.577v16
			h-40c-4.417-0.001-7.999,3.579-8,7.996c0,0.001,0,0.003,0,0.004v176h-56.405c-4.429-48.388-47.246-84.024-95.634-79.595
			C39.636,156.954,4,199.771,8.429,248.159c4.147,45.301,42.143,79.971,87.634,79.961c45.469-0.064,83.419-34.723,87.595-80h56.405
			v176c-0.001,4.417,3.579,7.999,7.996,8c0.001,0,0.003,0,0.004,0h40v16c0.001,4.419,3.584,8.001,8.003,8
			c1.241,0,2.465-0.289,3.575-0.844l48-24c3.952-1.977,5.553-6.784,3.576-10.736c-0.774-1.547-2.029-2.802-3.576-3.576l-48-24
			c-3.952-1.976-8.758-0.373-10.734,3.579c-0.555,1.111-0.844,2.336-0.844,3.577v16h-32v-168h32v16
			C288.064,268.539,291.647,272.121,296.066,272.12z M304.063,229.065l22.113,11.055l-22.113,11.055V229.065z M304.063,45.065
			l22.113,11.055l-22.113,11.055V45.065z M96.063,312.12c-39.765,0-72-32.236-72-72c0.045-39.746,32.254-71.955,72-72
			c39.765,0,72,32.235,72,72C168.063,279.884,135.827,312.12,96.063,312.12z M304.063,413.065l22.113,11.055l-22.113,11.055V413.065
			z"/>
	</g>
</g>
<g>
	<g>
		<path d="M447.21,54.096c12.203-12.784,11.732-33.04-1.051-45.243c-12.784-12.203-33.04-11.732-45.243,1.051
			c-11.804,12.366-11.804,31.826,0,44.191c-15.318,8.438-24.838,24.536-24.853,42.024v40c-0.001,4.417,3.579,7.999,7.996,8
			c0.001,0,0.003,0,0.004,0h80c4.417,0.001,7.999-3.579,8-7.996c0-0.001,0-0.003,0-0.004v-40
			C472.048,78.631,462.528,62.534,447.21,54.096z M424.063,16.12c8.837,0,16,7.163,16,16s-7.163,16-16,16
			c-8.832-0.01-15.99-7.168-16-16C408.063,23.283,415.226,16.12,424.063,16.12z M456.063,128.12h-64v-32c0-17.673,14.327-32,32-32
			c17.673,0,32,14.327,32,32V128.12z"/>
	</g>
</g>
<g>
	<g>
		<path d="M447.21,222.096c12.203-12.784,11.732-33.04-1.051-45.243c-12.784-12.203-33.04-11.732-45.243,1.051
			c-11.804,12.366-11.804,31.826,0,44.191c-15.318,8.438-24.838,24.536-24.853,42.024v40c-0.001,4.417,3.579,7.999,7.996,8
			c0.001,0,0.003,0,0.004,0h80c4.417,0.001,7.999-3.579,8-7.996c0-0.001,0-0.003,0-0.004v-40
			C472.048,246.631,462.528,230.534,447.21,222.096z M424.063,184.12c8.837,0,16,7.163,16,16s-7.163,16-16,16
			c-8.832-0.01-15.99-7.168-16-16C408.063,191.283,415.226,184.12,424.063,184.12z M456.063,296.12h-64v-32
			c0-17.673,14.327-32,32-32c17.673,0,32,14.327,32,32V296.12z"/>
	</g>
</g>
<g>
	<g>
		<path d="M447.21,390.096c12.203-12.784,11.732-33.04-1.051-45.243c-12.784-12.203-33.04-11.732-45.243,1.051
			c-11.804,12.366-11.804,31.826,0,44.191c-15.318,8.438-24.838,24.536-24.853,42.024v40c-0.001,4.417,3.579,7.999,7.996,8
			c0.001,0,0.003,0,0.004,0h80c4.417,0.001,7.999-3.579,8-7.996c0-0.001,0-0.003,0-0.004v-40
			C472.048,414.631,462.528,398.534,447.21,390.096z M424.063,352.12c8.837,0,16,7.163,16,16s-7.163,16-16,16
			c-8.832-0.01-15.99-7.168-16-16C408.063,359.283,415.226,352.12,424.063,352.12z M456.063,464.12h-64v-32
			c0-17.673,14.327-32,32-32c17.673,0,32,14.327,32,32V464.12z"/>
	</g>
</g>
<g>
	<g>
		<path d="M98.434,232.471c-9.016-2.813-10.371-3.906-10.371-8.352c0-4.418,3.582-8,8-8s8,3.582,8,8h16
			c-0.031-10.137-6.439-19.158-16-22.526V184.12h-16v17.474c-9.561,3.368-15.969,12.389-16,22.526
			c0,16.883,13.527,21.102,21.609,23.625c9.031,2.813,10.391,3.906,10.391,8.375c-0.004,4.416-3.584,7.996-8,8
			c-4.416-0.004-7.996-3.584-8-8h-16c0.031,10.137,6.439,19.158,16,22.525v17.475h16v-17.474c9.561-3.368,15.969-12.389,16-22.526
			C120.063,239.213,106.524,234.987,98.434,232.471z"/>
	</g>
</g>
<g>
</g>
<g>
</g>
<g>
</g>
<g>
</g>
<g>
</g>
<g>
</g>
<g>
</g>
<g>
</g>
<g>
</g>
<g>
</g>
<g>
</g>
<g>
</g>
<g>
</g>
<g>
</g>
<g>
</g>
</svg>
