<?xml version="1.0" encoding="iso-8859-1"?>
<!-- Generator: Adobe Illustrator 19.0.0, SVG Export Plug-In . SVG Version: 6.00 Build 0)  -->
<svg version="1.1" id="Capa_1" xmlns="http://www.w3.org/2000/svg" xmlns:xlink="http://www.w3.org/1999/xlink" x="0px" y="0px"
	 viewBox="0 0 512 512" style="enable-background:new 0 0 512 512;" xml:space="preserve"  width="37" heigh="37">
<g>
	<g>
		<path d="M509.705,2.313c-1.657-1.656-3.971-2.481-6.297-2.259L320.166,17.787c-6.453,0.625-9.381,8.747-4.787,13.343
			l35.836,35.835L90.961,327.219c-3.061,3.061-3.061,8.023,0,11.083l82.754,82.754c3.019,3.019,8.064,3.019,11.083,0l45.086-45.086
			c3.061-3.061,3.061-8.023,0-11.083c-3.061-3.061-8.023-3.061-11.083,0l-39.544,39.544l-71.671-71.671L367.84,72.506
			c3.061-3.061,3.061-8.023,0-11.083l-29.634-29.634l157.24-15.217l-15.217,157.24l-29.633-29.634
			c-3.061-3.061-8.022-3.062-11.084,0L243.88,339.81c-3.061,3.061-3.061,8.023,0,11.083c3.061,3.061,8.022,3.061,11.084,0
			l190.091-190.091l35.835,35.835c4.595,4.594,12.718,1.669,13.343-4.787L511.963,8.61C512.189,6.278,511.36,3.969,509.705,2.313z"
			/>
	</g>
</g>
<g>
	<g>
		<path d="M155.243,439.528l-82.754-82.754c-3.061-3.061-8.023-3.061-11.083,0c-3.061,3.061-3.061,8.023,0,11.082l82.754,82.754
			c3.188,3.187,8.568,2.973,11.499-0.449C158.287,447.095,158.097,442.381,155.243,439.528z"/>
	</g>
</g>
<g>
	<g>
		<path d="M125.688,469.084L42.934,386.33c-3.061-3.061-8.023-3.061-11.083,0c-3.061,3.061-3.061,8.023,0,11.083l82.754,82.754
			c3.187,3.187,8.568,2.973,11.499-0.449C128.732,476.65,128.542,471.937,125.688,469.084z"/>
	</g>
</g>
<g>
	<g>
		<path d="M96.132,498.639l-82.754-82.754c-3.061-3.061-8.023-3.061-11.083,0c-3.061,3.061-3.061,8.023,0,11.083l82.754,82.754
			c3.187,3.187,8.568,2.973,11.499-0.449C99.176,506.205,98.986,501.492,96.132,498.639z"/>
	</g>
</g>
<g>
	<g>
		<path d="M395.49,304.076c-50.416,0-91.431,41.016-91.431,91.431c0,50.416,41.016,91.431,91.431,91.431
			s91.431-41.016,91.431-91.431C486.921,345.092,445.906,304.076,395.49,304.076z M395.49,471.265
			c-41.773,0-75.757-33.984-75.757-75.757c0-41.773,33.984-75.757,75.757-75.757c41.773,0,75.757,33.984,75.757,75.757
			C471.247,437.281,437.263,471.265,395.49,471.265z"/>
	</g>
</g>
<g>
	<g>
		<path d="M417.225,387.043c4.329,0,7.837-3.509,7.837-7.837v-5.434c0-12.498-9.55-22.807-21.735-24.018v-8.584
			c0-4.328-3.508-7.837-7.837-7.837s-7.837,3.509-7.837,7.837v8.959c-12.366,2.398-21.734,13.302-21.734,26.358
			c0,14.808,12.047,26.855,26.855,26.855h5.433c6.165,0,11.181,5.016,11.181,11.181c0,6.165-5.016,11.181-11.181,11.181h-8.15
			c-4.667,0-8.464-3.797-8.464-8.464c0-4.328-3.508-7.837-7.837-7.837s-7.837,3.509-7.837,7.837
			c0,12.498,9.549,22.808,21.735,24.018v8.584c0,4.328,3.508,7.837,7.837,7.837c4.329,0,7.837-3.509,7.837-7.837v-8.959
			c12.366-2.398,21.735-13.302,21.735-26.358c0-14.808-12.047-26.855-26.855-26.855h-5.433c-6.165,0-11.181-5.016-11.181-11.181
			s5.016-11.181,11.181-11.181h8.15c4.667,0,8.464,3.797,8.464,8.464v5.434C409.388,383.535,412.895,387.043,417.225,387.043z"/>
	</g>
</g>
<g>
	<g>
		<path d="M111.269,19.855c-50.416,0-91.431,41.016-91.431,91.431c0,50.416,41.016,91.431,91.431,91.431
			c50.416,0,91.431-41.016,91.431-91.431C202.7,60.871,161.685,19.855,111.269,19.855z M111.269,187.044
			c-41.773,0-75.757-33.984-75.757-75.757c0-41.773,33.984-75.757,75.757-75.757c41.773,0,75.757,33.984,75.757,75.757
			C187.027,153.06,153.042,187.044,111.269,187.044z"/>
	</g>
</g>
<g>
	<g>
		<path d="M133.004,102.823c4.328,0,7.837-3.509,7.837-7.837v-5.434c0-12.498-9.549-22.808-21.735-24.018V56.95
			c0-4.328-3.509-7.837-7.837-7.837c-4.328,0-7.837,3.509-7.837,7.837v8.959c-12.367,2.398-21.734,13.302-21.734,26.359
			c0,14.808,12.047,26.855,26.855,26.855h5.434c6.165,0,11.181,5.016,11.181,11.181c0,6.165-5.016,11.181-11.181,11.181h-8.15
			c-4.667,0-8.464-3.797-8.464-8.464c0-4.328-3.509-7.837-7.837-7.837c-4.328,0-7.837,3.509-7.837,7.837
			c0,12.498,9.549,22.808,21.734,24.018v8.584c0,4.328,3.509,7.837,7.837,7.837c4.328,0,7.837-3.509,7.837-7.837v-8.959
			c12.367-2.398,21.735-13.302,21.735-26.359c0-14.808-12.047-26.855-26.855-26.855h-5.434c-6.165,0-11.181-5.016-11.181-11.181
			s5.016-11.181,11.181-11.181h8.15c4.667,0,8.464,3.797,8.464,8.464v5.434C125.167,99.314,128.676,102.823,133.004,102.823z"/>
	</g>
</g>
<g>
</g>
<g>
</g>
<g>
</g>
<g>
</g>
<g>
</g>
<g>
</g>
<g>
</g>
<g>
</g>
<g>
</g>
<g>
</g>
<g>
</g>
<g>
</g>
<g>
</g>
<g>
</g>
<g>
</g>
</svg>
