<svg height="40" viewBox="0 0 480 480" width="40" xmlns="http://www.w3.org/2000/svg">
    <path d="m368 342.328125v-102.328125c-.089844-53.546875-33.480469-101.386719-83.710938-119.9375l27.023438-60.796875c.957031-2.160156.914062-4.632813-.125-6.757813-1.035156-2.125-2.957031-3.679687-5.25-4.25l-17.242188-4.320312c-11.375-2.832031-23.386718-1.511719-33.871093 3.726562-4.605469 2.289063-9.679688 3.480469-14.824219 3.488282v16c7.625-.015625 15.144531-1.792969 21.96875-5.191406 7.066406-3.53125 15.164062-4.421876 22.832031-2.511719l8 2.007812-24 53.941407c-9.441406-2.222657-19.101562-3.363282-28.800781-3.398438v16c61.828125.066406 111.933594 50.171875 112 112v99.199219c-20.296875-2.203125-40.777344 1.882812-58.679688 11.695312l-2.023437 1.105469h-59.296875c-9.964844 0-19.363281 4.644531-25.417969 12.5625-6.054687 7.917969-8.074219 18.203125-5.460937 27.820312l-64.5625-29.597656c-2.722656-1.1875-5.609375-1.96875-8.558594-2.320312v-120.464844c-.015625-10.089844 1.328125-20.132812 4-29.863281l-15.425781-4.273438c-3.050781 11.121094-4.589844 22.605469-4.574219 34.136719v122.566406c-7.425781 3.121094-13.289062 9.09375-16.273438 16.578125-5.621093 13.941407-.242187 29.902344 12.671876 37.597657l92.089843 55.257812c8.699219 5.226562 18.652344 7.992188 28.800781 8h250.710938v-16h-72v-88h72v-16h-77.273438c-10.304687-8.109375-22.105468-14.113281-34.726562-17.671875zm-159.28125 116-92.085938-55.28125c-6.171874-3.671875-8.742187-11.300781-6.046874-17.957031 2.183593-5.457032 7.464843-9.03125 13.34375-9.042969 2.0625.003906 4.097656.453125 5.972656 1.3125l82.769531 37.914063c1.042969.480468 2.179687.726562 3.328125.726562h80c4.417969 0 8-3.582031 8-8s-3.582031-8-8-8h-64c-8.835938 0-16-7.164062-16-16s7.164062-16 16-16h61.335938c1.339843 0 2.65625-.335938 3.832031-.976562l3.808593-2.078126c29.019532-15.980468 64.746094-13.269531 91.023438 6.902344v92.152344h-162.703125c-7.25 0-14.363281-1.972656-20.578125-5.703125zm0 0" />
    <path d="m424 432h16v16h-16zm0 0" />
    <path d="m232 176v16h-4.222656c-12.886719-.003906-24.085938 8.851562-27.046875 21.394531-2.960938 12.539063 3.09375 25.472657 14.621093 31.230469l42.144532 21.0625c4.890625 2.441406 7.457031 7.925781 6.199218 13.246094-1.253906 5.316406-6.007812 9.070312-11.472656 9.066406h-44.222656v16h24v16h16v-16h4.222656c12.886719.003906 24.085938-8.851562 27.046875-21.394531 2.960938-12.539063-3.09375-25.472657-14.621093-31.230469l-42.144532-21.0625c-4.890625-2.441406-7.457031-7.925781-6.199218-13.246094 1.253906-5.316406 6.007812-9.070312 11.472656-9.066406h44.222656v-16h-24v-16zm0 0" />
    <path d="m93.335938 160 61.863281 46.398438c2.617187 1.960937 6.160156 2.132812 8.953125.433593 2.789062-1.695312 4.269531-4.921875 3.734375-8.144531l-6.4375-38.6875h22.550781c22.082031-.027344 39.972656-17.917969 40-40v-80c-.027344-22.082031-17.917969-39.9726562-40-40h-144c-22.082031.0273438-39.9726562 17.917969-40 40v80c.0273438 22.082031 17.917969 39.972656 40 40zm-77.335938-40v-80c0-13.253906 10.746094-24 24-24h144c13.253906 0 24 10.746094 24 24v80c0 13.253906-10.746094 24-24 24h-32c-2.351562 0-4.582031 1.035156-6.101562 2.828125-1.519532 1.792969-2.171876 4.164063-1.785157 6.484375l4.6875 28.289062-48-36c-1.386719-1.039062-3.070312-1.601562-4.800781-1.601562h-56c-13.253906 0-24-10.746094-24-24zm0 0" />
    <path d="m66.34375 114.339844 80-80 11.3125 11.3125-80 80zm0 0" />
    <path d="m72 80c13.253906 0 24-10.746094 24-24s-10.746094-24-24-24-24 10.746094-24 24 10.746094 24 24 24zm0-32c4.417969 0 8 3.582031 8 8s-3.582031 8-8 8-8-3.582031-8-8 3.582031-8 8-8zm0 0" />
    <path d="m128 104c0 13.253906 10.746094 24 24 24s24-10.746094 24-24-10.746094-24-24-24-24 10.746094-24 24zm32 0c0 4.417969-3.582031 8-8 8s-8-3.582031-8-8 3.582031-8 8-8 8 3.582031 8 8zm0 0" />
</svg>