<svg xmlns="http://www.w3.org/2000/svg" viewBox="0 0 182.8 43.59"><defs><style>.cls-1{fill:#f15a24;stroke:#f15a24;stroke-width:0.58px;}.cls-1,.cls-3,.cls-4{stroke-miterlimit:10;}.cls-2{fill:#fff;}.cls-3,.cls-4{fill:none;stroke:#fff;}.cls-3{stroke-width:2.33px;}.cls-4{stroke-width:2px;}</style></defs><title>logo</title><g id="Layer_2" data-name="Layer 2"><g id="Слой_1" data-name="Слой 1"><path class="cls-1" d="M54.36,40.85a8.05,8.05,0,0,1-2.64-6.16,8,8,0,0,1,2.64-6.13,10.13,10.13,0,0,1,13.27,0,8,8,0,0,1,2.67,6.13,8,8,0,0,1-2.67,6.16,10.21,10.21,0,0,1-13.27,0ZM61,42.25a8,8,0,0,0,5.71-2.16,7.43,7.43,0,0,0,0-10.79,8.62,8.62,0,0,0-11.42,0,7.43,7.43,0,0,0,0,10.79A8,8,0,0,0,61,42.25Z"/><path class="cls-1" d="M77.51,43V26.37H78.6L91.33,41.11V26.37h1.23V43H91.49L78.73,28.25V43Z"/><path class="cls-1" d="M100.6,43V26.37h12.49v1H101.82v6.16h9.32v1h-9.32V42h11.69v1Z"/><path class="cls-2" d="M177.05,11.86c2.51-.53,4-2.25,4-4.49A4.11,4.11,0,0,0,179.41,4,6.9,6.9,0,0,0,175,2.75H141V16.67H128.44v-14h-2.9V16.77h-7.48l-6.9-14.11h-2.78l-7,14.23H92.78V2.75H89.9V9.16H77V2.75H50.12l0,2.35h9.37V19h2.88V5.1H74.17V19H77V11.51H89.9V19h13.55l2-4h8.68l2,4h40.53V16.67H143.92V11.51h9.92V9.16h-9.92V5.1H162V19l2.88-.07V12.14h9L179.33,19h3.48Zm-70.65.86,3.35-6.83,3.35,6.83Zm58.46-2.84V5.1h9.95c2.09,0,3.32.88,3.32,2.37s-1.23,2.42-3.32,2.42Z"/><path class="cls-3" d="M1.49,18.57a13.81,13.81,0,0,0-.32,2.71A20.28,20.28,0,0,0,21.59,41.57,20.23,20.23,0,0,0,42,21.37a15.22,15.22,0,0,0-.25-2.8"/><path class="cls-3" d="M41.79,18.57A20.76,20.76,0,0,0,21.55,1.16,20.56,20.56,0,0,0,1.49,18.57"/><polyline class="cls-4" points="1.66 16.8 13.66 16.8 13.66 31.8 28.66 31.8 28.66 16.8 42.66 16.8"/></g></g></svg>