<svg xmlns="http://www.w3.org/2000/svg" xmlns:xlink="http://www.w3.org/1999/xlink" viewBox="0 0 12.67 13.57" width="51" height="51"><defs><style>.a{fill:none;}.b{fill:#fff;}.c{clip-path:url(#a);}</style><clipPath id="a" transform="translate(-0.03)"><rect class="a" width="12.7" height="13.57"/></clipPath></defs><title>Ресурс 1</title><path class="b" d="M10.19,4.3a.22.22,0,0,1,.16.07l2.26,2.26a.23.23,0,0,1-.32.32L10,4.68a.23.23,0,0,1,0-.32.22.22,0,0,1,.16-.07Z" transform="translate(-0.03)"/><path class="b" d="M12.45,6.56a.22.22,0,0,1,.16.07.23.23,0,0,1,0,.32L10.35,9.21A.23.23,0,1,1,10,8.89l2.26-2.26a.22.22,0,0,1,.16-.07Z" transform="translate(-0.03)"/><g class="c"><path class="b" d="M12.47,7H7.26a.23.23,0,1,1,0-.45h5.2a.23.23,0,0,1,0,.45Z" transform="translate(-0.03)"/></g><g class="c"><path class="b" d="M6.13,13.57h0L.22,12.67A.22.22,0,0,1,0,12.44V1.13A.23.23,0,0,1,.22.91L6.1,0a.22.22,0,0,1,.18.05.23.23,0,0,1,.08.17V13.35a.23.23,0,0,1-.08.17.22.22,0,0,1-.15.05ZM.48,12.25l5.43.83V.49L.48,1.33Z" transform="translate(-0.03)"/></g><path class="b" d="M9.07,12.89H6.13a.23.23,0,0,1-.23-.23V.91A.23.23,0,0,1,6.13.68H9.07A.23.23,0,0,1,9.3.91V3.85a.23.23,0,1,1-.45,0V1.13H6.36V12.44H8.85V9.73a.23.23,0,0,1,.45,0v2.94a.23.23,0,0,1-.23.23Z" transform="translate(-0.03)"/><path class="b" d="M4.55,7.47a.91.91,0,1,1,.91-.91.91.91,0,0,1-.91.91Zm0-1.36A.45.45,0,1,0,5,6.56a.45.45,0,0,0-.45-.45Z" transform="translate(-0.03)"/></svg>