<?xml version="1.0"?>
<svg xmlns="http://www.w3.org/2000/svg" height="51" viewBox="-17 0 511 511.99607" width="51"><path d="m358.898438 349.863281c-2.183594 0-4.371094-.835937-6.035157-2.5l-85.332031-85.335937c-3.335938-3.335938-3.335938-8.726563 0-12.0625 3.328125-3.339844 8.738281-3.339844 12.066406 0l85.332032 85.332031c3.339843 3.335937 3.339843 8.730469 0 12.066406-1.664063 1.664063-3.847657 2.5-6.03125 2.5zm0 0" fill="#FFFFFF"/><path d="m273.566406 264.53125c-2.1875 0-4.371094-.839844-6.035156-2.503906-3.335938-3.335938-3.335938-8.726563 0-12.0625l85.332031-85.335938c3.328125-3.335937 8.738281-3.335937 12.066407 0 3.339843 3.335938 3.339843 8.730469 0 12.066406l-85.332032 85.332032c-1.664062 1.664062-3.847656 2.503906-6.03125 2.503906zm0 0" fill="#FFFFFF"/><path d="m469.832031 264.53125h-196.265625c-4.710937 0-8.535156-3.824219-8.535156-8.535156 0-4.710938 3.824219-8.535156 8.535156-8.535156h196.265625c4.710938 0 8.53125 3.824218 8.53125 8.535156 0 4.710937-3.820312 8.535156-8.53125 8.535156zm0 0" fill="#FFFFFF"/><path d="m230.898438 511.996094c-.4375 0-.863282-.035156-1.296876-.101563l-221.867187-34.132812c-4.164063-.640625-7.238281-4.226563-7.238281-8.433594v-426.664063c0-4.214843 3.074218-7.792968 7.238281-8.433593l221.867187-34.1328128c2.464844-.3750002 4.964844.3320318 6.851563 1.9531248 1.894531 1.625 2.976563 3.988281 2.976563 6.480469v494.929688c0 2.492187-1.082032 4.855468-2.976563 6.480468-1.554687 1.328125-3.53125 2.054688-5.554687 2.054688zm-213.332032-49.988282 204.796875 31.503907v-475.039063l-204.796875 31.511719zm0 0" fill="#FFFFFF"/><path d="m341.832031 486.394531h-110.933593c-4.710938 0-8.535157-3.820312-8.535157-8.53125v-443.734375c0-4.710937 3.824219-8.53125 8.535157-8.53125h110.933593c4.710938 0 8.53125 3.820313 8.53125 8.53125v110.933594c0 4.710938-3.820312 8.535156-8.53125 8.535156-4.710937 0-8.535156-3.824218-8.535156-8.535156v-102.398438h-93.867187v426.664063h93.867187v-102.398437c0-4.710938 3.824219-8.535157 8.535156-8.535157 4.710938 0 8.53125 3.824219 8.53125 8.535157v110.933593c0 4.710938-3.820312 8.53125-8.53125 8.53125zm0 0" fill="#FFFFFF"/><path d="m171.164062 281.597656c-18.824218 0-34.132812-15.308594-34.132812-34.136718 0-18.824219 15.308594-34.132813 34.132812-34.132813 18.824219 0 34.132813 15.308594 34.132813 34.132813 0 18.828124-15.308594 34.136718-34.132813 34.136718zm0-51.203125c-9.410156 0-17.066406 7.65625-17.066406 17.066407 0 9.414062 7.65625 17.070312 17.066406 17.070312 9.414063 0 17.066407-7.65625 17.066407-17.070312 0-9.410157-7.652344-17.066407-17.066407-17.066407zm0 0" fill="#FFFFFF"/></svg>
