<svg 
 xmlns="http://www.w3.org/2000/svg"
 xmlns:xlink="http://www.w3.org/1999/xlink"
 width="645px" height="346px">
<path fill-rule="evenodd"  fill="rgb(220, 220, 220)"
 d="M645.000,343.999 L645.000,345.999 L-0.000,345.999 L-0.000,343.999 L18.000,343.999 L18.000,296.999 L-0.000,296.999 L-0.000,296.000 L18.000,296.000 L18.000,249.000 L-0.000,249.000 L-0.000,248.000 L18.000,248.000 L18.000,201.000 L-0.000,201.000 L-0.000,200.000 L18.000,200.000 L18.000,153.000 L-0.000,153.000 L-0.000,152.000 L18.000,152.000 L18.000,105.000 L-0.000,105.000 L-0.000,103.999 L18.000,103.999 L18.000,56.999 L-0.000,56.999 L-0.000,55.999 L18.000,55.999 L18.000,8.999 L-0.000,8.999 L-0.000,7.999 L18.000,7.999 L18.000,-0.001 L19.000,-0.001 L19.000,7.999 L94.000,7.999 L94.000,-0.001 L95.000,-0.001 L95.000,7.999 L171.000,7.999 L171.000,-0.001 L172.000,-0.001 L172.000,7.999 L247.000,7.999 L247.000,-0.001 L248.000,-0.001 L248.000,7.999 L323.000,7.999 L323.000,-0.001 L324.000,-0.001 L324.000,7.999 L399.000,7.999 L399.000,-0.001 L400.000,-0.001 L400.000,7.999 L476.000,7.999 L476.000,-0.001 L477.000,-0.001 L477.000,7.999 L552.000,7.999 L552.000,-0.001 L553.000,-0.001 L553.000,7.999 L628.000,7.999 L628.000,-0.001 L629.000,-0.001 L629.000,7.999 L645.000,7.999 L645.000,8.999 L629.000,8.999 L629.000,55.999 L645.000,55.999 L645.000,56.999 L629.000,56.999 L629.000,103.999 L645.000,103.999 L645.000,105.000 L629.000,105.000 L629.000,152.000 L645.000,152.000 L645.000,153.000 L629.000,153.000 L629.000,200.000 L645.000,200.000 L645.000,201.000 L629.000,201.000 L629.000,248.000 L645.000,248.000 L645.000,249.000 L629.000,249.000 L629.000,296.000 L645.000,296.000 L645.000,296.999 L629.000,296.999 L629.000,343.999 L645.000,343.999 ZM94.000,8.999 L19.000,8.999 L19.000,55.999 L94.000,55.999 L94.000,8.999 ZM94.000,56.999 L19.000,56.999 L19.000,103.999 L94.000,103.999 L94.000,56.999 ZM94.000,105.000 L19.000,105.000 L19.000,152.000 L94.000,152.000 L94.000,105.000 ZM94.000,153.000 L19.000,153.000 L19.000,200.000 L94.000,200.000 L94.000,153.000 ZM94.000,201.000 L19.000,201.000 L19.000,248.000 L94.000,248.000 L94.000,201.000 ZM94.000,249.000 L19.000,249.000 L19.000,296.000 L94.000,296.000 L94.000,249.000 ZM19.000,296.999 L19.000,343.999 L94.000,343.999 L94.000,296.999 L19.000,296.999 ZM171.000,8.999 L95.000,8.999 L95.000,55.999 L171.000,55.999 L171.000,8.999 ZM171.000,56.999 L95.000,56.999 L95.000,103.999 L171.000,103.999 L171.000,56.999 ZM171.000,105.000 L95.000,105.000 L95.000,152.000 L171.000,152.000 L171.000,105.000 ZM171.000,153.000 L95.000,153.000 L95.000,200.000 L171.000,200.000 L171.000,153.000 ZM171.000,201.000 L95.000,201.000 L95.000,248.000 L171.000,248.000 L171.000,201.000 ZM171.000,249.000 L95.000,249.000 L95.000,296.000 L171.000,296.000 L171.000,249.000 ZM95.000,296.999 L95.000,343.999 L171.000,343.999 L171.000,296.999 L95.000,296.999 ZM247.000,8.999 L172.000,8.999 L172.000,55.999 L247.000,55.999 L247.000,8.999 ZM247.000,56.999 L172.000,56.999 L172.000,103.999 L247.000,103.999 L247.000,56.999 ZM247.000,105.000 L172.000,105.000 L172.000,152.000 L247.000,152.000 L247.000,105.000 ZM247.000,153.000 L172.000,153.000 L172.000,200.000 L247.000,200.000 L247.000,153.000 ZM247.000,201.000 L172.000,201.000 L172.000,248.000 L247.000,248.000 L247.000,201.000 ZM247.000,249.000 L172.000,249.000 L172.000,296.000 L247.000,296.000 L247.000,249.000 ZM172.000,296.999 L172.000,343.999 L247.000,343.999 L247.000,296.999 L172.000,296.999 ZM323.000,8.999 L248.000,8.999 L248.000,55.999 L323.000,55.999 L323.000,8.999 ZM323.000,56.999 L248.000,56.999 L248.000,103.999 L323.000,103.999 L323.000,56.999 ZM323.000,105.000 L248.000,105.000 L248.000,152.000 L323.000,152.000 L323.000,105.000 ZM323.000,153.000 L248.000,153.000 L248.000,200.000 L323.000,200.000 L323.000,153.000 ZM323.000,201.000 L248.000,201.000 L248.000,248.000 L323.000,248.000 L323.000,201.000 ZM323.000,249.000 L248.000,249.000 L248.000,296.000 L323.000,296.000 L323.000,249.000 ZM248.000,296.999 L248.000,343.999 L323.000,343.999 L323.000,296.999 L248.000,296.999 ZM399.000,8.999 L324.000,8.999 L324.000,55.999 L399.000,55.999 L399.000,8.999 ZM399.000,56.999 L324.000,56.999 L324.000,103.999 L399.000,103.999 L399.000,56.999 ZM399.000,105.000 L324.000,105.000 L324.000,152.000 L399.000,152.000 L399.000,105.000 ZM399.000,153.000 L324.000,153.000 L324.000,200.000 L399.000,200.000 L399.000,153.000 ZM399.000,201.000 L324.000,201.000 L324.000,248.000 L399.000,248.000 L399.000,201.000 ZM399.000,249.000 L324.000,249.000 L324.000,296.000 L399.000,296.000 L399.000,249.000 ZM324.000,296.999 L324.000,343.999 L399.000,343.999 L399.000,296.999 L324.000,296.999 ZM476.000,8.999 L400.000,8.999 L400.000,55.999 L476.000,55.999 L476.000,8.999 ZM476.000,56.999 L400.000,56.999 L400.000,103.999 L476.000,103.999 L476.000,56.999 ZM476.000,105.000 L400.000,105.000 L400.000,152.000 L476.000,152.000 L476.000,105.000 ZM476.000,153.000 L400.000,153.000 L400.000,200.000 L476.000,200.000 L476.000,153.000 ZM476.000,201.000 L400.000,201.000 L400.000,248.000 L476.000,248.000 L476.000,201.000 ZM476.000,249.000 L400.000,249.000 L400.000,296.000 L476.000,296.000 L476.000,249.000 ZM400.000,296.999 L400.000,343.999 L476.000,343.999 L476.000,296.999 L400.000,296.999 ZM552.000,8.999 L477.000,8.999 L477.000,55.999 L552.000,55.999 L552.000,8.999 ZM552.000,56.999 L477.000,56.999 L477.000,103.999 L552.000,103.999 L552.000,56.999 ZM552.000,105.000 L477.000,105.000 L477.000,152.000 L552.000,152.000 L552.000,105.000 ZM552.000,153.000 L477.000,153.000 L477.000,200.000 L552.000,200.000 L552.000,153.000 ZM552.000,201.000 L477.000,201.000 L477.000,248.000 L552.000,248.000 L552.000,201.000 ZM552.000,249.000 L477.000,249.000 L477.000,296.000 L552.000,296.000 L552.000,249.000 ZM477.000,296.999 L477.000,343.999 L552.000,343.999 L552.000,296.999 L477.000,296.999 ZM628.000,8.999 L553.000,8.999 L553.000,55.999 L628.000,55.999 L628.000,8.999 ZM628.000,56.999 L553.000,56.999 L553.000,103.999 L628.000,103.999 L628.000,56.999 ZM628.000,105.000 L553.000,105.000 L553.000,152.000 L628.000,152.000 L628.000,105.000 ZM628.000,153.000 L553.000,153.000 L553.000,200.000 L628.000,200.000 L628.000,153.000 ZM628.000,201.000 L553.000,201.000 L553.000,248.000 L628.000,248.000 L628.000,201.000 ZM628.000,249.000 L553.000,249.000 L553.000,296.000 L628.000,296.000 L628.000,249.000 ZM628.000,296.999 L553.000,296.999 L553.000,343.999 L628.000,343.999 L628.000,296.999 Z"/>
</svg>